<?xml version="1.0" encoding="utf-8"?>
<!-- Generator: Adobe Illustrator 27.0.1, SVG Export Plug-In . SVG Version: 6.00 Build 0)  -->
<svg version="1.1" id="Layer_1" xmlns="http://www.w3.org/2000/svg" xmlns:xlink="http://www.w3.org/1999/xlink" x="0px" y="0px"
	 width="225px" height="200px" viewBox="0 0 225 200" style="enable-background:new 0 0 225 200;" xml:space="preserve">
<style type="text/css">
	.st0{opacity:0.1;fill:#08163A;}
</style>
<path class="st0" d="M210.7,122c0-0.4,0.4-0.4,0.4-0.9l0,0L210.7,122c0-0.4,0.4-0.4,0.4-0.4l0,0C211.2,121.1,211.2,121.1,210.7,122
	c0,0,0,0.4-0.4,0.4c0,0.4-0.4,0.9-0.4,0.9l-0.9,1.3c0,0,0,0.4-0.4,0.4c0,0,0,0.4-0.4,0.4l-0.4,0.9c-0.4,0.9-1.3,2.2-1.7,3
	c-0.4,0.9-0.9,1.7-1.7,2.2l0,0c0,0,0,0.4-0.4,0.4l0,0l-0.4,0.9l0,0l-0.4,0.4c-0.9,0.9-1.7,1.3-2.6,2.2c-1.7,0.9-3.9,1.3-6.5,1.3
	c-1.3,0-3,0-4.8-0.4c-17-2.2-40.5-17-53.1-33.5c0-0.4-0.4-0.4-0.4-0.9l0,0l0,0l0,0l0,0c-1.7-2.2-3-4.4-4.4-6.5l0,0l0,0
	c1.3-0.4,2.2-2.2,2.2-4.4c0-0.9,0-2.2,0-3.5c0-0.9,0-1.7-0.4-3c-0.4-2.6-0.9-5.7-1.7-8.7c-0.9-3.9-2.2-7.8-3.9-11.8
	c-0.9-2.6-2.2-4.8-3-7.4c-3.5-7.8-7.8-16.1-12.6-23.1c-1.3-2.2-3-4.4-4.4-6.1l-0.4-0.4c-2.2-3-4.4-5.7-6.5-7.4
	c-2.6-2.6-5.2-4.4-7.4-5.2C91.8,14,91.4,14,90.5,14c-0.4,0-0.9,0-0.9,0.4c2.2-0.9,4.8-2.2,7-3.5l0,0l0,0l0.4-0.4
	c0.9-0.4,2.2-0.9,3.5-1.3h0.4c0,0,0,0-0.4,0c0,0,0,0-0.4,0c0.4-0.4,1.3-0.4,1.7-0.9l0,0c0.9,0,1.3,0,2.2,0c2.2,0.4,5.2,1.7,7.8,4.4
	c2.2,1.7,4.4,3.9,6.5,7c0.4,0.4,0.4,0.9,0.9,1.3c1.3,1.7,2.2,3.5,3.5,5.2c5.2,8.3,10,18.3,13.1,28.3c0.9,2.2,1.3,4.8,2.2,7
	c0.9,3.9,1.7,7.4,2.2,11.3c0.4,3,0.4,6.1,0.4,8.7c0,1.3,0,2.2-0.4,3c0,0.9-0.4,1.3-0.4,1.7l0,0c0,0.9-0.4,1.3-0.4,1.7
	c-0.9,2.6-2.6,4.4-4.4,5.2h-0.4c-0.4,0-0.9,0.4-1.3,0.4l0.4,0.9c0.9,1.7,2.2,3.5,3.5,5.2l0.4,0.4c2.6,3,5.2,6.1,8.7,9.1
	c13.5,11.8,32.7,20,47.9,20c2.2,0,4.4-0.4,6.5-0.9c3-0.9,5.7-1.7,7.4-3.5C209,123.8,209.8,123,210.7,122L210.7,122L210.7,122
	L210.7,122z M64.8,30.6L64.8,30.6L64.8,30.6L64.8,30.6z M192,147.7c-0.4,0.4-1.7,0.9-2.6,0.9c-1.3,0-3,0-4.8-0.4
	c-0.9-0.4-2.2-0.4-3-1.3c-6.5-2.6-13.9-7.4-21.8-13.5c-4.4-3.5-9.1-7.4-13.5-11.8c-5.2-4.8-10-10.5-13.9-15.2
	c-2.2-2.6-3.5-5.2-4.8-7.4c0-0.4-0.4-0.4-0.4-0.9l0,0c-0.4,0.4-0.9,0.4-1.3,0.9l0,0c-0.4,0-0.4,0.4-0.9,0.4l0,0
	c0.4,0,0.4-0.4,0.4-0.9s0-1.3-0.4-1.7c0-0.9-0.4-1.7-0.9-2.6s-0.4-1.7-0.9-2.6c-0.9-2.6-2.2-5.2-3.9-8.3c-2.2-3.9-4.8-8.7-7.4-13.5
	c-5.2-8.7-11.3-18.3-17-26.6c-1.3-2.2-3-3.9-4.4-5.7c-1.3-2.2-3-3.9-4.4-5.2c-3-3.9-5.7-6.5-7.4-7.8c-0.4-0.4-1.3-0.9-1.7-0.9
	s-0.9-0.4-0.9,0l0,0c0,0,0,0-0.4,0l0,0c0,0-0.4,0-0.4,0.4c-0.9,0.4-2.2,1.3-3,1.7c0,0-0.4,0-0.4,0.4l0,0c-0.9,0.9-2.2,1.7-3.5,2.6
	l0,0c0,0-0.4,0-0.4,0.4c0,0-0.4,0-0.4,0.4c-0.4,0.4-0.9,0.4-1.3,0.9c0,0-0.4,0-0.4,0.4c0,0,0,0-0.4,0l0,0l0,0l0,0l0,0l0,0
	c0,0,0.4,0.4,0.9,0.9c0.4,0.4,0.9,1.3,1.3,1.7c1.7,2.2,4.4,5.7,7.8,10.5c0.4,0.9,1.3,1.7,1.7,2.2c3.5,4.4,7,9.1,10.9,14.4
	c2.2,3,4.8,6.5,7.4,9.6c5.2,7,10,13.5,13.9,18.7c2.2,3,3.9,5.7,5.7,7.8c0.4,0.9,1.3,1.7,1.7,2.2c0.9,0.9,1.3,1.7,1.7,2.2
	c0.9,1.3,1.3,2.2,1.3,2.2c-0.9,0.4-1.7,1.3-2.2,1.7c0,0,0,0-0.4,0.4l0,0l0,0l0,0c0.9,0.9,1.7,2.2,2.6,3.5c1.3,1.7,2.6,3.5,3.9,5.2
	l0,0c1.7,2.2,3,4.4,4.8,6.5c5.7,7.8,11.8,17,17,25.3c3,4.8,5.7,9.1,7.8,13.1c1.7,3,3.5,6.1,4.4,8.7c0,0,0,0,0.4,0c0,0,0,0-0.4,0
	c0.4,0.9,0.9,1.7,1.3,2.6c0.4,1.3,0.9,2.2,1.3,3c0.4,1.3,0.4,2.2,0.4,2.2l0,0c0.4,0,0.4-0.4,0.9-0.4l0.9-0.4l0,0
	c2.2-1.7,5.2-3.5,7.4-5.2c0.4-0.4,0.9-0.4,1.3-0.9l0,0c0,0-0.4-0.4-1.3-1.3c-0.4-0.9-1.3-1.7-2.2-2.6c-0.4-0.4-0.9-1.3-1.7-2.2
	c0,0,0,0-0.4,0c0,0,0,0,0.4,0c-1.7-2.2-4.4-5.2-7-8.7c-5.2-7-11.8-15.2-18.3-23.5l0,0c-4.8-6.1-9.1-12.2-13.5-17.9l0,0
	c-0.4-0.9-0.9-1.3-1.7-2.2c-2.2-2.6-3.9-5.2-5.2-7c0.4-0.4,0.9-0.4,1.3-0.9l0.9-0.9l0.4-0.4l0,0l0,0c0,0,0.4,0,0.4-0.4l0,0
	c0.4,0,0.4-0.4,0.9-0.4c1.3,2.6,3.5,5.7,6.1,8.7c1.3,1.7,3,3.9,4.4,5.7c8.7,10.5,19.2,21.3,28.7,29.6c4.4,3.5,8.3,7,11.8,9.1
	c0.9,0.4,1.7,1.3,2.6,1.7c1.3,0.9,2.6,1.3,3.9,1.7c0.9,0.4,1.7,0.4,2.2,0l0,0l0,0l0,0l0,0l1.3-1.3l0,0l0,0l0.4-0.4
	c0.9-0.9,1.7-1.7,2.6-2.6l0.4-0.4c0.4-0.4,0.9-0.9,1.3-1.3l0,0l0,0l0,0c0.4-0.4,0.9-0.9,1.3-1.3l0,0l0,0
	C191.6,148.1,192,147.7,192,147.7L192,147.7C192,147.7,192.4,147.3,192,147.7C192.4,147.3,192,147.3,192,147.7L192,147.7z
	 M192.4,146.8C192.9,146.8,192.9,146.8,192.4,146.8C192.4,146.8,192.4,147.3,192.4,146.8C192.4,147.3,192.4,147.3,192.4,146.8z
	 M13.9,157.7c0,0,0,0.4,0.4,0.4c0,0.4,0.4,0.4,0.4,0.9c-0.4-0.9-0.9-1.7-1.3-2.2C13.9,157.3,13.9,157.7,13.9,157.7z M98.4,125.5v0.4
	C98.4,125.9,98.4,125.9,98.4,125.5L98.4,125.5z M224.7,68L224.7,68L224.7,68c0-0.4,0-0.4,0-0.9c0-0.4,0-0.9,0-1.3s0-0.9,0-1.3l0,0
	l0,0c0,0.4,0,0.4,0,0.9c0,1.3,0,2.6,0,3.5c0-0.9,0-2.2,0-3.5c0.4,10-3,23.5-22.6,34c0,0.4,0,0.4,0,0.9c0-0.4,0-0.4,0-0.9
	c-3,1.7-6.5,2.6-10,3.5c-4.8,1.3-10,1.7-14.8,1.7c-13.5,0-26.1-4.8-34.4-13.5c0.4,0,0.9,0,1.3-0.4h0.4l0,0l0,0h0.4
	c9.6,7.8,23.5,10.5,37.5,7.8c3.9-0.9,8.3-2.2,11.8-3.9c2.2-0.9,4.4-2.2,6.1-3.5c18.3-11.3,26.1-31.4,19.6-47c-0.4-1.3-0.9-2.2-1.3-3
	c0,0,0,0,0-0.4c-0.4-0.9-0.9-1.7-1.3-2.2c-0.4-0.9-0.9-1.7-1.3-2.6c-0.4-0.4-0.4-0.9-0.9-1.3c-0.4-0.4-0.9-1.3-1.3-1.7
	c3,4.8,4.4,10.5,4.4,16.1c0,4.4-0.4,8.7-2.2,13.1c-3,9.1-9.1,17.9-18.3,24.8c-1.7,1.3-3.5,2.2-5.2,3.5c-3,1.7-6.5,3.5-10,4.4
	c-13.1,4.4-26.6,3-36.6-3.9l0,0c0.4,0,0.9,0,1.3-0.4c9.6,4.8,21.8,4.8,33.1-0.9c2.6-1.3,5.7-3,8.3-4.8c1.3-0.9,3-2.2,4.4-3.5
	c4.8-4.4,9.1-9.6,11.8-15.2c7-13.5,7.8-29.2,1.7-40.9c-0.9-1.3-1.7-2.6-2.6-3.9c-1.7-2.2-3.9-4.4-6.1-6.1c-1.7-1.3-4.8-3-6.5-4.4
	l0,0l0,0c-0.9-0.4-1.3-0.9-2.2-1.3c-0.4,0-0.4-0.4-0.9-0.4c0,0,0,0-0.4,0c-1.3-0.4-1.7-0.4-2.2-0.9l0,0l0,0l0,0H185l0,0l0,0h-0.4
	l0,0h-0.4l0,0c-0.4,0-0.9-0.4-0.9-0.4l0,0c0.4,0.4,1.3,0.4,1.7,0.9c0.4,0,0.9,0.4,0.9,0.4l0,0c3,1.7,5.7,3.9,7.8,6.5
	c0.4,0.4,0.9,1.3,1.3,1.7c9.6,13.1,9.6,32.7,1.3,48.8c-2.2,4.8-5.7,9.1-9.1,13.1l0,0l0,0c-1.3,1.3-2.6,2.6-3.9,3.5
	c-2.2,1.7-4.4,3.5-7,4.8c-9.6,5.7-20.5,7-29.2,3.5c3.5-0.9,6.5-3,9.1-6.5c0.9-1.3,2.2-2.6,3-4.4c0.4-1.3,1.3-2.2,1.7-3.5l0,0l0,0
	c1.3-3,2.2-6.1,2.6-9.6c0.9-3.9,1.3-7.8,1.3-11.8c0-2.6,0-5.2-0.4-7.8c-0.4-10.9-3.5-21.3-8.3-30c-0.9-1.7-2.2-3.5-3.5-5.2
	c-0.4-0.4-0.9-0.9-1.3-1.7c-2.2-2.2-4.8-4.4-7-6.1c-3-2.2-6.1-3-9.1-3.5c-0.9,0-1.7,0-2.2,0c-0.4,0-0.4,0-0.9,0l-5.2,0.9l0,0
	c0,0,0,0-0.4,0h-0.4c-2.2,0.4-4.4,0.9-6.1,1.3c0.9,0,1.7,0,2.6,0c2.6,0,5.7,1.3,8.7,3.5c2.2,2.2,4.4,4.4,6.5,6.5
	c0.4,0.4,0.9,1.3,1.7,2.2c0.9,0.9,1.7,2.2,2.2,3c5.7,8.7,10,20.5,11.8,31.8c0.4,2.6,0.9,5.2,0.9,7.4c0.4,3.9,0.4,7.4,0,11.3
	c-0.4,3-0.9,6.1-1.3,9.1l0,0c-0.4,1.3-0.9,2.6-1.3,3.5c-0.4,1.7-1.3,3-2.2,4.4c-2.2,3.5-4.8,5.2-7.8,6.1l0,0l0,0
	c-0.4,0-0.4,0-0.9,0.4l0,0c6.5,7.8,16.5,13.5,27.9,15.7c6.1,1.3,12.2,1.7,18.3,1.3c5.2-0.4,10-1.7,14.8-3.5
	c13.5-5.7,20.9-14.4,22.6-26.1v-0.4l0,0c0-0.4,0-1.3,0-2.2v-0.4l0,0c0-1.3,0-2.2,0-3c0,0.9,0,1.7,0,3l0,0c0-1.3,0-2.2,0-3
	C225.1,71.5,225.1,69.3,224.7,68z M145.8,173.8c-0.4-2.6-1.3-5.7-2.2-8.7c-1.3-3.9-2.6-7.8-4.4-12.2c-1.3-3-2.6-6.1-4.4-9.6
	c-3-6.5-6.5-13.1-10.5-18.7c-1.7-2.6-3-4.8-4.8-7c-0.4-0.4-0.9-0.9-1.3-1.7c-2.2-3-4.4-5.2-6.1-7.4l-0.4-0.4l0,0
	c-0.4,0.4-1.7,0.4-3-0.4c-0.9-0.4-1.7-0.9-2.6-1.3s-1.7-0.9-2.2-1.7l0,0c-3-2.2-6.5-5.2-10.5-8.3c-10-8.7-21.3-21.3-30.5-32.2
	c-1.3-1.3-2.2-3-3.5-4.4c-3.5-4.4-5.7-8.3-7.4-11.3c-0.9-1.3-1.3-2.6-1.7-3.5c0-1.3,0-2.2,0.4-3l0,0l0,0c0,0,0,0-0.4,0.4l-0.9,0.9
	L47.7,45c0,0-0.4,0.4-0.9,0.4l0,0c-0.4,0.4-0.9,0.9-1.3,1.3c-0.9,0.9-2.2,2.2-3,3c0,0.4-0.4,0.4-0.9,0.9c0,0,0,0-0.4,0.4l0,0l0,0
	c-0.9,1.3-0.9,3,0,6.1c0.4,1.3,1.3,3,2.2,5.2c1.3,2.6,3,5.2,5.7,8.3c3,3.9,6.5,8.3,10.9,12.6c5.7,6.1,12.2,11.8,18.3,16.5
	c7,5.2,13.5,9.6,19.2,12.2l0,0c1.3,0.4,2.2,0.9,3,1.3c1.3,0.4,2.6,0.9,3.5,0.9c1.7,0,3,0,3.9-0.9l0,0l0,0c0,0,0,0,0.4-0.4l0.4-0.4
	l0.4-0.4c1.7,1.7,3.5,3.5,5.2,5.7c0.4,0.4,0.4,0.4,0.9,0.9c1.3,1.7,2.6,3.5,3.5,5.2c5.2,8.3,10,17.9,13.1,27.4
	c0.9,2.2,1.7,4.8,2.2,7c0.9,3.9,1.7,7.8,2.2,11.3c0.4,3,0.4,6.1,0.4,8.7c0,0.9,0,2.2,0,3c0,1.7-0.4,3-0.9,3.9
	c-0.9,2.2-1.7,3.9-3.5,4.4l0,0c-0.4,0-0.4,0.4-0.9,0.4h0.4l2.2-0.9l0,0l0,0c2.6-1.3,5.7-2.6,8.3-3.9c0.4,0,0.9-0.4,1.3-0.4
	c0,0,0.4,0,0.4-0.4c0.9-0.4,1.3-1.7,1.7-3.5c0-0.9,0-2.2,0-3.5C146.3,176,146.3,175.1,145.8,173.8z M125.8,153.8
	c-2.2-10.9-6.1-21.8-11.8-30.5c-0.9-1.3-1.7-2.6-2.6-3.9l0,0l0,0c0,0,0,0,0.4,0c-0.4-0.4-0.9-1.3-1.3-1.7c-0.9-1.3-2.2-2.2-3-3.5
	l-0.4,0.4l0,0l0,0l0,0l0,0l0,0l0,0l0,0l0,0c-0.4,0.4-0.4,0.9-0.9,1.3c0.4,0.4,1.3,1.3,1.7,2.2c0.4,0.4,0.9,1.3,1.3,1.7
	c0,0,0,0,0.4,0l0,0l0,0c0.9,1.3,2.2,2.6,3,4.4c5.2,8.7,8.7,19.6,9.6,30.5c0.4,2.6,0.4,4.8,0.4,7.4c0,4.4-0.4,8.3-0.9,12.2
	c-0.4,3.5-1.3,6.5-2.6,9.6h0.4h-0.4c-0.4,1.3-0.9,2.2-1.7,3.5c-0.9,1.7-1.7,3.5-3,4.8c-2.6,3.5-5.7,5.7-9.1,6.5h-0.4
	c-0.4,0-1.3,0-1.7,0.4c0.4,0,0.9,0,0.9,0l0,0l0,0l2.6-0.4l0,0l0,0l0,0c0.4,0,0.4,0,0.9,0c0.9,0,1.7-0.4,2.6-0.4
	c1.3-0.4,2.2-0.4,3-0.9h0.4c0.4,0,0.9-0.4,1.3-0.4c0,0,0,0,0.4,0s0.9-0.4,1.3-0.4h0.4l0,0c2.6-0.9,4.4-2.6,6.1-5.7
	c0.9-1.3,1.3-3,2.2-4.8c0.4-0.9,0.9-2.2,0.9-3h-0.4h0.4c0.9-2.6,1.3-6.1,1.3-9.1c0-3.9,0-7.8-0.4-11.8
	C126.7,158.6,126.3,156.4,125.8,153.8z M107.1,184.7c1.7-3,3.5-6.5,4.4-10c1.3-4.4,2.6-9.6,2.6-14.4c0.4-3.5,0.4-7,0-10.5
	c-0.4-7.4-2.2-14.8-5.2-21.3c-0.9-2.2-2.2-4.4-3.9-6.5c-0.4-0.4-0.9-0.9-0.9-1.3c-0.4-0.4-0.9-0.9-1.3-1.3c0,0,0-0.4,0.4-0.4v-0.4
	c-0.9,1.3-2.2,2.2-3.5,2.6c0,0-0.9,0.4-2.2,0.4c0,0,0,0-0.4,0c-0.9,0-2.2,0-3,0c-1.3,0-3,0-4.8-0.4c-17-3-40.9-18.7-53.1-35.3
	c-0.4-0.4-0.9-1.3-1.3-1.7c-1.7-2.6-3.5-5.2-4.4-7.8c-2.2-4.8-2.2-8.7-0.4-11.3v-0.4l-2.2,3l0,0l0,0l0,0c-0.4,0.4-0.9,1.3-1.3,1.7
	c-0.4,0.9-0.9,1.7-1.7,2.2c-0.4,0.9-1.3,1.7-1.7,2.6l0,0l0,0l0,0l0,0l0,0l0,0l0,0c0,0,0,0.4-0.4,0.4c-2.2,4.4-1.3,10.5,2.6,17
	c0.9,1.7,1.7,3,3,4.8c1.3,1.7,3,3.9,4.8,5.7C46.7,116,68,126.9,84.6,126.9c2.6,0,4.8,0,6.5-0.4c3-0.4,5.2-1.7,7.4-3l0,0
	c3.9,15.2-3.5,33.1-20.5,44l0,0c-2.2,1.3-4.4,2.6-6.5,3.5c-3.5,1.7-7.4,3-10.9,3.9c-16.5,3.9-34-0.4-43.1-12.6
	c-0.9-1.3-1.7-2.6-2.6-3.9c0.9,2.6,0.9,3,1.3,3.9c0.9,1.3,1.3,2.6,2.2,3.9c0.9,1.3,2.2,3,3.5,5.2l0,0l0,0c0.4,0.4,0.9,0.9,0.9,1.3
	c0.4,0.4,0.4,0.4,0.9,0.9c10,11.3,27,13.9,43.1,8.3c3-1.3,6.1-2.6,9.1-4.4c1.7-0.9,3.5-2.2,5.2-3.5l0,0c0.9,0,1.7-1.3,2.2-1.7
	L85,171l0.4-0.4c0-0.4,0.4-0.9,0.4-0.9l0,0c0.4-0.4,0.4-0.4,0.9-0.9l0,0l0.4-0.4c0,0,0,0,0.4-0.4l0.4-0.4c0,0,0,0,0.4-0.4l0.4-0.4
	c0,0,0,0,0.4-0.4l0.4-0.4c0,0,0,0,0.4-0.4l0,0c0,0,0-0.4,0.4-0.4c0,0,0,0,0.4-0.4l0.4-0.4c0,0,0,0,0.4-0.4c0-0.4,0.4-0.4,0.4-0.9
	l0,0c0-0.4,0.4-0.4,0.4-0.9l0,0c0,0,0,0,0-0.4c0,0,0,0,0-0.4l0,0l0,0l0,0V161c0,0,0-0.4,0.4-0.4l0,0l0,0l0,0l0,0c0,0,0-0.4,0.4-0.4
	l0,0l0,0l0,0c0,0,0-0.4,0.4-0.4v-0.4l0,0l0,0l0,0l0,0V159l0,0l0,0c0,0,0,0,0-0.4l0,0c0,0,0,0,0-0.4l0,0v-0.4c0,0,0,0,0-0.4l0,0l0,0
	l0,0V156v-0.4l0,0l0,0v-0.4l0,0c0,0,0,0,0-0.4l0,0l0,0l0,0l0,0v-0.4l0,0l0,0l0,0l0,0l0,0c0,0,0,0,0-0.4l0,0l0,0l0,0v-0.4l0,0l0,0
	l0,0v-0.4v-0.4l0,0c0-0.4,0-0.4,0.4-0.9v-0.4l0,0v-0.4l0,0l0,0c0-0.4,0-0.4,0.4-0.9v-0.4c0-0.4,0-0.4,0.4-0.9v-0.4
	c0-0.4,0-0.4,0-0.9v-0.4l0,0v-0.4c0-0.4,0-0.4,0-0.9l0,0v-0.4l0,0l0,0v-0.4v-0.4l0,0l0,0l0,0l0,0l0,0l0,0c0,0,0,0,0-0.4l0,0l0,0
	c0,0,0,0,0-0.4l0,0l0,0v-0.4l0,0c0,0,0,0,0-0.4V142l0,0l0,0c0,0,0,0,0-0.4v-0.9l0,0v-0.4l0,0l0,0c0,0,0,0,0-0.4l0,0l0,0l0,0l0,0l0,0
	l0,0l0,0c0,0,0,0,0-0.4c0,0,0,0,0-0.4c0,0,0,0,0-0.4l0,0l0,0l0,0l0,0l0,0l0,0c0,0,0,0,0-0.4l0,0v-0.4l0,0l0,0l0,0l0,0c0,0,0,0,0-0.4
	l0,0v-0.4l0,0l0,0l0,0c0,0,0,0,0-0.4v-0.4l0,0l0,0l0,0v-0.4l0,0l0,0c0,0,0,0,0-0.4l0,0l0,0v-0.4v-0.4l0,0l0,0l0,0l0,0l0,0l0,0v-0.4
	v-0.4l0.4-1.3c5.7,11.8,4.4,27-2.6,40.1c-2.6,5.2-6.5,10.5-11.3,14.8l0,0l0,0c-1.3,1.3-2.6,2.2-4.4,3.5c-2.6,1.7-4.8,3.5-7.4,4.8
	c-12.2,6.5-24.8,6.5-36.1,0c0,0,0,0-0.4,0c0,0,0,0,0.4,0c0.4,0.4,0.9,0.4,0.9,0.9c0,0,0.4,0,0.4,0.4l0,0c0,0,0.4,0,0.4,0.4
	c0.4,0.4,0.9,0.9,1.7,0.9l0,0c0.4,0.4,1.3,0.9,1.7,0.9l0,0c6.1-7.8,6.5-7.4,7-7.4c0.9,0.4,1.7,0.9,3,1.3c0.4,0.4,1.3,0.4,2.2,0.9
	l0,0l0,0c-0.4-0.4-1.3-0.4-1.7-0.9c1.3,0.4,3,1.3,4.4,1.7c8.7,2.6,18.3,1.3,27.4-4.4c2.2-1.3,4.8-3,7-5.2c1.3-1.3,2.2-2.2,3.5-3.5
	l0,0l0,0c3.5-3.9,6.5-8.3,9.1-13.1c3.9-7.8,6.1-17,5.7-25.3c0-2.2,0-3.9-0.4-6.1c-0.9-5.2-2.2-10-4.8-14.4l0,0
	c0-0.4,0.4-0.4,0.4-0.9l0,0v-0.4l0.4-0.9c0.9,1.3,1.7,2.6,2.6,3.9c2.2,3.9,3.9,8.7,4.8,13.5c0,0.9,0.4,1.7,0.4,2.6
	c0.9,5.2,0.9,10.9,0,16.5c-0.9,5.2-2.2,10.9-3.9,15.7c-1.7,3.9-3.5,7.4-6.1,10.9c-0.9,1.3-1.7,2.6-3,3.5c-1.7,1.7-3.5,3.5-5.2,5.2
	c-6.5,4.8-13.5,7-20,6.5c1.3,0,2.6,0.4,3.9,0.4l0,0h0.4c0.4,0,0.4,0,0.9,0h0.4h0.4h-0.4c0.9,0,1.3,0,2.2,0s1.7,0,2.6,0l0,0H82
	c0,0,0,0,0.4,0h0.4c0.4,0,0.4,0,0.9,0h0.4l0,0l0,0h0.4c0.4,0,0.9,0,1.3,0c5.2-0.4,10-2.6,14.4-7c1.3-1.3,3-3,4.4-4.8
	C105.3,187.3,106.2,186,107.1,184.7z M15.2,159.9L15.2,159.9L15.2,159.9C14.8,159.9,15.2,159.9,15.2,159.9z M213.4,32.7
	c-0.4-0.9-0.9-1.3-1.3-2.2C212.5,31.4,212.9,32.3,213.4,32.7z M216,106.3c-3.5,3.9-9.1,6.5-15.7,8.3l0,0l0,0c-8.3,2.2-17.9,1.7-27,0
	c-7-1.7-13.9-4.4-19.6-7.8c-5.7-3.5-10.5-7.8-14.4-12.6l0,0l0,0c-0.4-0.4-0.9-0.9-0.9-1.3c-0.4,0-0.9,0.4-1.3,0.4
	c-0.4,0-0.4,0-0.9,0.4c0.9,1.3,1.3,2.2,2.2,3.5l0,0l0,0c1.7,2.6,3.9,4.8,6.5,7c3.9,3.5,8.3,6.5,13.1,9.1c12.6,7,27.4,10.5,40.1,8.7
	c0-0.4,0.4-0.9,0.4-0.9c0,0.4-0.4,0.9-0.4,0.9c3.9-0.4,7.4-1.7,10.5-3c3.5-1.7,6.1-4.4,7.8-7c0,0,0,0,0-0.4s0.4-0.4,0.4-0.9
	c0,0,0,0,0-0.4c0,0,0-0.4,0.4-0.4l0,0c0.4-0.9,0.4-1.7,0.9-2.6v-0.4c0.9-2.6,2.2-5.7,3-8.3l0,0l0,0
	C219.9,101.5,218.1,104.2,216,106.3z M51.3,167.7c4.8,0,10-0.9,14.8-2.2c3.5-0.9,6.5-2.2,9.6-3.9c15.2-7.8,23.5-21.3,22.6-34
	c0-0.4,0-0.9,0-1.3c0,0.4,0,0.4,0,1.3l0,0c-1.7,3.5-4.4,6.1-8.7,8.3c-3,1.7-6.5,2.6-10.5,3.5l0,0c-12.2,1.7-26.1-0.9-38.3-7
	c-5.7-3-10.9-6.5-15.7-10.5c-2.2-2.2-4.4-4.4-5.7-6.5c-5.7-7.8-7.4-15.2-5.7-21.3c0,0,0,0,0-0.4l0,0l0,0c0-0.4,0.4-0.9,0.4-0.9
	c0,0.4,0,0.4-0.4,0.9c0,0.4-0.4,0.9-0.4,1.7l0,0l0,0c0,0.4-0.4,0.9-0.4,1.3s-0.4,0.9-0.4,1.3s-0.4,0.9-0.4,0.9
	c-0.4,1.7-1.3,3.9-1.7,5.7v0.4l0,0l0,0l0,0l0,0l0,0c-2.6,13.5,6.5,26.6,21.3,34.8c6.1,3.5,12.6,5.7,20,7c8.3,1.3,17,1.3,25.3-0.4
	l0,0c9.1-2.6,14.4-6.5,17.4-10.5c2.6-3.5,3.5-6.5,3.9-7.8c0,3.5-0.9,8.3-4.4,13.1c-3.5,5.2-9.1,10-18.7,14.4l0,0
	c-4.4,1.7-9.1,3-13.5,3.5c-6.1,0.9-12.6,0.9-18.3-0.4c-19.2-3.5-34.8-16.1-35.7-33.1c0-0.4,0-0.4,0-0.9v0.4c0,0,0,0,0,0.4l0,0
	c0,0.4,0,0.4,0,0.9v0.9c0,0,0,0,0,0.4s0,0.9,0,1.3s0,1.3,0,1.7v0.4c0,0.4,0,0.4,0,0.4l0,0v0.4v0.4l0,0c0,0.4,0,0.4,0,0.9
	c0,0.4,0,0.4,0,0.9l0,0v0.4v0.4v0.4v0.4l0,0c0,0.4,0,0.4,0,0.9v0.4l0,0l0,0v0.4l0,0l0,0v0.4l0,0l0,0c1.3,5.2,3,9.6,6.5,13.9
	C22.2,162.5,36.5,168.2,51.3,167.7z M152.8,0.1C152.8,0.1,153.3,0.1,152.8,0.1c3.9,0.4,7,1.7,10,3.9c2.6,1.7,5.2,4.4,7.4,7.4
	c0.4,0.4,0.4,0.9,0.9,1.3c1.3,2.2,2.6,4.4,3.9,7c3,6.5,4.8,14.4,5.2,22.2c0,3,0,6.1-0.4,9.6c-0.4,4.8-1.3,9.6-3,13.9
	c-1.3,3.9-3,7.4-4.8,10.5c-0.9,1.3-1.7,2.6-2.6,3.5c-1.3,1.7-2.6,3.5-4.4,4.8c-5.2,4.8-11.3,7.4-17,7l0,0c0,0,0,0-0.4,0h0.4h-0.4
	h0.4c7.4,1.3,15.2-0.9,22.2-6.1c1.7-1.3,3.5-3,5.2-4.8c0.9-1.3,2.2-2.2,3-3.5l0,0l0,0c2.6-3.5,4.8-7.4,6.5-11.3
	c2.2-5.2,3.5-10.9,4.4-16.5c1.3-10.5-0.4-21.3-4.8-30c-0.9-2.2-2.2-3.9-3.5-5.7c-1.7-2.2-3.9-4.4-5.7-6.1c-3.5-2.6-7-4.4-10.5-4.8
	l0,0h-1.3c-0.9,0-1.7-0.4-2.6-0.4c-0.4,0-0.9,0-1.3,0c0,0-0.4,0-0.9,0c-1.3,0-2.6-0.4-3.5-0.4H155c-0.4,0-0.9,0-0.9,0s0,0-0.4,0l0,0
	C153.3,0.1,152.8,0.1,152.8,0.1c-0.4,0-0.9,0-1.3,0s-0.9,0-1.3,0c0.4,0,0.9,0,1.3,0S152.4,0.1,152.8,0.1z"/>
</svg>
