<?xml version="1.0" encoding="utf-8"?>
<!-- Generator: Adobe Illustrator 27.0.1, SVG Export Plug-In . SVG Version: 6.00 Build 0)  -->
<svg version="1.1" id="Layer_1" xmlns="http://www.w3.org/2000/svg" xmlns:xlink="http://www.w3.org/1999/xlink" x="0px" y="0px"
	 width="260px" height="200px" viewBox="0 0 260 200" style="enable-background:new 0 0 260 200;" xml:space="preserve">
<style type="text/css">
	.st0{opacity:0.4;fill:#FFFFFF;}
</style>
<path class="st0" d="M79.1,199.5c17.8-32.5,97.2-41.2,178.3-19.5c-0.4,1.7-0.9,3.5-1.3,4.8C176.2,160.4,96.8,166.9,79.1,199.5z
	 M258.7,173c0.4-1.7,0.4-3.5,0.9-5.2c-82-14.8-162.7-0.9-180.5,31.7C96.8,166.9,177.1,155.2,258.7,173z M260,160.9
	c0-1.7,0-3.5,0-5.2c-82-8.2-163.1,11.3-180.9,43.8C96.8,166.9,177.5,149.6,260,160.9z M260,148.7c0-1.7,0-3.5-0.4-5.2
	c-82-1.7-162.7,23.4-180.5,56C96.8,166.9,178,144.4,260,148.7z M259.1,136.1c-0.4-1.7-0.4-3.5-0.9-5.2
	c-81.1,5.6-161.4,36-179.2,68.5C96.8,166.9,177.5,138.7,259.1,136.1z M256.9,124c-0.4-1.7-0.9-3.5-1.3-5.2
	c-79.8,12.1-158.8,48.2-176.6,80.7C96.8,166.9,176.2,133.1,256.9,124z M253.9,111.9c-0.4-1.7-1.3-3.5-1.7-5.2
	c-78.1,18.7-155.3,60.3-173.1,92.8C96.8,166.9,174.9,127.9,253.9,111.9z M249.1,99.7c-0.9-1.7-1.3-3.5-2.2-4.8
	c-75.1,25.2-150.1,72-167.9,104.6C96.8,166.9,172.8,122.3,249.1,99.7z M243.9,88c-0.9-1.7-1.7-3-2.6-4.8
	c-72,31.7-144.5,83.7-162.3,116.3C96.8,166.9,170.6,117.1,243.9,88z M237,76.3c-0.9-1.7-2.2-3-3-4.8
	c-68.1,38.2-137.1,95.4-154.9,128C96.8,166.9,167.6,111.9,237,76.3z M229.2,65.4c-1.3-1.3-2.2-3-3.5-4.3
	C162.4,104.9,96.8,166.9,79.1,199.5C96.8,166.9,164.1,107.1,229.2,65.4z M220.5,55c-1.3-1.3-2.6-3-3.9-4.3
	C158.4,100.1,96.8,166.9,79.1,199.5C96.8,166.9,160.2,102.3,220.5,55z M210.5,44.6c-0.4-0.4-0.4-0.4-0.9-0.9c-1.3-1.3-2.6-2.2-3.5-3
	C153.7,95.8,96.8,166.9,79.1,199.5C96.8,166.9,155.4,98,210.5,44.6z M194.9,32c-46.4,59.9-98,134.9-115.8,167.5
	c17.8-32.5,71.6-105.9,120.6-164C198.4,34.2,196.6,33.3,194.9,32z M183.2,24.2C143.3,88.4,96.4,166.9,79.1,199.5
	c17.8-32.5,66.4-109.8,108.9-172.2C186.6,26.4,184.9,25.1,183.2,24.2z M171.5,17.7c-33.4,68.1-74.6,149.7-92,182.2
	c17.8-32.5,61.2-112.8,97.2-179.2C174.9,19.4,173.2,18.6,171.5,17.7z M158.9,12.1c-26.5,71.1-62,154.9-79.8,187.4
	c17.8-32.5,55.5-115.4,85-185.2C162.4,13.4,160.6,12.9,158.9,12.1z M146.3,7.7c-19.5,73.8-49.5,159.7-66.8,192.2
	c17.4-33,49.9-118,72-190.5C149.8,8.6,148,8.2,146.3,7.7z M133.3,4.3c-12.1,75.5-36.4,162.7-54.2,195.2
	c17.8-32.5,44.3-119.3,59.4-193.9C136.8,5.1,135,4.3,133.3,4.3z M120.3,1.7c-5.2,76.8-23.4,165.3-40.8,197.8
	c17.8-32.5,38.2-120.6,46.4-197C123.7,2.1,122,2.1,120.3,1.7z M107.3,0.4c2.2,77.7-10.4,166.6-28.2,199.1
	C96.8,166.9,111.6,78,112.5,0.8C110.7,0.8,109,0.4,107.3,0.4z M99.4-0.1c-1.7,0-3.5,0-5.6,0c9.5,77.7,2.6,167-14.8,199.6
	C96.8,166.9,106,77.6,99.4-0.1z M86.4,0.4c-1.7,0-3.5,0.4-5.2,0.4C97.7,78,96.8,166.9,79.1,199.5C96.8,166.9,99.9,78,86.4,0.4z
	 M73.8,2.1c-1.7,0.4-3.5,0.4-5.2,0.9c23.4,75.9,28.6,164,10.8,197C96.8,166.9,94.2,78.4,73.8,2.1z M61.3,4.7
	c-1.7,0.4-3.5,0.9-5.2,1.3c30.4,74.6,40.8,161.4,23.4,193.9C96.8,166.9,88.6,79.7,61.3,4.7z M48.7,8.2c-1.7,0.4-3,1.3-4.8,1.7
	c36.9,72.5,52.9,157,35.1,189.6C96.8,166.9,83.4,81.5,48.7,8.2z M37,12.9c-1.7,0.9-3,1.3-4.8,2.2c43.4,69.4,64.6,151.8,47.3,184.4
	C96.8,166.9,77.8,83.7,37,12.9z M25.7,18.6c-1.7,0.9-3,1.7-4.8,3c49.9,65.5,75.9,145.3,58.1,177.9C96.8,166.9,73,86.3,25.7,18.6z
	 M14.8,25.5c-1.3,0.9-3,2.2-4.3,3c55.5,62,86.3,138.4,68.5,170.9C96.8,166.9,68.2,89.3,14.8,25.5z M4.9,33.8c-1.7,0.9-3,2.2-4.3,3.5
	c61.2,57.3,96.3,129.7,78.5,162.3C96.8,166.9,63.4,92.8,4.9,33.8z"/>
</svg>
