<?xml version="1.0" encoding="utf-8"?>
<!-- Generator: Adobe Illustrator 27.0.1, SVG Export Plug-In . SVG Version: 6.00 Build 0)  -->
<svg version="1.1" id="Layer_1" xmlns="http://www.w3.org/2000/svg" xmlns:xlink="http://www.w3.org/1999/xlink" x="0px" y="0px"
	 width="202px" height="200px" viewBox="0 0 202 200" style="enable-background:new 0 0 202 200;" xml:space="preserve">
<style type="text/css">
	.st0{opacity:0.1;fill:#08163A;enable-background:new    ;}
</style>
<path class="st0" d="M160.4,157.4L160.4,157.4H160c-0.4,0-0.4,0-0.9,0l0,0C159.5,157,160,157,160.4,157.4z M173.9,156.1
	c0.9,0,1.3-0.4,1.7-0.4C175.2,156.1,174.3,156.1,173.9,156.1z M160.4,156.1c-0.4,0-1.3-0.4-1.7-0.4c0,0.4,0,0.9,0,0.9
	c1.3,0.4,2.6,0.4,3.5,0.9c2.2,0.4,4.4,0.4,6.5,0h0.9c1.3,0,2.2-0.4,3-0.4c0.4,0,0.9,0,1.3-0.4c-1.7,0.4-3.5,0.4-5.7,0.4
	C165.6,157,163,156.6,160.4,156.1z M175.7,155.7L175.7,155.7L175.7,155.7C176.1,155.7,176.1,155.7,175.7,155.7
	C176.1,155.7,176.1,155.7,175.7,155.7z M158.2,151.3c0,0.4,0.4,1.3,0.4,1.7c7.4,3.5,17.9,4.4,28.3-2.6l0,0l0,0l0,0
	c0.9-0.4,1.3-0.9,1.7-1.3c0.4-0.4,1.3-1.3,2.6-2.6c0.4-0.4,0.9-0.9,1.3-1.3l0,0C184.4,153.9,170.9,157.4,158.2,151.3z M192.6,145.2
	c0.4-0.4,0.9-0.9,1.3-1.3C193.1,144.4,192.6,144.8,192.6,145.2z M198.7,133.9c-0.4,1.3-1.3,2.6-2.2,3.9s-1.7,2.2-3,3.5
	c-3,3-6.1,5.2-10,6.5c-3.5,1.3-7.4,2.2-11.3,2.2c-3.9,0-7.8-0.4-11.8-1.7c-1.3-0.4-2.6-1.3-4.4-1.7l0,0v0.4c0,0.4,0.4,1.3,0.4,1.7
	c0.9,0.4,2.2,0.9,3,1.3c3.9,1.3,7.4,2.2,11.3,2.2c3.9,0,7.8-0.9,11.3-2.2s7-3.5,9.6-6.5c0.9-0.9,1.3-1.7,2.2-2.2
	c0.4-0.9,1.3-1.7,1.7-2.6c0.4-0.9,0.9-1.7,1.3-2.6C198.7,135.6,199.2,134.8,198.7,133.9c0.4,0,0.4-0.4,0.9-0.9v-0.4
	c0.4-0.9,0.4-2.2,0.9-3l0,0l0,0c0-0.4,0.4-1.3,0.4-1.7c0,0.9-0.4,1.3-0.4,2.2C200,131.3,199.6,132.6,198.7,133.9z M200.9,127.8
	c0-0.4,0.4-1.3,0.4-1.7c0,0,0,0,0-0.4l0,0C201.4,126.5,201.4,127.4,200.9,127.8z M154.3,140c0.4,0.9,0.9,1.7,1.3,2.6
	c19.2,10,47-1.3,46.2-26.1V116c0-1.3-0.4-2.6-0.4-3.9c0-0.4,0-0.9,0-1.3c0,0.4,0,0.4,0,0.9C204,136.1,176.1,151.8,154.3,140z
	 M198.3,112.6c-0.4,2.2-1.3,4.4-2.6,6.5s-3,4.4-4.8,6.1c-3,3-6.1,5.2-9.6,7c-3.5,1.7-7.4,3-11.3,3.5c-3.9,0.4-7.8,0.4-11.3-0.4
	c-2.6-0.4-5.2-1.3-7.4-2.6c0.4,0.9,0.9,2.2,1.3,3c0,0,0,0,0,0.4c2.2,1.3,4.4,2.2,7,2.6c3.5,0.9,7.4,0.9,11.3,0.9
	c3.9-0.4,7.8-1.3,11.3-3s7-3.9,9.6-7c1.7-1.7,3.5-3.9,4.8-6.1s2.2-4.4,2.6-6.5s0.9-4.4,0.9-6.5c0-2.2-0.4-3.9-0.9-6.1V104
	c0-0.4-0.4-0.9-0.4-0.9c-0.4-0.9-0.9-1.7-0.9-3c0.4,1.7,0.9,3.5,0.9,5.7C199.2,108.2,198.7,110.4,198.3,112.6z M194.4,95.1
	c0,2.2,0,4.4-0.4,6.5c-0.4,2.2-1.7,4.8-3,7s-3,4.4-5.2,6.5c-3,3-6.1,5.2-9.6,7.4c-3.5,1.7-7.4,3.5-10.9,3.9
	c-3.5,0.9-7.4,1.3-10.9,0.9c-2.6-0.4-5.2-0.9-7.8-2.2c0.4,0.4,0.4,0.9,0.9,1.3c0.4,0.9,0.9,1.3,1.3,2.2c2.2,1.3,4.8,1.7,7.8,2.2
	c3.5,0.4,7.4,0.4,10.9-0.4c3.9-0.9,7.4-2.2,10.9-3.9s7-4.4,9.6-7c2.2-2.2,3.9-4.4,5.2-6.5c1.3-2.2,2.2-4.4,3-7
	c0.4-2.2,0.9-4.4,0.4-6.5c0-1.7-0.4-3.5-1.3-5.2c0-0.4-0.4-0.4-0.4-0.9c-0.4-1.3-1.3-2.6-2.2-3.9v0.4
	C193.9,91.2,194.4,93,194.4,95.1z M184.4,96.9c-1.3,2.2-3.5,4.8-5.7,7c-3,3-6.1,5.2-9.6,7.4c-3.5,2.2-7,3.9-10.5,4.8
	c-3.5,1.3-7,1.7-10,1.7c-2.6,0-5.7-0.4-7.8-1.3c0.9,1.3,1.7,2.2,2.2,3.5c2.2,0.9,4.8,1.3,7.8,1.7c3.5,0,7-0.4,10.5-1.3
	s7.4-2.6,10.5-4.8c3.5-2.2,6.5-4.4,9.6-7.4c2.2-2.2,3.9-4.4,5.2-7c1.3-2.2,2.6-4.8,3-7s0.9-4.4,0.9-6.5c0-2.2-0.9-3.9-1.7-5.7
	l-2.2-3.5l0,0l-0.4-0.4l0,0c0.9,1.3,1.3,3,1.7,4.8c0,1.7,0,3.9-0.9,6.1C187,92.5,185.7,94.7,184.4,96.9z M176.1,85.1
	c-1.7,2.2-3.5,4.4-5.7,7c-3,3-6.1,5.7-9.1,7.8c-3,2.2-6.5,4.4-10,5.7c-3,1.3-6.5,2.6-9.1,3s-5.2,0.4-7,0l0.4,0.4
	c0.9,0.9,1.7,2.2,2.6,3c2.2,0.4,4.8,0.9,7.4,0.4c3-0.4,6.1-1.3,9.6-2.6c3.5-1.3,7-3,10-5.2c3.5-2.2,6.5-4.8,9.6-7.8
	c2.2-2.2,4.4-4.8,5.7-7s2.6-4.4,3.5-6.5s0.9-3.9,0.9-5.7c0-1.7-0.4-3-1.3-3.9c0,0,0-0.4-0.4-0.4l-0.9-1.3l-0.9-1.3l-1.7-1.7
	c0.9,1.3,1.3,2.6,1.3,3.9c0,1.7-0.4,3.5-1.3,5.2C178.7,80.8,177.8,82.9,176.1,85.1z M170.4,66.8c-0.9,1.7-2.2,3.9-3.9,5.7
	c-1.7,2.2-3.9,4.4-6.1,6.5c-3,3-6.1,5.7-9.1,8.3c-3,2.6-6.1,4.8-9.1,6.5s-5.7,3.5-8.3,4.4s-4.4,1.3-6.1,1.3c0,0,0,0.4,0.4,0.4
	c0.9,0.9,1.7,2.2,2.6,3c1.7,0.4,3.9,0,6.5-0.9s5.7-2.2,8.7-3.9s6.5-3.9,9.6-6.1c3-2.6,6.1-5.2,9.1-7.8c2.2-2.2,4.4-4.8,6.1-7
	c1.7-2.2,3-4.4,3.9-6.1s1.3-3.5,1.7-4.8c0-1.3,0-2.6-0.9-3.5l0,0l-0.4-0.9l-0.4-0.4l-2.2-2.6c0.4,0.9,0.9,1.7,0.4,3
	C172.2,63.8,171.3,65.1,170.4,66.8z M121.6,93.4c0.4,0.4,1.3,1.3,1.7,1.7c1.3-0.4,3-1.3,5.2-2.2c2.2-1.3,4.8-3,7.8-5.2
	c2.6-2.2,5.7-4.4,8.7-7s6.1-5.2,8.7-8.3c2.2-2.2,4.4-4.8,6.1-6.5c1.7-2.2,3-3.9,4.4-5.7c1.3-1.7,1.7-3,2.2-3.9s0.4-1.7,0-2.2l0,0
	l0,0l-2.6-3l-0.9-0.9l0,0c0,0.4,0,0.9-0.4,1.7c-0.4,0.9-1.3,2.2-2.6,3.5s-2.6,3.5-4.4,5.2c-1.7,2.2-3.9,4.4-6.1,6.5
	c-3,3-5.7,5.7-8.7,8.3c-3,2.6-5.7,5.2-8.3,7.4c-2.6,2.2-5.2,3.9-7,5.7c-2.2,1.3-3.5,2.6-4.8,3c0,0,0,0,0.4,0.4l0.4,0.4l0,0
	L121.6,93.4z M115.5,86.4L115.5,86.4c7-6.5,40.5-40.1,42.7-42.3l0,0l0,0c-0.9-0.9-2.2-2.2-3-3l-0.4-0.4l0,0l0,0c0,0-0.9,0-1.3,0.9
	c-0.9,0.4-2.2,1.7-3.5,2.6c-1.3,1.3-3,3-5.2,4.8c-1.7,1.7-4.4,3.9-6.5,6.5c-3,3-5.7,5.7-8.7,8.7c-2.6,3-5.2,5.7-7.8,8.3
	c-2.2,2.6-4.4,4.8-6.1,7c-1.7,1.7-2.6,3.5-3.5,4.4c0,0,0,0,0.4,0.4C112.9,84.2,114.2,85.6,115.5,86.4z M131.2,37.2
	c-2.2,1.7-4.4,3.9-6.5,6.1c-3,3-5.7,6.1-8.3,9.1c-2.6,3-4.8,6.1-7,9.1c-1.7,3-3.5,5.7-4.8,7.8c-1.3,2.2-1.7,4.4-1.7,5.7
	c0,0,0.4,0,0.4,0.4c0.9,0.9,2.2,2.2,3.5,3c0.4-1.3,1.3-3,2.6-5.2c1.3-2.2,3-4.8,5.2-7.4s4.4-5.7,7-8.7s5.2-6.1,8.3-8.7
	c2.2-2.2,4.8-4.4,6.5-6.1c2.2-1.7,3.9-3,5.7-4.4c1.7-1.3,3-1.7,3.9-2.2s1.7-0.4,2.2,0l-3-3.9l-0.9-0.9l0,0c-0.4-0.4-1.3-0.4-2.6,0
	s-2.6,0.9-4.4,2.2C135.6,34.2,133.4,35.5,131.2,37.2z M106,77.7L106,77.7l-2.6-2.2l0,0L106,77.7L106,77.7z M95.5,68.6
	c0.9,0.4,1.7,1.3,2.2,1.7c0-1.7,0-3.9,0.9-6.5s2.2-5.7,3.9-8.7c1.7-3,3.9-6.1,6.1-9.6c2.6-3,5.2-6.1,7.8-9.1c2.2-2.2,4.8-4.4,7-6.1
	s4.4-3,6.1-3.9s3.5-1.3,4.8-1.7c1.3,0,2.6,0,3.5,0.9l0,0l-0.4-0.4l-3.9-3l-0.4-0.4l0,0c-0.9-0.9-2.2-0.9-3.5-0.9
	c-1.7,0-3.5,0.4-5.2,1.3s-3.9,2.2-6.1,3.5c-2.2,1.7-4.4,3.5-7,5.7c-2.2,4.4-5.2,7.4-7.4,10.9c-2.2,3-4.4,6.5-6.1,9.6
	c-1.7,3-2.6,6.1-3.5,9.1c-0.4,2.6-0.9,4.8-0.4,7c0,0,0,0,0.4,0.4C94.6,68.1,95.1,68.6,95.5,68.6L95.5,68.6
	C95.9,69,95.5,69,95.5,68.6z M112.1,14.6c-2.2,0.9-4.4,1.7-6.5,3c-2.2,1.3-4.4,3.5-6.5,5.7c-3,3-5.2,6.1-7.4,9.6
	c-2.2,3.5-3.9,7-5.2,10.5c-1.3,3.5-1.7,7-2.2,10c0,2.6,0,5.2,0.9,7.8c0.9,0.4,1.3,0.9,1.7,1.3c0.4,0.4,1.3,0.9,1.7,1.3
	c0-2.2-0.4-4.8,0-7.8s1.3-6.1,2.6-9.6c1.3-3.5,3-7,5.2-10c2.2-3.5,4.8-6.5,7.8-9.6c2.2-2.2,4.4-4.4,7-5.7c2.2-1.3,4.4-2.6,6.5-3.5
	c1.7-0.4,3.5-0.9,5.2-0.9s3.5,0.4,4.4,1.3l-3.5-2.2l-0.4-0.4c0,0-0.4,0-0.4-0.4c-1.3-0.9-3-1.3-4.8-1.3
	C116.4,13.7,114.2,14.1,112.1,14.6z M79,49.8c0-3.5,0.4-7,1.3-10.5s2.6-7.4,4.4-10.5c2.2-3.5,4.4-6.5,7.4-9.6
	c2.2-2.2,4.4-3.9,6.5-5.2c2.2-1.3,4.4-2.6,6.5-3s4.4-0.9,6.1-0.9c2.2,0,3.9,0.9,5.7,1.7l0,0l0,0L113,9.6h-0.4l0,0
	c-1.7-0.9-3.5-1.3-5.7-1.7c-2.2,0-4.4,0-6.5,0.9c-2.2,0.4-4.4,1.7-6.5,3s-4.4,3-6.5,5.2c-3,3-5.2,6.1-7.4,9.6
	c-1.7,3.5-3.5,7-4.4,10.9c-0.9,3.5-1.3,7.4-0.9,10.9c0.4,3,0.9,5.7,2.2,7.8c1.3,0.9,2.2,1.3,3.5,2.2l0,0C79.4,55.1,79,52.4,79,49.8z
	 M70.7,51.6c0.4,0.4,1.3,0.4,1.7,0.9c-1.3-2.2-2.2-4.8-2.2-7.8c-0.4-3.5-0.4-7.4,0.4-10.9c0.4-3.9,1.7-7.4,3.5-10.9
	c1.7-3.5,4.4-7,7-9.6c2.2-2.2,4.4-3.9,6.5-5.2c2.2-1.3,4.4-2.2,7-3c2.2-0.4,4.4-0.9,6.5-0.4c2.2,0,4.4,0.9,6.1,1.3l0,0l0,0l-3-1.3
	l-0.9-0.4c-0.4,0-0.4,0-0.9-0.4C100.7,3,98.5,3,96.7,2.6c-2.2,0-4.4,0-6.5,0.9c-2.2,0.4-4.4,1.3-6.5,2.6s-4.4,3-6.5,4.8
	c-3,3-5.2,6.1-7,9.6s-3,7.4-3.5,11.3c-0.4,3.9-0.4,7.8,0,11.3c0.4,2.6,1.3,5.2,2.6,7.4C69.8,51.1,70.2,51.1,70.7,51.6
	C70.2,51.6,70.7,51.6,70.7,51.6L70.7,51.6z M62.4,47.7c0.9,0.4,1.3,0.9,2.2,0.9l0,0l0,0H65c-11.3-21,6.1-53.2,31.8-46.7
	c-1.3-0.4-2.6-0.9-3.9-1.3h-0.4H92c-0.4,0-1.3-0.4-1.7-0.4C68.5-2.4,50.2,24.6,62.4,47.7z M61.5,7.6c-3,3-5.2,6.1-6.5,10
	c-1.3,3.5-2.2,7.4-2.6,11.3c0,3.9,0.4,7.8,1.7,11.8c0.4,1.7,1.3,3,2.2,4.8c0.4,0,0.4,0,0.9,0.4c0.4,0,1.3,0.4,1.7,0.9
	C48.9,27.6,60.2-0.7,85,0.2l0,0l0,0h-1.3l0,0l0,0c-1.3,0-3,0-4.4,0c-1.7,0-3,0.4-4.8,0.9s-3,0.9-4.8,1.7c-1.3,0.9-3,1.3-4.4,2.6
	C64.1,5,62.8,6.3,61.5,7.6z M47.6,29.8c0,3.9,0.9,7.8,2.2,11.3c0.4,0.9,0.4,1.3,0.9,2.2c0.9,0,1.3,0.4,2.2,0.4
	C44.1,27.2,51.1,7.1,69.4,1l0,0l0,0c-1.3,0.4-3.5,1.3-4.8,1.7C63.7,3.1,62.9,3.6,62,4l0,0l0,0c-0.4,0.4-0.9,0.4-1.3,0.9
	c-0.4,0.4-0.9,0.9-1.3,0.9c-0.4,0.4-0.9,0.9-1.3,1.3c-0.4,0.4-0.9,0.9-1.3,1.3c-3,3-5.2,6.1-6.5,9.6C48.5,22,47.6,25.9,47.6,29.8z
	 M46.7,42.4c0.4,0,1.3,0,1.7,0.4c-4.4-10-3-20.9,3.9-30.1L51,14.4c0,0,0,0,0,0.4c-0.9,0.9-1.3,1.3-1.7,1.7s-0.9,1.3-1.7,3l0,0l0,0
	l-0.4,0.4c-1.3,2.6-2.2,5.7-2.2,8.7c-0.4,3,0,6.1,0.4,8.7C45.9,39.4,46.3,41.1,46.7,42.4z M44.5,42.4L44.5,42.4c0.4,0,0.4,0,0.9,0
	c-0.4-1.7-0.9-3-0.9-4.8c0-2.2,0-3.9,0-6.1v-0.4v0.4c0,0.9,0,1.7-0.4,2.2c0,0.4,0,1.3,0,3c0,0.4,0,0.4,0,0.9c0,0.9,0,1.3,0,2.2
	C44.1,40.7,44.1,41.6,44.5,42.4z M12.7,107.8L12.7,107.8c0-0.4,0-0.4,0-0.4l0,0l0,0V107l0,0l0,0v-0.4l0,0l0,0V106
	c-1.7-1.3-2.6-2.2-3.5-3.5c-0.9-0.9-1.7-1.7-2.6-3c-0.9-0.9-1.3-2.2-1.7-3c-0.4-0.9-0.9-1.7-1.3-3C4,94.7,4.5,96,4.9,97.3
	c0,0.4,0,0.4,0.4,0.9C7.5,103.4,10.6,106,12.7,107.8z M15.8,114.7L15.8,114.7c0-0.4-0.4-0.4-0.4-0.9l0,0l0,0c0,0,0-0.4-0.4-0.4l0,0
	l0,0c0,0,0-0.4-0.4-0.4l0,0l0,0c0,0,0-0.4-0.4-0.4l0,0c-4.4-3-5.7-5.2-7-7.8l0,0c0.4,1.3,1.3,3,2.2,4.4c0.4-0.9,0.9-0.4,0.9,0
	s0.4,0.4,0.4,0.9c0.4,0.4,0.9,1.3,1.3,1.7c0.4,0.4,1.3,1.3,1.7,1.7C14.5,113.9,15.4,114.3,15.8,114.7z M20.2,121.7L20.2,121.7
	c-0.4,0-0.4-0.4-0.4-0.4l-0.4-0.4l0,0l0,0l0,0l-0.4-0.4l0,0l0,0c0-0.4-0.4-0.4-0.4-0.9l0,0c-0.4-0.4-1.3-0.9-1.7-0.9
	c-0.4-0.4-0.9-0.9-1.3-1.3c-0.4-0.4-0.9-0.9-1.3-1.3c-0.4-0.4-0.4-0.9-0.9-0.9l2.2,3.5v0.4l0,0c0.4,0.4,0.4,0.9,0.9,1.3
	c0.4,0.4,0.9,0.9,1.3,1.3c0.4-0.9,0.9-0.9,1.3-0.4S19.7,122.1,20.2,121.7C20.2,122.1,20.2,122.1,20.2,121.7z M25.4,129.5
	C24.9,129.5,24.9,129.5,25.4,129.5c-0.4-0.4-0.4-0.4-0.9-0.9l0,0c0,0,0,0,0-0.4l-0.4-0.4c0,0,0,0,0-0.4c0,0,0,0,0-0.4c0,0,0,0,0-0.4
	c-0.4,0-0.9-0.4-1.3-0.4c-0.4-0.4-0.9-0.4-1.3-0.9c-0.4-0.4-0.9-0.4-0.9-0.9c-0.4-0.4-0.4-0.4-0.9-0.9l0,0l0,0l2.6,3.9
	c0,0.4,0.4,0.4,0.9,0.9c0.4,0.4,0.4,0.4,0.9,0.9c0.4,0.4,0.9,0.4,0.9,0.4c0,0.4,0.4,0.4,0.9,0.4C25.4,130,25.4,130,25.4,129.5
	L25.4,129.5z M31.5,137.4L31.5,137.4c-0.4-0.4-0.4-0.4-0.4-0.9c0,0,0,0,0-0.4c0,0,0,0-0.4-0.4c0,0,0,0-0.4-0.4l-0.4-0.4
	c0,0,0,0,0-0.4l0,0c-0.4,0-0.9,0-0.9-0.4c-0.9,0.9-0.9,0.4-1.3,0.4s-0.4-0.4-0.9-0.4c0,0,0,0-0.4-0.4c0,0,0,0-0.4-0.4l1.7,1.7
	l2.2,2.6l0,0l0,0c0.9,0.9,1.7,0.9,2.6,1.3C31.9,138.3,31.9,137.8,31.5,137.4L31.5,137.4z M39.3,146.5l-0.4-0.4c0,0,0,0-0.4-0.4
	c0,0,0,0-0.4-0.4c0,0,0,0-0.4-0.4l-0.4-0.4c0,0,0,0-0.4-0.4l0,0c-0.4-0.4-0.4-0.4-0.9-0.9c-0.4,0-0.4,0-0.9,0c-0.4,0-0.4,0-0.4,0
	h-0.4c0,0,0,0-0.4-0.4l0,0l2.6,3l0.9,0.9c0,0,0,0,0.4,0H38C38,146.5,38.9,147,39.3,146.5C38.9,147,39.3,147,39.3,146.5
	C39.3,147,39.3,147,39.3,146.5L39.3,146.5z M46.7,154.4L46.7,154.4c-0.4-0.4-0.4-0.4-0.9-0.9c0,0,0,0-0.4-0.4l0,0
	c-0.4-0.4-0.4-0.4-0.9-0.9l0,0l0,0l-0.4-0.4c0,0-0.4,0-0.4,0.4h-0.4c0,0,0,0-0.4,0l0,0l0,0l1.7,1.7l1.7,2.2l0,0l0,0c0,0,0,0,0.4-0.4
	c0,0,0-0.4,0.4-0.4C47.2,154.8,47.2,154.8,46.7,154.4C47.2,154.8,46.7,154.8,46.7,154.4z M55.9,164.8
	C55.9,164.4,55.9,164.4,55.9,164.8c0-0.4,0-0.9,0-0.9v-0.4l-0.4-0.4c0,0,0,0-0.4-0.4l0,0c-0.4-0.4-0.4-0.4-0.9-0.9l0,0l0,0
	c-0.4,0-0.4-0.4-0.9-0.4c0,0,0,0-0.4,0c0,0-0.4,0-0.4-0.4c0,0-0.4,0-0.4-0.4v0.4v0.4v0.4l0,0l0,0l0.4,0.4l0.4,0.4l0,0l0,0l2.2,1.7
	L55.9,164.8L55.9,164.8L55.9,164.8z M65.5,172.7c0,0-0.4-0.4-0.4-0.9c0-0.4-0.4-0.4-0.4-0.9c0-0.4,0-0.4-0.4-0.9
	c-0.4-0.4-0.4-0.4-0.9-0.9l0,0l0,0c-0.4,0-0.4-0.4-0.9-0.4c0,0,0,0-0.4,0c0,0-0.4,0-0.4-0.4c0,0-0.4,0-0.4-0.4l-0.4-0.4
	c0,0,0,0-0.4-0.4l0,0c0,0.4,0,0.4,0,0.9c0,0.4,0,0.4,0,0.9c0,0,0,0.4,0.4,0.4l0.4,0.4l0,0l0.4,0.4l0.9,0.9l3,2.2
	C65.9,173.5,65.9,173.1,65.5,172.7C65.5,173.1,65.5,173.1,65.5,172.7z M75.9,180.9C76.3,181.4,76.3,181.4,75.9,180.9
	C76.3,181.4,76.3,181.4,75.9,180.9L75.9,180.9L75.9,180.9z M74.6,179.6c-0.4-0.4-0.4-0.9-0.9-1.3s-0.4-0.9-0.4-1.3c0,0,0,0-0.4,0
	l-0.4-0.4l0,0c0,0,0,0-0.4,0l-0.4-0.4l0,0l0,0l-0.4-0.4c0,0,0,0-0.4,0l0,0l-0.4-0.4c0,0,0,0-0.4,0c0,0.4,0.4,0.9,0.4,1.3
	s0.4,0.9,0.4,0.9c0,0.4,0.4,0.4,0.9,0.9c0.4,0.4,0.4,0.4,0.9,0.9l3.9,3l-0.4-0.4C75,180.1,75,180.1,74.6,179.6z M85.1,187
	c-0.4-0.4-0.9-0.9-1.3-1.3c-0.4-0.4-0.9-0.9-1.3-1.3c-0.4-0.4-0.9-1.3-1.3-1.7c0,0,0,0-0.4,0c0,0-0.4,0-0.4-0.4l0,0c0,0,0,0-0.4,0
	c0,0-0.4,0-0.4-0.4l0,0l0,0c0,0-0.4,0-0.4-0.4l0,0l0,0c0,0-0.4,0-0.4-0.4l0,0c0.4,0.4,0.4,1.3,0.9,1.7c0.4,0.4,0.9,0.9,0.9,1.3
	c0.4,0.4,0.9,0.9,1.3,1.3c0,0,0,0,0.4,0.4s0.9,0.4,0.9,0.9L85.1,187C85.5,187.5,85.5,187.5,85.1,187C85.5,187,85.1,187,85.1,187z
	 M92,190.5c-0.9-0.4-1.3-1.3-1.7-1.7c-0.4-0.9-1.3-1.3-1.7-2.2c0,0,0,0-0.4,0h-0.4l0,0c0,0,0,0-0.4,0H87l0,0l0,0h-0.4l0,0l0,0h-0.4
	l0,0c0.4,0.9,0.9,1.3,1.3,2.2c0.4,0.4,0.9,1.3,1.7,1.7c0.4,0.4,1.3,0.9,1.7,1.3c0.4,0,0.4,0.4,0.9,0.4c0.4,0.4,0.9,0.4,1.3,0.4h0.4
	l2.2,1.3c-0.4,0-0.4-0.4-0.9-0.4C93.3,191.8,92.9,191,92,190.5z M95.5,193.1c0.4,0,0.4,0.4,0.9,0.4l0,0l-1.3-0.9
	C95.1,192.7,95.5,192.7,95.5,193.1z M106.4,197.5c-0.4,0-0.9-0.4-1.3-0.4C105.5,197.1,106,197.1,106.4,197.5z M100.3,194.4
	c-0.9-0.9-1.7-1.3-2.6-2.2s-1.7-1.7-2.6-3l0,0h-0.4l0,0l0,0h-0.4l0,0l0,0h-0.4l0,0l0,0h-0.4l0,0c0.4,0.9,1.3,1.7,2.2,2.6
	c0.9,0.9,1.3,1.3,2.2,2.2c0.9,0.4,1.7,1.3,2.6,1.7s1.3,0.9,2.2,1.3h0.4c0.4,0,0.9,0.4,1.3,0.4s1.3,0.4,1.7,0.4
	c-0.4-0.4-1.3-0.4-1.7-0.9C102,195.3,101.2,194.9,100.3,194.4z M108.6,197.1c-1.7-0.9-3-1.7-4.4-3s-2.6-2.6-3.9-3.9l0,0
	c0,0,0,0-0.4,0l0,0l0,0c0,0,0,0-0.4,0l0,0l0,0c0,0,0,0-0.4,0l0,0l0,0c0,0,0,0-0.4,0l0,0c0.9,1.3,2.2,2.2,3,3.5
	c1.3,0.9,2.2,1.7,3.5,2.6c1.3,0.9,2.6,1.3,3.9,1.7s2.6,0.9,3.9,1.3c0.9,0,2.2,0.4,3,0.4c-0.9,0-1.7-0.4-2.6-0.4
	C111.6,198.4,109.9,197.5,108.6,197.1z M116,199.2c0.4,0,0.9,0,1.3,0s0.4,0,0.9,0l0,0C117.3,199.7,116.4,199.7,116,199.2z
	 M131.2,198.8c0.9,0,1.3-0.4,1.7-0.4C132.5,198.4,132.1,198.8,131.2,198.8z M118.2,198.4c-2.6-0.9-5.2-1.7-7.4-3
	c-2.2-1.3-4.4-3-6.5-5.2l0,0l0,0l0,0l0,0l0,0l0,0l0,0l0,0l0,0l0,0l0,0l0,0c1.7,1.7,3.5,3.5,5.2,4.8s3.9,2.2,6.1,3s4.4,1.3,6.5,1.7
	c2.2,0.4,4.4,0.4,6.5,0h0.9c1.3,0,2.2-0.4,3-0.4c0.4,0,0.9,0,1.3-0.4c-1.7,0.4-3.5,0.4-5.7,0.4C123.4,199.2,120.8,199.2,118.2,198.4
	z M133.4,198.4L133.4,198.4L133.4,198.4L133.4,198.4L133.4,198.4z M106.8,187.9L106.8,187.9C106.8,188.3,106.8,188.3,106.8,187.9
	C106.8,188.3,106.4,188.3,106.8,187.9C106.4,188.3,106.4,188.3,106.8,187.9C106.4,188.3,106.4,188.3,106.8,187.9
	c-0.4,0.4-0.4,0.4-0.4,0.4l0,0l0,0l0,0l0,0l0,0l0,0l0,0l0,0c6.5,6.5,21.8,14.8,38.3,3.9l0,0l0,0l0,0c0.9-0.4,1.3-0.9,1.7-1.3
	c0.4-0.4,1.3-1.3,2.6-2.6c0.4-0.4,0.9-0.9,1.3-1.3l0,0C139.9,198.4,121.6,201.4,106.8,187.9z M150,187.9c0.4-0.4,0.9-0.9,1.3-1.3
	C150.8,187,150.4,187.5,150,187.9z M156.5,176.6c-0.4,1.3-1.3,2.6-2.2,3.9c-0.9,1.3-1.7,2.2-3,3.5c-3,3-6.1,5.2-10,6.5
	c-3.5,1.3-7.4,2.2-11.3,2.2c-3.9,0-7.8-0.4-11.8-1.7c-3.9-1.3-7.4-3.5-10.5-6.1l0,0v0.4l0,0l0,0v0.4l0,0l0,0c0,0,0,0,0,0.4l0,0l0,0
	c0,0,0,0,0,0.4l0,0c3,3,6.5,4.8,10.5,6.5c3.9,1.3,7.4,2.2,11.3,2.2c3.9,0,7.8-0.9,11.3-2.2s7-3.5,9.6-6.5c0.9-0.9,1.3-1.7,2.2-2.2
	c0.4-0.9,1.3-1.7,1.7-2.6c0.4-0.9,0.9-1.7,1.3-2.6C156.1,177.9,156.5,177.5,156.5,176.6c0.4,0,0.4-0.4,0.9-0.9v-0.4
	c0.4-0.9,0.4-2.2,0.9-3l0,0l0,0c0-0.4,0.4-1.3,0.4-1.7c0,0.9-0.4,1.3-0.4,2.2C157.4,174,156.9,175.3,156.5,176.6z M158.7,170.5
	c0-0.4,0.4-1.3,0.4-1.7c0,0,0,0,0-0.4l0,0C158.7,169.2,158.7,169.6,158.7,170.5z M158.7,154.8c0-0.4,0-0.9,0-1.3
	C158.7,153.9,158.7,154.4,158.7,154.8c3,25.3-28.7,41.4-51,25.3l0,0v0.4l0,0l0,0v0.4l0,0l0,0v0.4l0,0l0,0v0.4l0,0
	c18.7,15.2,51.8,4.4,51-23.1v-0.4C159.1,157.9,158.7,156.1,158.7,154.8z M156.5,146.5c0-0.4,0-0.4-0.4-0.9c-0.4-0.9-0.9-1.7-0.9-3
	c0.4,1.7,0.9,3.5,0.9,5.7s0,4.4-0.9,6.5c-0.4,2.2-1.3,4.4-2.6,6.5s-3,4.4-4.8,6.1c-3,3-6.1,5.2-9.6,7c-3.5,1.7-7.4,3-11.3,3.5
	c-3.9,0.4-7.8,0.4-11.3-0.4c-3.5-0.9-7-2.2-10-4.4l0,0c0,0,0,0.4,0.4,0.4l0,0l0,0v0.4l0,0l0,0v0.4l0,0l0,0v0.4l0,0
	c3,2.2,6.5,3.9,10,4.8c3.5,0.9,7.4,0.9,11.3,0.9c3.9-0.4,7.8-1.3,11.3-3s7-3.9,9.6-7c1.7-1.7,3.5-3.9,4.8-6.1s2.2-4.4,2.6-6.5
	c0.4-2.2,0.9-4.4,0.9-6.5s-0.4-3.9-0.9-6.1C156.9,147,156.9,147,156.5,146.5C156.9,146.5,156.5,146.5,156.5,146.5z M150.8,133
	c0-0.4-0.4-0.9-0.4-0.9v0.4c0.9,1.7,1.3,3.5,1.3,5.2c0,2.2,0,4.4-0.4,6.5s-1.7,4.8-3,7s-3,4.4-5.2,6.5c-3,3-6.1,5.2-9.6,7.4
	c-3.5,1.7-7.4,3.5-10.9,3.9c-3.5,0.9-7.4,1.3-10.9,0.9c-3.5-0.4-6.5-1.3-9.6-3l0,0c0,0,0,0.4,0.4,0.4l0,0l0,0c0,0.4,0.4,0.4,0.4,0.9
	l0,0l0,0c0,0,0,0.4,0.4,0.4l0,0l0,0c0,0.4,0.4,0.4,0.4,0.9l0,0c3,1.7,6.1,3,9.6,3.5c3.5,0.4,7.4,0.4,10.9-0.4
	c3.9-0.9,7.4-2.2,10.9-3.9s7-4.4,9.6-7c2.2-2.2,3.9-4.4,5.2-6.5s2.2-4.4,3-7c0.4-2.2,0.9-4.4,0.4-6.5c0-1.7-0.4-3.5-1.3-5.2
	c0,0,0-0.4-0.4-0.4c0,0,0,0,0-0.4C152.1,134.8,151.3,133.9,150.8,133z M98.1,160L98.1,160c0.4,0.4,0.4,0.9,0.4,0.9l0,0l0,0l0.4,0.4
	l0,0c0,0,0,0,0,0.4c0,0,0,0,0,0.4c2.6,1.3,5.7,2.2,8.7,2.2c3.5,0,7-0.4,10.5-1.3s7.4-2.6,10.5-4.8c3.5-2.2,6.5-4.4,9.6-7.4
	c2.2-2.2,3.9-4.4,5.2-7c1.3-2.2,2.6-4.8,3-7s0.9-4.4,0.9-6.5s-0.9-3.9-1.7-5.7l-2.2-3.5l0,0l-0.4-0.4l0,0c0.9,1.3,1.3,3,1.7,4.8
	c0,1.7,0,3.9-0.9,6.1s-1.7,4.4-3,6.5s-3.5,4.8-5.7,7c-3,3-6.1,5.2-9.6,7.4c-3.5,2.2-7,3.9-10.5,4.8c-3.5,1.3-7,1.7-10,1.7
	s-6.1-0.4-8.7-1.3C97.7,159.2,98.1,159.6,98.1,160C98.1,159.6,98.1,159.6,98.1,160z M92.5,151.8C92.5,151.8,92.9,151.8,92.5,151.8
	c0.4,0.4,0.4,0.4,0.4,0.9l0,0c0,0,0,0,0.4,0.4c0,0,0,0,0.4,0.4c0,0,0,0.4,0.4,0.4c0,0,0,0,0,0.4l0,0c2.2,0.9,4.8,0.9,7.8,0.4
	c3-0.4,6.1-1.3,9.6-2.6s7-3,10-5.2c3.5-2.2,6.5-4.8,9.6-7.8c2.2-2.2,4.4-4.8,5.7-7s2.6-4.4,3.5-6.5c0.9-2.2,0.9-3.9,0.9-5.7
	s-0.4-3-1.3-3.9c0,0,0-0.4-0.4-0.4l-0.9-1.3l-0.9-1.3l-1.3-1.7c0.9,1.3,1.3,2.6,1.3,3.9c0,1.7-0.4,3.5-1.3,5.2
	c-0.9,2.2-2.2,3.9-3.5,6.5c-1.7,2.2-3.5,4.4-5.7,7c-3,3-6.1,5.7-9.1,7.8c-3,2.2-6.5,4.4-10,5.7c-3,1.3-6.5,2.6-9.1,3
	c-3,0.4-5.2,0.4-7.4,0C92,151.3,92.5,151.3,92.5,151.8L92.5,151.8z M128.2,109.5c-0.9,1.7-2.2,3.9-3.9,5.7c-1.7,2.2-3.9,4.4-6.1,6.5
	c-3,3-6.1,5.7-9.1,8.3s-6.1,4.8-9.1,6.5s-5.7,3.5-8.3,4.4s-4.8,1.7-6.1,1.3l0,0l0,0c0,0.4,0.4,0.4,0.4,0.9l0,0c0,0,0,0.4,0.4,0.4
	c0,0,0,0.4,0.4,0.4l0.4,0.4c0,0,0,0,0.4,0.4l0,0c0.4,0.4,0.4,0.4,0.9,0.9c1.7,0.4,4.4,0,7-0.9s5.7-2.2,8.7-3.9s6.5-3.9,9.6-6.1
	c3-2.6,6.1-5.2,9.1-7.8c2.2-2.2,4.4-4.8,6.1-7s3-4.4,3.9-6.1s1.3-3.5,1.7-4.8c0-1.3,0-2.6-0.9-3.5l0,0l-1.7-0.4l-0.4-0.4l-2.2-2.6
	c0.4,0.9,0.9,1.7,0.4,3C129.5,106,129,107.8,128.2,109.5z M78.5,134.8C78.5,135.2,78.5,135.2,78.5,134.8c0.4,0.4,0.4,0.4,0.9,0.9
	l0,0c0.4,0.4,0.4,0.4,0.9,0.9l0,0l0,0c0.4,0.4,0.4,0.4,0.9,0.9c1.3-0.4,3-1.3,5.7-2.2c2.2-1.3,4.8-3,7.8-5.2c2.6-2.2,5.7-4.4,8.7-7
	s6.1-5.2,8.7-8.3c2.2-2.2,4.4-4.8,6.1-6.5c1.7-2.2,3-3.9,4.4-5.7c1.3-1.7,1.7-3,2.2-3.9c0.4-0.9,0.4-1.7,0-2.2l0,0l0,0l-2.6-3
	l-0.9-0.9l0,0l0,0c0,0.4,0,0.9-0.4,1.7c-0.4,0.9-1.3,2.2-2.6,3.5c-1.3,1.3-2.6,3.5-4.4,5.2c-0.4,0.4-0.9,0.9-1.3,1.3
	c-1.3,1.7-3,3.5-4.8,5.2c-0.9,0.9-2.2,2.2-3,3c-1.7,1.7-3.9,3.5-5.7,5.2c-0.4,0.4-1.3,1.3-1.7,1.7c0,0,0,0-0.4,0.4
	c-0.9,0.9-1.7,1.3-2.6,2.2c-1.3,1.3-2.6,2.2-3.9,3c-0.4,0.4-0.9,0.9-1.3,0.9c-0.4,0.4-1.3,0.9-1.7,1.3c-1.3,1.3-3,2.2-3.9,3
	c-0.9,0.4-1.7,1.3-2.6,1.7s-1.7,1.3-2.6,1.3l0,0C77.6,134.3,78.1,134.3,78.5,134.8C78.1,134.8,78.1,134.8,78.5,134.8z M70.2,126.5
	L70.2,126.5c0.4,0.4,0.9,0.9,0.9,0.9l0,0l0.4,0.4l0.4,0.4l0,0c0,0,0,0,0.4,0.4l0.4,0.4c7-6.5,40.5-40.1,42.7-42.3l0,0l0,0l0,0
	c-0.9-0.9-2.2-2.2-3-3c0,0,0,0-0.4-0.4c0,0,0,0-0.4-0.4l0,0l0,0c0,0-0.9,0-1.3,0.9c-0.9,0.4-2.2,1.7-3.5,2.6c-1.3,1.3-3,3-5.2,4.8
	c-1.7,1.7-4.4,3.9-6.5,6.5c-3,3-5.7,5.7-8.7,8.7c-2.6,3-5.2,5.7-7.8,8.3c-2.2,2.6-4.4,4.8-6.1,7c-1.7,1.7-2.6,3.5-3.5,4.4
	C69.4,126.1,69.8,126.1,70.2,126.5C69.8,126.1,69.8,126.5,70.2,126.5z M72,108.2c2.2-2.6,4.4-5.7,7-8.7c0.4-0.9,1.3-1.3,1.7-2.2
	c1.7-1.7,3.5-3.5,4.8-5.2c0.4-0.4,0.9-0.9,1.3-1.3c2.2-2.2,4.8-4.4,6.5-6.1c0.9-0.9,1.7-1.3,2.2-2.2c1.3-0.9,2.2-1.7,3-2.2
	c0.4-0.4,0.9-0.9,1.3-0.9c0.9-0.4,1.7-0.9,2.6-1.3s1.3-0.4,1.7-0.4l0,0c0,0,0,0,0.4,0l0,0l-2.6-2.2l-0.9-0.4l0.4-1.3l0,0
	c-0.4-0.4-1.3-0.4-2.6,0c-1.3,0.4-2.6,0.9-4.4,2.2c-1.7,0.9-3.5,2.6-5.7,4.4c-2.2,1.7-4.4,3.9-6.5,6.1c-3,3-5.7,6.1-8.3,9.1
	c-2.6,3-4.8,6.1-7,9.1c-1.7,3-3.5,5.7-4.8,7.8c-1.3,2.2-1.7,4.4-1.7,6.1c0.4,0.4,0.4,0.4,0.9,0.9l0,0l0,0l0,0
	c0.4,0.4,0.4,0.4,0.9,0.9l0,0c0,0,0.4,0,0.4,0.4l0.4,0.4l0.4,0.4c0,0,0.4,0,0.4,0.4l0,0c0-0.4,0.4-0.9,0.4-1.7
	c0.4-0.9,0.9-2.2,1.7-3.5l0.4-0.4c0.9-1.3,1.7-3,3-4.8C71.1,109.9,71.5,109.1,72,108.2z M74.6,79.5c2.2-2.2,4.8-4.4,7-6.1
	s4.4-3,6.1-3.9s3.5-1.3,4.8-1.7c1.3,0,2.6,0,3.5,0.9l0,0l-0.4-0.4l-3.9-3l-0.4-0.4l0,0C90.4,64,89.1,64,87.8,64
	c-1.7,0-3.5,0.4-5.2,1.3s-3.9,2.2-6.1,3.5c-2.2,1.7-4.4,3.5-7,5.7c-3,3-5.7,6.1-7.8,9.1c-2.2,3-4.4,6.5-6.1,9.6s-2.6,6.1-3.5,9.1
	c-0.4,2.6-0.9,5.2-0.4,7.4c0.4,0.4,0.4,0.4,0.9,0.9l0,0c0,0,0.4,0,0.4,0.4l0.4,0.4c0,0,0.4,0,0.4,0.4c0,0,0.4,0,0.4,0.4l0,0
	c0.4,0,0.4,0.4,0.9,0.4l0,0l0,0c-0.4-1.7,0-3.9,0.9-6.5s2.2-5.7,3.9-8.7s3.9-6.1,6.1-9.6C68.9,85.6,72,82.5,74.6,79.5z M61.5,69.4
	c2.2-2.2,4.4-4.4,7-5.7c2.2-1.3,4.4-2.6,6.5-3.5c2.2-0.9,3.9-0.9,5.7-0.9s3.5,0.4,4.4,1.3l-3.5-2.2l-0.9-0.9h-0.4l0,0
	c-1.3-0.9-3-1.3-4.8-1.3s-3.9,0-6.1,0.9s-4.4,1.7-6.5,3s-4.4,3.5-6.5,5.7c-3,3-5.2,6.1-7.4,9.6s-3.9,7-5.2,10.5s-1.7,7-2.2,10
	c0,3,0.4,6.1,1.3,8.3c0,0,0,0,0.4,0c0,0,0.4,0,0.4,0.4l0,0c0,0,0,0,0.4,0c0,0,0.4,0,0.4,0.4l0,0c0,0,0,0,0.4,0l0.4,0.4l0,0l0,0
	l0.4,0.4l0,0c-0.9-2.2-0.9-4.8-0.9-7.8c0.4-3,1.3-6.1,2.6-9.6s3-7,5.2-10C56.3,75.5,58.9,72.5,61.5,69.4z M35.4,99.5
	c0,0,0.4,0,0.4,0.4l0,0c0,0,0,0,0.4,0c0,0,0.4,0,0.4,0.4l0,0c0,0,0,0,0.4,0c0,0,0.4,0,0.4,0.4l0,0c0,0,0,0,0.4,0c0,0,0.4,0,0.4,0.4
	l0,0C36.9,98.5,36,95.4,36,92c0-3.5,0.4-7,1.3-10.5c0.9-3.5,2.6-7.4,4.4-10.5c2.2-3.5,4.4-6.5,7.4-9.6c2.2-2.2,4.4-3.9,6.5-5.2
	c2.2-1.3,4.4-2.6,6.5-3c2.2-0.4,4.4-0.9,6.1-0.9c2.2,0,3.9,0.9,5.7,1.7l0,0l0,0l-3.5-2.6H70l0,0c-1.7-0.9-3.5-1.3-5.7-1.7
	c-2.2,0-4.4,0-6.5,0.9c-2.2,0.4-4.4,1.7-6.5,3c-2.2,1.3-4.4,3-6.5,5.2c-3,3-5.2,6.1-7.4,9.6s-3.5,7-4.4,10.9
	c-0.9,3.5-1.3,7.4-0.9,10.9C32.8,93.4,33.7,96.4,35.4,99.5C35.4,99.1,35.4,99.5,35.4,99.5z M64.6,48.5l-3-1.3l-0.9-0.4
	c-0.4,0-0.4,0-0.9-0.4c-1.7-0.9-3.9-0.9-5.7-1.3c-2.2,0-4.4,0-6.5,0.9c-2.2,0.4-4.4,1.3-6.5,2.6c-2.2,1.3-4.4,3-6.5,4.8
	c-2.6,3-5.2,6.5-7,10c-1.7,3.5-3,7.4-3.5,11.3c-0.4,3.9-0.4,7.8,0,11.3c0.9,3.5,2.2,7,3.9,10l0,0h0.4l0,0c0,0,0,0,0.4,0h0.4l0,0
	c0,0,0,0,0.4,0H30l0,0c0,0,0,0,0.4,0H31l0,0c-1.7-1.7-3-5.2-3.5-8.7c-0.4-3.5-0.4-7.4,0.4-10.9c0.9-3.9,2.2-7.4,3.9-10.9
	c1.7-3.5,4.4-7,7-9.6c2.2-2.2,4.4-3.9,6.5-5.2c2.2-1.3,4.4-2.2,7-3c2.2-0.4,4.4-0.9,6.5-0.4C60.7,47.2,62.8,47.7,64.6,48.5
	C64.6,48.5,65,48.5,64.6,48.5L64.6,48.5z M54.6,44.6c-1.3-0.4-2.6-0.9-3.9-1.3h-0.4h-0.4c-0.4,0-1.3-0.4-1.7-0.4
	c-23.1-3-42.3,27.4-25.7,51l0,0h0.4l0,0l0,0h0.4l0,0l0,0h0.4l0,0l0,0h0.4l0,0c-0.4-0.4-0.9-1.3-1.3-1.7C10.6,72,28.4,37.6,54.6,44.6
	z M18.8,49.8c-3,3-5.2,6.1-6.5,10c-1.3,3.5-2.2,7.4-2.6,11.3c0,3.9,0.4,7.8,1.7,11.8c1.3,3.9,3,7.4,6.1,10.5l0,0c0,0,0,0,0.4,0l0,0
	l0,0c0,0,0,0,0.4,0l0,0l0,0c0,0,0,0,0.4,0l0,0l0,0h0.4l0,0C4,74.7,15.4,41.1,42.4,42.4l0,0l0,0h-1.3l0,0l0,0c-1.3,0-3,0-4.4,0l0,0
	l0,0c-1.7-0.4-3,0-4.8,0c-1.7,0.4-3,0.9-4.8,1.7c-1.3,0.9-3,1.3-4.4,2.6C21.5,47.7,20.2,48.5,18.8,49.8z M5.3,72.5
	c0,3.9,0.9,7.8,2.2,11.3s3.5,7,6.5,10l0,0l0,0l0,0l0,0l0,0l0,0l0,0l0,0l0,0l0,0l0,0l0,0C-0.8,76.4,4.9,51.6,25.8,44.2l0,0l0,0
	c-1.3,0.4-3.5,1.3-4.8,1.7c-0.9,0.4-1.7,0.9-2.6,1.3l0,0l0,0c0.4,0,0,0.4-0.4,0.9c-0.4,0.4-0.9,0.9-1.3,0.9
	c-0.4,0.4-0.9,0.9-1.3,1.3c-0.4,0.4-0.9,0.9-1.3,1.3c-3,3-5.2,6.1-6.5,9.6C5.8,64.6,5.3,68.6,5.3,72.5z M6.2,88.6
	c1.3,2.6,3.5,5.2,5.7,7.4l0,0c0,0,0,0,0-0.4l0,0l0,0l0,0l0,0l0,0c0,0,0,0,0-0.4l0,0l0,0l0,0l0,0C1,83.4-0.3,68.1,8.8,55.5l0,0v0.4
	L8,57.2l0,0c0,0,0,0,0,0.4c-0.4,0.9-0.9,1.3-1.3,1.7s-0.9,1.3-1.7,3l0,0l0,0l-0.4,0.4c-1.3,2.6-2.2,5.7-2.2,8.7
	c-0.4,3,0,6.1,0.4,8.7C3.6,83.4,4.5,86,6.2,88.6z M11,99.9L11,99.9L11,99.9c0-0.4,0-0.4,0-0.4l0,0v-0.4l0,0l0,0c0,0,0,0,0-0.4l0,0
	l0,0c0,0,0,0,0-0.4l0,0c-1.7-1.7-3.5-3.5-4.8-5.7c-1.3-1.7-2.2-3.9-3-6.1S1.9,82.1,1.5,80c0-2.2,0-3.9,0-6.1v-0.4v0.4
	c0,0.9,0,1.7-0.4,2.2c0,0.4,0,1.3,0,3c0,0.4,0,0.4,0,0.9c0,0.9,0,1.3,0,2.2C2.3,92.1,8.8,98.2,11,99.9z M2.3,87.7L2.3,87.7
	c0,0.4,0.4,1.3,0.4,1.7v0.4C2.7,89,2.3,88.6,2.3,87.7L2.3,87.7z M6.6,99.9c0.9,0.9,1.3,2.2,2.6,3c0.9,0.9,1.7,1.7,2.6,2.2v-0.4l0,0
	l0,0v-0.4l0,0l0,0v-0.4l0,0l0,0v-0.4l0,0c-1.7-1.3-3-2.6-3.9-3.9S6.2,97,5.3,95.7C4.5,94.3,4,93,3.6,91.6c-0.4-0.9-0.4-1.3-0.9-2.2
	c0.4,1.3,0.4,2.2,0.9,3.5c0,0,0,0,0,0.4l0,0c0.4,0.9,0.9,2.2,1.3,3C5.3,97.7,5.8,98.6,6.6,99.9z"/>
</svg>
