<svg width="313" height="440" viewBox="0 0 313 440" fill="none" xmlns="http://www.w3.org/2000/svg">
<g clip-path="url(#clip0_1125_442)">
<path d="M179.652 136.282C180.85 135.723 182.177 135.502 183.492 135.642C183.607 135.642 184.516 135.757 183.927 135.642C184.298 135.699 184.665 135.776 185.028 135.873C185.403 135.975 185.762 136.09 186.103 136.218C186.948 136.513 185.757 135.962 186.525 136.41C187.595 136.936 188.538 137.687 189.29 138.612C190.009 139.533 190.508 140.605 190.749 141.748C190.826 142.055 190.89 142.362 190.941 142.682C190.839 142.068 190.941 143.271 190.941 143.399C190.941 143.527 190.941 144.026 190.941 144.334C190.941 144.641 190.826 145.294 190.941 144.73C190.83 145.451 190.632 146.156 190.353 146.83C190.583 146.279 190.225 147.073 190.161 147.175C189.969 147.546 189.738 147.879 189.533 148.225C189.329 148.57 189.751 148.046 189.277 148.558C189.073 148.788 188.881 149.018 188.663 149.236C188.371 149.526 188.063 149.799 187.741 150.055C188.189 149.697 187.421 150.273 187.396 150.286C187.097 150.473 186.79 150.652 186.474 150.823C186.359 150.887 185.437 151.271 185.988 151.079C185.313 151.319 184.619 151.503 183.914 151.63C183.509 151.741 183.13 151.932 182.798 152.19C182.467 152.448 182.19 152.769 181.982 153.135C181.775 153.5 181.641 153.903 181.59 154.32C181.538 154.737 181.569 155.16 181.681 155.566C181.792 155.971 181.983 156.35 182.241 156.681C182.499 157.013 182.82 157.29 183.186 157.497C183.551 157.705 183.954 157.838 184.371 157.89C184.788 157.942 185.211 157.911 185.617 157.799C188.689 157.223 191.491 155.663 193.599 153.356C195.708 151.048 197.009 148.117 197.307 145.005C197.605 141.894 196.882 138.769 195.249 136.104C193.616 133.438 191.161 131.376 188.253 130.228C184.939 128.896 181.247 128.846 177.898 130.087C177.092 130.334 176.411 130.88 175.995 131.613C175.578 132.346 175.458 133.211 175.658 134.03C175.891 134.844 176.435 135.534 177.173 135.951C177.911 136.368 178.783 136.478 179.601 136.257L179.652 136.282Z" fill="#263238"/>
<path d="M183.454 372.583L212.702 401.626L217.822 431.233C218.571 434.097 220.379 436.571 222.88 438.156C225.381 439.74 228.39 440.317 231.3 439.77C231.775 439.683 232.236 439.533 232.67 439.322C233.95 438.644 236.305 434.689 236.51 433.281C238.968 417.434 242.91 396.455 238.852 391.489C236.536 388.673 212.651 353.319 212.651 353.319L183.454 372.583Z" fill="#E0E0E0"/>
<path d="M215.723 380.89C215.909 381 216.081 381.134 216.235 381.287C216.542 381.556 217.003 381.953 217.579 382.49C218.718 383.566 220.395 385.114 222.263 387.214C224.511 389.66 226.363 392.441 227.755 395.457C228.547 397.259 229.081 399.163 229.342 401.114C229.585 403.2 229.692 405.299 229.662 407.399C229.572 411.674 230.212 415.694 230.123 419.457C230.211 422.833 229.145 426.138 227.102 428.826C226.372 429.697 225.475 430.414 224.463 430.932C223.452 431.451 222.347 431.762 221.214 431.847C220.602 431.878 219.99 431.818 219.396 431.668C218.999 431.553 218.795 431.463 218.807 431.438C219.596 431.585 220.4 431.637 221.201 431.591C223.379 431.33 225.368 430.228 226.743 428.519C228.657 425.89 229.631 422.694 229.508 419.444C229.572 415.783 228.907 411.764 228.996 407.399C229.023 405.33 228.925 403.261 228.702 401.204C228.453 399.309 227.945 397.457 227.191 395.7C225.857 392.724 224.074 389.97 221.905 387.534C220.1 385.396 218.487 383.796 217.399 382.682C216.804 382.121 216.244 381.522 215.723 380.89Z" fill="#263238"/>
<path d="M223.902 397.812C223.902 398.017 221.214 398.337 218.052 399.373C214.89 400.41 212.522 401.729 212.42 401.55C215.741 399.065 219.792 397.75 223.94 397.812H223.902Z" fill="#263238"/>
<path d="M223.633 407.514C223.633 407.719 221.265 407.514 218.436 408.065C215.608 408.615 213.444 409.447 213.316 409.268C216.385 407.408 220.044 406.781 223.556 407.514H223.633Z" fill="#263238"/>
<path d="M226.346 416.807C226.346 416.999 223.991 416.449 221.124 416.462C218.257 416.474 216.004 416.986 215.901 416.794C219.254 415.455 222.993 415.455 226.346 416.794V416.807Z" fill="#263238"/>
<path d="M222.135 437.326C222.837 437.391 223.544 437.391 224.247 437.326C226.144 437.048 227.896 436.147 229.226 434.766C231.117 432.642 232.419 430.06 233.002 427.278C233.796 424.142 234.512 420.647 235.114 416.948C236.12 410.64 236.646 404.264 236.688 397.876C236.688 395.431 236.688 393.447 236.688 392.065C236.622 391.354 236.622 390.638 236.688 389.927C236.822 390.629 236.907 391.339 236.944 392.052C237.047 393.434 237.188 395.418 237.213 397.876C237.306 404.304 236.844 410.728 235.831 417.076C235.216 420.788 234.487 424.282 233.642 427.444C233.017 430.321 231.623 432.975 229.61 435.124C228.184 436.535 226.309 437.405 224.311 437.582C223.775 437.614 223.237 437.575 222.711 437.466C222.512 437.456 222.316 437.409 222.135 437.326Z" fill="#263238"/>
<path d="M236.305 394.189C235.622 393.365 235.006 392.487 234.462 391.565C233.361 389.914 231.812 387.725 229.982 385.268C228.151 382.81 226.385 380.801 225.079 379.303C224.321 378.542 223.632 377.715 223.019 376.833C223.902 377.452 224.71 378.174 225.425 378.983C227.247 380.843 228.956 382.809 230.545 384.871C232.12 386.914 233.569 389.051 234.884 391.271C235.474 392.183 235.951 393.163 236.305 394.189Z" fill="#263238"/>
<path d="M278.544 310.183L287.325 350.657L309.61 371.009C311.618 373.194 312.725 376.058 312.709 379.026C312.692 381.994 311.553 384.846 309.52 387.009C309.196 387.366 308.821 387.672 308.406 387.917C307.126 388.609 302.518 388.493 301.2 387.917C286.454 381.428 266.563 373.428 264.566 367.31C263.427 363.815 246.416 324.481 246.416 324.481L278.544 310.183Z" fill="#E0E0E0"/>
<path d="M268.164 342.03C268.258 342.224 268.323 342.431 268.356 342.644L268.766 344.41C269.137 345.934 269.61 348.161 270.442 350.81C271.333 353.983 272.697 357.004 274.487 359.77C275.571 361.353 276.862 362.782 278.327 364.02C279.959 365.322 281.669 366.523 283.447 367.617C287.146 369.87 290.244 372.634 293.367 374.567C296.059 376.423 299.294 377.325 302.558 377.127C304.747 376.876 306.753 375.784 308.151 374.081C308.62 373.429 309.011 372.725 309.316 371.982C309.31 372.196 309.267 372.409 309.188 372.609C308.989 373.187 308.709 373.734 308.356 374.234C307.675 375.15 306.816 375.919 305.831 376.496C304.845 377.072 303.754 377.443 302.622 377.588C299.231 377.853 295.853 376.95 293.047 375.028C289.822 373.07 286.762 370.343 283.089 368.116C281.304 367.009 279.593 365.786 277.969 364.455C276.448 363.182 275.12 361.694 274.026 360.039C272.225 357.233 270.873 354.162 270.02 350.938C269.252 348.225 268.842 345.972 268.548 344.423C268.42 343.642 268.318 343.041 268.254 342.631C268.199 342.435 268.169 342.233 268.164 342.03Z" fill="#263238"/>
<path d="M278.034 358.081C279.036 356.265 280.421 354.688 282.092 353.46C283.625 352.062 285.441 351.01 287.417 350.375C287.506 350.554 285.087 351.834 282.514 353.972C279.941 356.11 278.201 358.196 278.034 358.081Z" fill="#263238"/>
<path d="M286.392 363.085C287.678 359.724 290.195 356.979 293.432 355.405C293.547 355.572 291.588 356.916 289.668 359.053C287.748 361.191 286.571 363.188 286.392 363.085Z" fill="#263238"/>
<path d="M292.829 370.369C293.498 366.805 295.515 363.637 298.461 361.524C298.589 361.678 296.887 363.329 295.351 365.761C293.815 368.193 293.021 370.433 292.829 370.369Z" fill="#263238"/>
<path d="M312.439 377.946C312.439 377.946 312.439 378.138 312.311 378.497C312.112 378.998 311.849 379.471 311.53 379.905C310.308 381.5 308.563 382.615 306.602 383.054C303.698 383.61 300.697 383.362 297.924 382.337C294.8 381.338 291.434 380.058 287.965 378.574C282.047 376.005 276.363 372.926 270.98 369.37C268.906 368.014 267.293 366.81 266.192 366.004C265.604 365.59 265.048 365.132 264.528 364.634C265.166 364.965 265.775 365.351 266.346 365.786C267.485 366.554 269.136 367.681 271.236 368.974C276.67 372.381 282.352 375.376 288.234 377.934C291.677 379.418 295.018 380.711 298.103 381.774C300.773 382.792 303.667 383.084 306.487 382.618C308.372 382.239 310.075 381.238 311.325 379.777C311.754 379.204 312.127 378.591 312.439 377.946Z" fill="#263238"/>
<path d="M268.267 366.618C267.601 365.764 267.042 364.831 266.603 363.841C265.426 361.516 264.392 359.123 263.506 356.673C262.606 354.226 261.862 351.725 261.279 349.185C260.967 348.145 260.791 347.069 260.754 345.985C261.161 346.985 261.486 348.017 261.727 349.069C262.29 350.977 263.096 353.601 264.133 356.442C265.17 359.284 266.232 361.818 267.039 363.636C267.522 364.598 267.933 365.595 268.267 366.618Z" fill="#263238"/>
<path d="M87.7986 191.617C85.1557 192.542 82.765 194.071 80.8163 196.082C78.8677 198.093 77.4148 200.53 76.573 203.201C74.589 209.178 75.5746 216.001 78.1346 221.658C79.2394 224.342 81.111 226.64 83.5151 228.266C85.9193 229.891 88.7494 230.772 91.6514 230.798C97.8466 230.874 103.991 228.238 109.789 226.382L132.317 219.201C136.221 217.921 134.557 211.764 130.615 213.018L113.565 218.471C108.227 220.174 102.915 222.081 97.501 223.514C93.4434 224.602 88.6178 225.281 85.5842 221.697C82.5506 218.113 81.6674 212.839 82.0002 208.462C82.333 204.084 85.0338 199.284 89.4882 197.786C93.3282 196.506 91.7154 190.298 87.7986 191.617Z" fill="#263238"/>
<path d="M55.3004 69.3C49.8732 70.4008 46.5836 75.7 46.3404 80.9736C46.0972 86.772 49.246 91.8664 52.3564 96.4872C52.7978 97.2055 53.499 97.726 54.3143 97.9406C55.1296 98.1551 55.9962 98.0472 56.734 97.6392C57.4597 97.2046 57.9866 96.5032 58.2019 95.6851C58.4171 94.867 58.3038 93.9972 57.886 93.2616C55.6204 89.8952 52.9452 86.068 52.766 82.1384C52.6918 81.2796 52.761 80.4145 52.9708 79.5784C52.9708 79.3864 53.3804 78.388 53.214 78.7592C53.3985 78.373 53.6036 77.997 53.8284 77.6328C53.9052 77.5048 54.11 77.2232 53.9052 77.492C54.0354 77.3209 54.1765 77.1585 54.3276 77.0056C54.5068 76.8136 54.6988 76.6344 54.8908 76.4424C55.0828 76.2504 54.5836 76.6472 55.006 76.3528L55.5308 76.02C55.5308 76.02 56.1068 75.7128 55.8636 75.828C55.6204 75.9432 56.158 75.7256 56.222 75.7128L56.99 75.5208C57.8041 75.2905 58.4952 74.7495 58.9142 74.0144C59.3332 73.2794 59.4466 72.4091 59.23 71.5912C58.9912 70.7798 58.4467 70.0927 57.7112 69.6749C56.9758 69.257 56.1069 69.141 55.2876 69.3512L55.3004 69.3Z" fill="#455A64"/>
<path d="M121.244 66.8576L44.8038 93.1781C35.2121 96.4808 30.1139 106.934 33.4166 116.525L61.329 197.589C64.6316 207.181 75.0846 212.279 84.6763 208.976L161.117 182.656C170.708 179.353 175.806 168.9 172.504 159.308L144.591 78.2449C141.289 68.6532 130.836 63.5549 121.244 66.8576Z" fill="#1C8AFF"/>
<g opacity="0.3">
<path d="M121.244 66.8578L44.8038 93.1783C35.2121 96.481 30.1139 106.934 33.4166 116.526L61.329 197.589C64.6316 207.181 75.0846 212.279 84.6763 208.976L161.117 182.656C170.708 179.353 175.806 168.9 172.504 159.309L144.591 78.2451C141.289 68.6534 130.836 63.5551 121.244 66.8578Z" fill="black"/>
</g>
<path d="M136.941 61.4506L60.5011 87.7711C50.9094 91.0737 45.8111 101.527 49.1138 111.118L77.0262 192.182C80.3289 201.774 90.7818 206.872 100.374 203.569L176.814 177.249C186.405 173.946 191.504 163.493 188.201 153.901L160.289 72.8378C156.986 63.2461 146.533 58.1479 136.941 61.4506Z" fill="#1C8AFF"/>
<path d="M58.7937 103.31C58.7937 103.31 47.1457 112.846 44.2785 122.945C41.4113 133.044 32.2593 164.468 32.2593 164.468C29.5492 169.881 27.1308 175.436 25.0145 181.108C23.7345 185.281 13.2513 208.462 15.5809 215.822C15.8113 216.513 10.4609 228.762 10.4609 228.762L35.6257 237.236L40.8481 224.052L42.9857 222.772C45.0352 221.57 46.6081 219.698 47.4401 217.473L61.2257 180.737L72.0929 150.887L58.7937 103.31Z" fill="#E0E0E0"/>
<path d="M54.2002 107.713C54.7306 108.124 55.2232 108.583 55.6722 109.082C56.133 109.543 56.6834 110.106 57.285 110.823C57.8866 111.54 58.565 112.295 59.2818 113.229C60.9506 115.378 62.4607 117.645 63.8002 120.013C65.4282 122.92 66.8152 125.955 67.9474 129.089C69.0589 132.236 69.915 135.468 70.5074 138.753C70.9588 141.436 71.2154 144.148 71.2754 146.868C71.3394 148.033 71.2754 149.082 71.2754 150.004C71.2754 150.925 71.1858 151.719 71.1218 152.359C71.0872 153.032 70.993 153.7 70.8402 154.356C70.7875 153.687 70.7875 153.015 70.8402 152.346C70.8402 151.693 70.8402 150.913 70.8402 149.991C70.8402 149.069 70.8402 148.033 70.7634 146.893C70.6378 144.201 70.3342 141.52 69.8546 138.868C69.2443 135.625 68.3885 132.433 67.2946 129.319C66.1657 126.236 64.8095 123.241 63.237 120.359C61.936 117.998 60.4778 115.727 58.8722 113.562C58.2194 112.615 57.5922 111.834 56.965 111.105C56.3378 110.375 55.8898 109.825 55.4546 109.313C54.9925 108.815 54.5729 108.28 54.2002 107.713Z" fill="#263238"/>
<path d="M46.4551 117.402C46.9682 117.698 47.4525 118.04 47.9015 118.426C48.8231 119.118 50.0775 120.193 51.5751 121.588C53.3179 123.235 54.9715 124.974 56.5287 126.798C58.4206 129.052 60.1731 131.421 61.7767 133.889C63.3466 136.361 64.7658 138.925 66.0263 141.569C67.0447 143.743 67.9378 145.974 68.7015 148.25C69.3415 150.183 69.8023 151.783 69.9815 152.897C70.1456 153.47 70.257 154.057 70.3143 154.65C70.0581 154.114 69.8606 153.552 69.7255 152.974C69.4055 151.873 68.8935 150.311 68.1895 148.404C67.4855 146.497 66.5639 144.257 65.4119 141.825C64.1527 139.226 62.7555 136.697 61.2263 134.247C59.6542 131.801 57.9448 129.447 56.1063 127.194C54.5932 125.359 52.9868 123.604 51.2935 121.934C49.8599 120.5 48.6439 119.374 47.7863 118.631C47.3045 118.265 46.8587 117.853 46.4551 117.402Z" fill="#263238"/>
<path d="M29.8027 169.613C38.3019 177.293 49.7963 182.311 61.1371 180.993L62.9803 176.09C57.2923 176.797 51.5177 176.128 46.1413 174.142C40.7648 172.155 35.9432 168.908 32.0811 164.673L29.8027 169.613Z" fill="#1C8AFF"/>
<path d="M63.9527 173.287C63.5351 173.399 63.1048 173.454 62.6727 173.454C61.4625 173.54 60.2477 173.54 59.0375 173.454C55.0409 173.166 51.121 172.209 47.4407 170.625C43.7696 169.044 40.3015 167.029 37.1111 164.622C35.8311 163.713 34.9223 162.932 34.2823 162.369C33.9303 162.097 33.6085 161.788 33.3223 161.447C33.3223 161.358 34.8839 162.522 37.3799 164.238C40.6107 166.512 44.068 168.447 47.6967 170.01C51.3206 171.562 55.156 172.563 59.0759 172.98C62.0583 173.287 63.9399 173.159 63.9527 173.287Z" fill="#263238"/>
<path d="M58.8972 185.127C58.48 185.24 58.0494 185.296 57.6172 185.293C56.4113 185.379 55.2007 185.379 53.9948 185.293C49.9827 185.017 46.0453 184.07 42.3468 182.49C38.6757 180.91 35.2077 178.894 32.0172 176.487C30.7372 175.578 29.8284 174.797 29.1884 174.234C28.8342 173.969 28.5158 173.659 28.2412 173.313C28.2412 173.223 29.79 174.388 32.286 176.103C35.5202 178.372 38.977 180.306 42.6028 181.876C46.2314 183.427 50.0709 184.428 53.9948 184.845C57.0028 185.127 58.8972 185.05 58.8972 185.127Z" fill="#263238"/>
<path d="M47.6592 133.85C46.8705 132.947 45.9086 132.212 44.8304 131.687C44.2859 131.436 43.6792 131.352 43.0868 131.445C42.4945 131.538 41.9431 131.805 41.5024 132.212C41.0905 132.756 40.8062 133.386 40.6704 134.055L37.0992 147.034C36.8565 147.746 36.7565 148.498 36.8048 149.249C36.8967 149.784 37.1124 150.291 37.4346 150.729C37.7568 151.167 38.1766 151.523 38.6608 151.77C39.7198 152.243 40.8968 152.387 42.0384 152.181C43.18 151.976 44.2332 151.431 45.0608 150.618C46.6815 148.983 47.8197 146.932 48.3504 144.692C49.3872 141.018 50.0784 136.41 47.6592 133.85Z" fill="#1C8AFF"/>
<path d="M37.803 227.661C37.4212 227.616 37.0469 227.521 36.6894 227.38L33.6942 226.394C31.1342 225.537 27.627 224.308 23.6334 222.874L23.3262 222.759L23.4414 222.452L24.3502 219.892C24.4782 219.559 24.5934 219.226 24.7086 218.919L24.8238 218.612L25.131 218.714C29.547 220.122 33.5022 221.402 36.331 222.362C37.7518 222.849 38.891 223.245 39.6846 223.54L40.5806 223.885C40.6702 223.885 40.7726 223.885 40.7598 224.013C40.747 224.141 40.8622 224.013 40.875 224.013C40.875 224.013 40.6958 224.013 40.5934 224.013L39.659 223.783C38.8526 223.578 37.6878 223.245 36.2542 222.823C33.3742 221.965 29.4062 220.749 24.9774 219.354L25.387 219.149C25.2718 219.469 25.1566 219.802 25.0286 220.135C24.7214 221.005 24.4014 221.863 24.107 222.695L23.915 222.285C27.8958 223.732 31.3902 225.05 33.899 226.01L36.8302 227.188C37.1759 227.297 37.5037 227.457 37.803 227.661Z" fill="#263238"/>
<path d="M13.2266 222.298C13.2266 222.132 18.8458 223.988 25.6426 226.446C32.4394 228.903 37.905 231.054 37.841 231.22C33.6325 230.056 29.4881 228.672 25.425 227.073C21.2783 225.695 17.2066 224.101 13.2266 222.298Z" fill="#263238"/>
<path d="M10.6666 231.578L33.0666 239.706C33.4894 239.855 33.9536 239.83 34.3585 239.639C34.7635 239.447 35.0765 239.103 35.2298 238.682C35.3823 238.261 35.3614 237.797 35.1718 237.392C34.9822 236.986 34.6394 236.672 34.2186 236.519L11.8186 228.404C11.6103 228.327 11.3887 228.292 11.1667 228.301C10.9447 228.31 10.7268 228.363 10.5255 228.457C10.3242 228.551 10.1437 228.684 9.9943 228.849C9.84493 229.013 9.72973 229.206 9.6554 229.415C9.57815 229.624 9.54307 229.845 9.5522 230.067C9.56132 230.289 9.61447 230.507 9.70855 230.708C9.80264 230.91 9.93578 231.09 10.1003 231.24C10.2647 231.389 10.4572 231.504 10.6666 231.578Z" fill="#263238"/>
<path d="M33.5403 238.81C33.5403 238.81 37.7259 247.054 37.9307 252.468C38.1355 257.882 38.1099 261.927 35.7163 263.642C33.3227 265.358 30.9547 264.999 30.7115 262.298C30.4683 259.598 31.4539 257.934 30.0331 254.734C28.6123 251.534 27.5883 251.086 27.5883 251.086C27.5883 251.086 23.4539 259.892 24.5035 262.503C25.5531 265.114 31.3899 271.182 27.5755 272.961C23.7611 274.74 19.8955 270.887 19.8955 270.887C19.8955 270.887 16.2475 274.42 12.2155 270.068C10.3426 269.708 8.62214 268.79 7.27924 267.436C5.93635 266.082 5.03358 264.353 4.68907 262.478C4.68907 262.478 -0.328533 261.748 0.0170672 257.268C0.680243 251.391 2.22504 245.648 4.59946 240.231C5.64481 238.219 6.82066 236.278 8.11946 234.42C8.11946 234.177 10.5515 230.311 10.5515 230.311L33.5403 238.81Z" fill="#263238"/>
<path d="M15.5437 256.833C15.3128 261.797 16.8504 266.682 19.8829 270.618C19.8829 270.618 19.1661 270.145 18.3213 269.069C17.2244 267.644 16.3881 266.037 15.8509 264.321C15.3113 262.608 15.0731 260.815 15.1469 259.021C15.1299 258.273 15.2649 257.528 15.5437 256.833Z" fill="#455A64"/>
<path d="M9.29706 252.596C8.75448 255.552 8.67245 258.575 9.05386 261.556C9.6581 264.471 10.6935 267.279 12.1259 269.889C11.4691 269.281 10.9309 268.556 10.5387 267.751C9.47754 265.86 8.75418 263.798 8.40106 261.658C8.05191 259.537 8.07791 257.371 8.47786 255.258C8.56812 254.325 8.8468 253.419 9.29706 252.596Z" fill="#455A64"/>
<path d="M5.84093 249.818C6.03293 249.818 5.30333 252.724 5.02173 256.295C4.74013 259.866 5.02173 262.797 4.80413 262.823C4.22675 260.68 4.07456 258.445 4.35613 256.244C4.4215 254.025 4.92616 251.841 5.84093 249.818Z" fill="#455A64"/>
<path d="M3.52344 243.93C3.52344 243.841 4.94424 245.21 7.61944 246.797C11.2345 248.895 15.0728 250.583 19.0626 251.828L18.653 252.02C19.236 250.397 19.9069 248.808 20.6626 247.258C21.509 245.54 22.4624 243.877 23.517 242.279L23.6706 242.765C19.8442 241.339 16.1303 239.628 12.5602 237.645C11.2802 236.916 10.1922 236.289 9.48824 235.841C9.11078 235.63 8.75863 235.376 8.43864 235.085C8.84816 235.226 9.23926 235.415 9.60344 235.649L12.7522 237.287C16.3631 239.131 20.0819 240.755 23.8882 242.151L24.2722 242.292L24.1058 242.65C22.1513 245.665 20.5412 248.889 19.3058 252.263L19.2034 252.557L18.8962 252.455C14.8479 251.182 10.9771 249.402 7.37624 247.156C6.33788 246.483 5.35356 245.729 4.43224 244.903C4.09183 244.616 3.78675 244.289 3.52344 243.93Z" fill="#455A64"/>
<path d="M30.9551 260.814C30.9551 260.814 31.1087 260.378 31.6847 259.994C32.4481 259.52 33.3606 259.347 34.2447 259.508C35.1461 259.676 35.9481 260.185 36.4847 260.929C36.8943 261.492 36.9455 261.914 36.8687 261.953C36.7919 261.991 36.5743 261.646 36.1391 261.236C35.5931 260.683 34.8921 260.308 34.1288 260.162C33.3654 260.016 32.5757 260.105 31.8639 260.417C31.3391 260.647 31.0191 260.89 30.9551 260.814Z" fill="#455A64"/>
<path d="M23.1335 272.999C23.0567 272.999 22.8135 272.59 22.7111 271.809C22.6042 270.773 22.7998 269.728 23.2743 268.801C23.7466 267.875 24.4812 267.11 25.3863 266.599C26.0775 266.228 26.5767 266.177 26.6663 266.254C25.5611 267.008 24.6206 267.979 23.9015 269.108C23.381 270.339 23.1195 271.663 23.1335 272.999Z" fill="#455A64"/>
<path d="M34.1425 239.898C32.8997 239.598 31.6838 239.196 30.5073 238.695L21.8417 235.559L13.2017 232.334C11.9878 231.93 10.8067 231.434 9.66895 230.849C10.929 231.078 12.1637 231.429 13.3553 231.898C15.6081 232.628 18.6929 233.69 22.0721 234.932C25.4513 236.174 28.4721 237.351 30.6737 238.26C31.884 238.684 33.0465 239.233 34.1425 239.898Z" fill="#455A64"/>
<path d="M71.8509 155.61C72.1197 156.046 94.5069 199.425 94.5069 199.425C94.5069 199.425 103.723 229.044 110.174 237.914L198.366 184.858L182.494 153.793L155.205 67.7L142.213 70.26C142.213 70.26 79.6077 92.724 71.3389 95.86C66.6949 97.5015 62.4288 100.061 58.7949 103.386C58.7949 103.386 61.7389 139.559 71.8509 155.61Z" fill="#E0E0E0"/>
<g opacity="0.3">
<path d="M141.134 116.796L96.9915 133.16C92.504 134.824 90.2148 139.81 91.8783 144.298L104.79 179.127C106.453 183.614 111.44 185.904 115.927 184.24L160.07 167.876C164.557 166.213 166.847 161.226 165.183 156.739L152.272 121.909C150.608 117.422 145.622 115.133 141.134 116.796Z" fill="black"/>
</g>
<path d="M64.8237 98.9575C80.3629 103.693 88.3885 119.361 95.2749 132.775C97.1437 136.436 102.673 133.197 100.792 129.537C93.1117 114.458 83.8573 98.0615 66.5261 92.7879C62.5837 91.5847 60.8941 97.7543 64.8237 98.9575Z" fill="#455A64"/>
<path d="M142.071 114.418L97.928 130.782C93.4405 132.445 91.1513 137.431 92.8148 141.919L105.726 176.748C107.39 181.236 112.376 183.525 116.864 181.861L161.007 165.497C165.494 163.834 167.783 158.848 166.12 154.36L153.208 119.531C151.545 115.043 146.558 112.754 142.071 114.418Z" fill="#FAFAFA"/>
<path d="M161.067 165.492C161.747 165.172 162.402 164.799 163.025 164.378C164.776 163.109 165.983 161.226 166.404 159.105C166.726 157.59 166.615 156.015 166.084 154.561L164.126 149.338L159.352 136.538L153.579 121.102C153.173 119.676 152.505 118.339 151.608 117.159C150.629 115.979 149.345 115.091 147.896 114.59C146.447 114.089 144.889 113.995 143.39 114.318C142.612 114.509 141.85 114.762 141.112 115.073L138.782 115.93L98.1292 131.034C96.4024 131.678 94.9365 132.873 93.9596 134.436C92.9827 135.999 92.5496 137.84 92.7276 139.674C92.8268 140.556 93.0554 141.419 93.406 142.234L94.366 144.794L96.2732 149.914C98.8332 156.724 101.214 163.278 103.518 169.537C104.107 171.098 104.67 172.647 105.233 174.17C105.674 175.681 106.32 177.123 107.153 178.458C108.026 179.666 109.205 180.619 110.568 181.22C111.931 181.82 113.43 182.047 114.91 181.876C116.325 181.61 117.704 181.181 119.019 180.596L122.961 179.137L130.385 176.41L152.747 168.41L158.865 166.222L160.452 165.658L161.003 165.492C160.832 165.578 160.657 165.655 160.478 165.722L158.904 166.337L152.836 168.654L130.488 177.063L123.076 179.828L119.134 181.3C117.781 181.89 116.363 182.32 114.91 182.58C113.33 182.767 111.73 182.53 110.272 181.893C108.814 181.256 107.552 180.243 106.616 178.958C106.133 178.291 105.741 177.564 105.451 176.794L104.606 174.529C104.043 173.006 103.467 171.47 102.878 169.908C100.561 163.649 98.1164 157.108 95.5948 150.298L93.6876 145.178L92.7148 142.618C92.3488 141.731 92.1118 140.795 92.0108 139.841C91.7972 137.877 92.2478 135.899 93.2908 134.222C94.3432 132.517 95.9328 131.211 97.8092 130.51L138.475 115.457L140.804 114.599C141.576 114.28 142.372 114.023 143.185 113.831C144.79 113.49 146.457 113.597 148.006 114.138C149.554 114.68 150.924 115.636 151.966 116.903C152.897 118.134 153.591 119.528 154.014 121.012L159.787 136.41L164.472 149.21C165.15 151.092 165.752 152.846 166.379 154.458C166.901 155.969 166.994 157.595 166.648 159.156C166.199 161.326 164.922 163.236 163.089 164.481C162.474 164.925 161.791 165.266 161.067 165.492Z" fill="#263238"/>
<path d="M128.388 154.561L109.867 161.409C109.547 161.533 109.206 161.591 108.863 161.581C108.52 161.571 108.183 161.491 107.871 161.348C107.56 161.205 107.28 161 107.049 160.747C106.818 160.493 106.64 160.196 106.526 159.873C106.402 159.553 106.343 159.212 106.354 158.869C106.364 158.526 106.443 158.189 106.587 157.877C106.73 157.565 106.934 157.286 107.188 157.055C107.441 156.824 107.738 156.646 108.062 156.532L126.545 149.684C126.864 149.56 127.205 149.5 127.547 149.51C127.889 149.519 128.226 149.598 128.537 149.74C128.849 149.882 129.129 150.085 129.36 150.337C129.592 150.589 129.771 150.885 129.886 151.207C130.013 151.525 130.075 151.865 130.068 152.208C130.061 152.55 129.986 152.888 129.846 153.2C129.706 153.513 129.505 153.795 129.255 154.028C129.005 154.262 128.71 154.443 128.388 154.561Z" fill="#E0E0E0"/>
<path d="M113.259 166.029C113.41 166.433 113.438 166.872 113.339 167.291C113.24 167.711 113.018 168.091 112.703 168.385C112.387 168.678 111.992 168.871 111.567 168.94C111.141 169.008 110.705 168.949 110.314 168.769C109.922 168.59 109.593 168.298 109.367 167.931C109.141 167.564 109.03 167.138 109.047 166.707C109.063 166.277 109.207 165.861 109.46 165.512C109.714 165.164 110.065 164.898 110.469 164.749C111.009 164.551 111.605 164.574 112.128 164.813C112.651 165.053 113.058 165.491 113.259 166.029Z" fill="#E0E0E0"/>
<path d="M120.209 163.457C120.36 163.86 120.388 164.3 120.289 164.719C120.19 165.138 119.969 165.519 119.653 165.812C119.338 166.105 118.942 166.299 118.517 166.367C118.092 166.435 117.655 166.376 117.264 166.196C116.872 166.017 116.543 165.725 116.317 165.358C116.092 164.991 115.98 164.565 115.997 164.135C116.013 163.704 116.157 163.288 116.411 162.94C116.664 162.591 117.015 162.326 117.419 162.177C117.959 161.978 118.555 162.001 119.078 162.241C119.601 162.481 120.008 162.918 120.209 163.457Z" fill="#E0E0E0"/>
<path d="M126.929 160.961C127.08 161.364 127.108 161.803 127.009 162.223C126.91 162.642 126.688 163.022 126.373 163.316C126.057 163.609 125.662 163.802 125.237 163.871C124.811 163.939 124.375 163.88 123.984 163.7C123.592 163.521 123.263 163.229 123.037 162.862C122.811 162.495 122.7 162.069 122.716 161.639C122.733 161.208 122.877 160.792 123.13 160.444C123.384 160.095 123.734 159.83 124.139 159.681C124.679 159.482 125.275 159.505 125.798 159.745C126.321 159.985 126.728 160.422 126.929 160.961Z" fill="#E0E0E0"/>
<path d="M133.649 158.477C133.796 158.878 133.821 159.314 133.721 159.729C133.621 160.145 133.401 160.521 133.087 160.811C132.773 161.101 132.381 161.292 131.959 161.359C131.537 161.426 131.105 161.367 130.716 161.189C130.328 161.011 130.001 160.722 129.777 160.358C129.553 159.995 129.441 159.573 129.456 159.146C129.472 158.719 129.613 158.306 129.862 157.959C130.112 157.613 130.459 157.347 130.859 157.197C131.126 157.095 131.41 157.048 131.696 157.057C131.982 157.066 132.263 157.133 132.522 157.252C132.782 157.371 133.016 157.541 133.209 157.751C133.403 157.962 133.552 158.209 133.649 158.477Z" fill="#E0E0E0"/>
<path d="M122.27 138.42L103.787 145.268C103.467 145.392 103.126 145.451 102.783 145.44C102.44 145.43 102.103 145.351 101.791 145.207C101.479 145.064 101.2 144.86 100.969 144.606C100.738 144.353 100.56 144.055 100.446 143.732C100.322 143.412 100.263 143.071 100.274 142.728C100.284 142.385 100.363 142.048 100.507 141.736C100.65 141.425 100.854 141.145 101.108 140.914C101.361 140.683 101.658 140.505 101.982 140.391L120.465 133.543C120.785 133.419 121.126 133.36 121.469 133.371C121.812 133.381 122.149 133.46 122.461 133.604C122.772 133.747 123.052 133.951 123.283 134.205C123.514 134.458 123.692 134.756 123.806 135.079C123.93 135.399 123.989 135.74 123.978 136.083C123.968 136.426 123.889 136.763 123.745 137.075C123.602 137.386 123.398 137.666 123.144 137.897C122.891 138.128 122.593 138.306 122.27 138.42Z" fill="#E0E0E0"/>
<path d="M107.127 149.889C107.275 150.29 107.301 150.726 107.201 151.143C107.102 151.559 106.881 151.936 106.567 152.226C106.252 152.517 105.859 152.708 105.437 152.775C105.014 152.842 104.581 152.782 104.192 152.603C103.804 152.424 103.477 152.134 103.253 151.769C103.03 151.404 102.919 150.981 102.936 150.553C102.953 150.126 103.096 149.713 103.348 149.367C103.599 149.021 103.948 148.757 104.349 148.609C104.887 148.41 105.482 148.434 106.003 148.674C106.524 148.914 106.928 149.351 107.127 149.889Z" fill="#455A64"/>
<path d="M114.09 147.316C114.241 147.72 114.269 148.159 114.17 148.578C114.071 148.997 113.849 149.378 113.534 149.671C113.219 149.965 112.823 150.158 112.398 150.226C111.972 150.295 111.536 150.235 111.145 150.056C110.753 149.876 110.424 149.584 110.198 149.217C109.973 148.85 109.861 148.424 109.878 147.994C109.894 147.563 110.038 147.148 110.291 146.799C110.545 146.45 110.896 146.185 111.3 146.036C111.84 145.837 112.436 145.86 112.959 146.1C113.482 146.34 113.889 146.777 114.09 147.316Z" fill="#1C8AFF"/>
<path d="M120.811 144.82C120.962 145.223 120.989 145.663 120.89 146.082C120.791 146.501 120.57 146.882 120.255 147.175C119.939 147.468 119.544 147.662 119.118 147.73C118.693 147.799 118.257 147.739 117.865 147.56C117.474 147.38 117.144 147.088 116.919 146.721C116.693 146.354 116.582 145.928 116.598 145.498C116.615 145.067 116.759 144.651 117.012 144.303C117.265 143.954 117.616 143.689 118.021 143.54C118.56 143.341 119.157 143.364 119.68 143.604C120.203 143.844 120.61 144.281 120.811 144.82Z" fill="#455A64"/>
<path d="M127.53 142.337C127.677 142.738 127.702 143.173 127.602 143.589C127.502 144.004 127.281 144.38 126.968 144.67C126.654 144.96 126.262 145.151 125.84 145.218C125.418 145.286 124.986 145.226 124.597 145.048C124.209 144.87 123.882 144.581 123.658 144.217C123.434 143.854 123.322 143.432 123.337 143.005C123.353 142.578 123.494 142.165 123.743 141.819C123.993 141.472 124.339 141.207 124.739 141.057C125.007 140.956 125.291 140.91 125.576 140.92C125.861 140.93 126.142 140.997 126.401 141.116C126.66 141.235 126.894 141.404 127.087 141.613C127.281 141.823 127.432 142.069 127.53 142.337Z" fill="#1C8AFF"/>
<path d="M95.9785 203.533C95.9785 203.533 124.318 199.578 151.454 186.266C178.59 172.954 186.922 162.471 186.922 162.471L191.902 172.199C191.902 172.199 165.418 200.41 99.0249 213.645C99.0249 213.645 95.2617 206.413 95.9785 203.533Z" fill="#1C8AFF"/>
<path d="M127.953 119.642C128.106 119.897 128.23 120.167 128.324 120.449C128.554 121.05 128.862 121.818 129.246 122.791L132.51 131.431C135.223 138.83 138.91 148.916 143.044 160.052C143.364 160.922 143.671 161.793 143.966 162.612L144.081 162.919L143.774 163.034L116.766 172.737L108.65 175.566L106.436 176.308C106.185 176.411 105.923 176.484 105.655 176.526C105.882 176.382 106.128 176.27 106.385 176.193L108.561 175.335L116.612 172.302L143.492 162.407L143.287 162.83C142.993 162.036 142.686 161.166 142.366 160.27L132.01 131.585C130.73 127.962 129.694 124.993 128.951 122.868L128.145 120.487C128.058 120.211 127.994 119.929 127.953 119.642Z" fill="#263238"/>
<g opacity="0.3">
<path d="M143.658 162.714L143.031 164.417L106.308 178.292L105.655 176.513L143.658 162.714Z" fill="black"/>
</g>
<path d="M146.375 121.902L135.886 125.79C134.786 126.198 134.224 127.421 134.632 128.521L138.521 139.011C138.929 140.111 140.151 140.672 141.252 140.264L151.741 136.376C152.842 135.968 153.403 134.745 152.995 133.645L149.106 123.155C148.698 122.055 147.476 121.494 146.375 121.902Z" fill="#263238"/>
<path d="M155.461 142.81L143.531 146.919C143.279 147.009 143.012 147.047 142.745 147.03C142.478 147.014 142.218 146.944 141.979 146.824C141.739 146.705 141.527 146.538 141.354 146.335C141.181 146.131 141.051 145.894 140.971 145.639C140.88 145.387 140.84 145.12 140.856 144.852C140.871 144.585 140.941 144.323 141.061 144.084C141.18 143.844 141.348 143.631 141.552 143.459C141.757 143.286 141.995 143.157 142.251 143.079L154.181 138.97C154.433 138.881 154.7 138.843 154.967 138.859C155.234 138.875 155.494 138.945 155.734 139.065C155.973 139.184 156.185 139.351 156.358 139.555C156.531 139.758 156.661 139.995 156.741 140.25C156.831 140.502 156.868 140.769 156.852 141.036C156.836 141.303 156.766 141.564 156.646 141.803C156.527 142.042 156.36 142.255 156.156 142.428C155.953 142.601 155.716 142.731 155.461 142.81Z" fill="#263238"/>
<path d="M163.37 148.122C159.809 149.774 156.154 151.218 152.426 152.449C148.777 153.887 145.05 155.121 141.265 156.148C144.825 154.494 148.479 153.049 152.209 151.822C155.857 150.382 159.584 149.147 163.37 148.122Z" fill="#263238"/>
<path d="M152.209 160.794C152.14 161.204 151.951 161.584 151.665 161.886C151.38 162.188 151.012 162.398 150.607 162.491C150.202 162.583 149.778 162.553 149.39 162.405C149.002 162.257 148.667 161.997 148.427 161.658C148.187 161.319 148.052 160.917 148.041 160.502C148.029 160.087 148.141 159.677 148.363 159.326C148.584 158.974 148.905 158.696 149.284 158.527C149.663 158.358 150.084 158.305 150.494 158.375C151.042 158.469 151.53 158.777 151.852 159.23C152.173 159.684 152.302 160.246 152.209 160.794Z" fill="#1C8AFF"/>
<path d="M159.62 158.362C159.574 158.635 159.475 158.895 159.328 159.129C159.181 159.363 158.989 159.566 158.764 159.725C158.539 159.885 158.284 159.999 158.015 160.061C157.746 160.122 157.467 160.13 157.195 160.084C156.922 160.038 156.662 159.938 156.428 159.791C156.194 159.644 155.991 159.453 155.831 159.228C155.672 159.002 155.558 158.748 155.496 158.479C155.435 158.209 155.427 157.931 155.473 157.658C155.566 157.108 155.874 156.618 156.329 156.295C156.784 155.972 157.349 155.843 157.899 155.937C158.449 156.03 158.939 156.338 159.262 156.793C159.585 157.248 159.714 157.812 159.62 158.362Z" fill="#455A64"/>
<path d="M107.589 201.089L111.557 212.033L118.392 210.177L114.296 197.94L107.589 201.089Z" fill="#E0E0E0"/>
<path d="M172.331 173.441L179.345 182.734L185.323 178.945L177.822 168.449L172.331 173.441Z" fill="#E0E0E0"/>
<path d="M184.106 157.965C183.873 158.207 183.62 158.429 183.351 158.631C182.801 159.092 182.071 159.693 181.111 160.449C180.151 161.204 178.935 162.202 177.502 163.252C176.068 164.301 174.455 165.556 172.612 166.823C170.769 168.09 168.772 169.524 166.532 170.945C164.292 172.365 161.924 173.863 159.39 175.412C154.27 178.433 148.548 181.569 142.378 184.551C136.209 187.533 130.154 189.991 124.599 192.077C121.796 193.089 119.159 194.061 116.638 194.842C114.116 195.623 111.774 196.378 109.61 196.993C107.447 197.607 105.489 198.119 103.761 198.58C102.033 199.041 100.548 199.373 99.3193 199.642L96.4905 200.244C96.1675 200.328 95.8377 200.384 95.5049 200.41C95.8128 200.276 96.1349 200.178 96.4649 200.116L99.2553 199.386C100.535 199.092 101.956 198.708 103.671 198.221C105.386 197.735 107.345 197.223 109.482 196.545C111.62 195.866 113.975 195.188 116.458 194.317C118.942 193.447 121.578 192.525 124.382 191.514C129.911 189.389 135.902 186.881 142.084 183.949C148.266 181.018 153.962 177.869 159.07 174.887C161.63 173.351 164.036 171.93 166.225 170.471C168.414 169.012 170.487 167.693 172.343 166.426C174.199 165.159 175.825 163.981 177.284 162.957C178.743 161.933 179.959 161.012 180.958 160.244L183.274 158.529C183.53 158.311 183.809 158.122 184.106 157.965Z" fill="#263238"/>
<path d="M102.788 197.85C102.635 197.94 95.6587 186.138 87.2107 171.482C78.7627 156.826 72.0427 144.884 72.2091 144.794C72.3755 144.705 79.3387 156.493 87.7867 171.149C96.2347 185.805 102.955 197.735 102.788 197.85Z" fill="#263238"/>
<path d="M164.215 106.97C164.446 107.698 164.617 108.442 164.727 109.198C165.034 110.746 165.444 112.807 165.943 115.29C166.98 120.41 168.503 127.514 170.564 135.258C172.624 143.002 174.736 149.927 176.362 154.919C177.156 157.338 177.808 159.322 178.308 160.82C178.585 161.529 178.8 162.262 178.948 163.009C178.599 162.331 178.3 161.63 178.052 160.91C177.514 159.54 176.772 157.543 175.914 155.073C174.173 150.106 171.972 143.182 169.924 135.425C167.876 127.668 166.404 120.551 165.469 115.38C165.008 112.82 164.663 110.695 164.471 109.249C164.326 108.497 164.24 107.735 164.215 106.97Z" fill="#263238"/>
<path d="M134.086 193.807L125.003 196.58L128.169 206.949L137.253 204.176L134.086 193.807Z" fill="#263238"/>
<path d="M134.98 55.1432C130.628 80.7432 106.897 94.6312 81.2971 90.2792C55.6971 85.9272 37.8923 64.9736 42.2443 39.3608C44.4995 27.215 51.4421 16.4438 61.5724 9.37382C71.7027 2.30386 84.2075 -0.49736 96.3858 1.57522C108.564 3.6478 119.438 10.4278 126.66 20.4508C133.881 30.4737 136.87 42.9351 134.98 55.1432Z" fill="#E0E0E0"/>
<path d="M134.98 55.1431C134.98 55.1431 134.98 54.8871 134.98 54.3879C134.98 53.8887 135.108 53.1079 135.198 52.1991C135.198 51.7127 135.313 51.1751 135.377 50.5863C135.441 49.9975 135.377 49.3063 135.377 48.6279C135.445 47.0013 135.402 45.372 135.249 43.7511C135.16 42.8423 135.096 41.8695 134.968 40.8583C134.84 39.8471 134.584 38.8103 134.379 37.7223C134.168 36.5769 133.878 35.4477 133.508 34.3431C133.199 33.1213 132.801 31.9235 132.318 30.7591C130.23 25.2316 127.106 20.1531 123.115 15.7959C115.595 7.44321 105.268 2.14528 94.0972 0.909516C89.9112 0.383618 85.6726 0.439613 81.502 1.07591L78.2892 1.66472C77.2268 1.88232 76.1772 2.25352 75.1148 2.53512L73.5148 2.99591L71.9532 3.61032C70.9164 4.04552 69.854 4.40392 68.83 4.89032C64.6473 6.86816 60.7682 9.43266 57.31 12.5063L54.75 14.9511C53.982 15.8471 53.1884 16.7431 52.4076 17.6391C51.6329 18.5576 50.9107 19.5191 50.2444 20.5191L49.1948 21.9911C48.8748 22.5031 48.5932 23.0407 48.286 23.5655C47.7228 24.6407 47.006 25.6391 46.5452 26.7783L45.1628 30.1703C44.2852 32.4919 43.5793 34.8749 43.0508 37.2999C40.8266 46.8364 41.9849 56.8495 46.3276 65.6263C50.5557 73.6923 57.1416 80.2782 65.2076 84.5063C68.9353 86.4806 72.8839 88.0059 76.9708 89.0503L79.9532 89.6903L81.438 90.0103L82.9228 90.1895L85.854 90.5735C86.8268 90.6503 87.7996 90.6631 88.7596 90.7143C92.4745 90.8478 96.1932 90.5991 99.8572 89.9719L102.417 89.3703C103.285 89.2067 104.14 88.9843 104.977 88.7047C106.585 88.2359 108.163 87.6674 109.7 87.0023C115.153 84.7179 120.067 81.3169 124.126 77.0183C127.206 73.7884 129.712 70.0571 131.537 65.9847C131.925 65.21 132.271 64.4153 132.574 63.6039C132.843 62.8359 133.086 62.1191 133.316 61.4407C133.547 60.7623 133.777 60.1607 133.931 59.5847C134.084 59.0087 134.187 58.4839 134.302 58.0103C134.52 57.0887 134.686 56.3719 134.814 55.8727C134.942 55.3735 135.006 55.1431 135.006 55.1431C135.006 55.1431 135.006 55.3991 134.878 55.8855C134.75 56.3719 134.622 57.1655 134.43 58.0359C134.328 58.5223 134.212 59.0471 134.097 59.6359C133.982 60.2247 133.713 60.8263 133.508 61.5047C133.304 62.1831 133.048 62.9127 132.792 63.6807C132.496 64.5014 132.154 65.3048 131.768 66.0871C129.978 70.2126 127.488 73.9975 124.408 77.2743C120.326 81.6401 115.372 85.0984 109.867 87.4247C108.316 88.1048 106.726 88.6904 105.105 89.1783C104.269 89.4639 103.413 89.6905 102.545 89.8567L99.9852 90.4711C96.2858 91.1284 92.5275 91.3944 88.7724 91.2647C87.7996 91.2647 86.814 91.2647 85.8284 91.1367L82.8588 90.7655L81.3612 90.5735L79.8636 90.2663L76.8556 89.6135C72.7178 88.5644 68.7211 87.0216 64.9516 85.0183C56.7468 80.7571 50.0457 74.0828 45.7516 65.8951C41.3358 56.9856 40.1548 46.818 42.4108 37.1335C42.9585 34.6729 43.6857 32.2558 44.5868 29.9015C45.0988 28.7623 45.6108 27.6359 46.11 26.4967C46.6476 25.3835 47.2414 24.2984 47.8892 23.2455C48.1964 22.7079 48.478 22.1703 48.8108 21.6455L49.8732 20.1479C50.5449 19.1371 51.2758 18.1669 52.062 17.2423L54.4428 14.5031L57.0028 12.0327C60.5043 8.93059 64.4308 6.34447 68.6636 4.35272C69.7004 3.84072 70.7884 3.48232 71.8252 3.07272L73.4124 2.45832L75.038 1.98472C76.1132 1.70312 77.1756 1.31912 78.2636 1.11432L81.5148 0.51272C85.7549 -0.119975 90.0618 -0.167351 94.3148 0.371919C105.608 1.66437 116.034 7.05715 123.614 15.5271C127.626 19.9434 130.755 25.088 132.83 30.6823C133.307 31.8551 133.696 33.0616 133.995 34.2919C134.353 35.4064 134.635 36.544 134.84 37.6967C135.044 38.8103 135.236 39.8599 135.416 40.8711C135.595 41.8823 135.582 42.8679 135.659 43.7895C135.803 45.4196 135.829 47.0581 135.736 48.6919C135.736 49.3959 135.736 50.0487 135.659 50.6503C135.582 51.2519 135.518 51.7767 135.454 52.2631C135.326 53.2103 135.224 53.9399 135.16 54.4519C135.096 54.9639 134.98 55.1431 134.98 55.1431Z" fill="#263238"/>
<g opacity="0.3">
<path d="M103.12 2.48392C103.12 2.48392 50.2308 0.0135057 59.114 57.3831C62.9274 64.5483 69.1934 70.1009 76.7653 73.0247C91.8181 78.7719 117.111 83.2647 133.956 58.5863L134.66 57.0503C134.66 57.0503 143.632 17.6903 103.12 2.48392Z" fill="black"/>
</g>
<path d="M81.8355 66.7271C77.9909 62.8067 74.496 58.558 71.3907 54.0295C68.283 49.4827 66.3522 44.2358 65.7715 38.7591C65.7715 37.9271 65.7715 32.1543 66.5267 31.8727C67.0899 31.6807 67.8067 36.7495 68.2419 37.0823C72.8052 40.5084 76.22 45.24 78.0339 50.6503C79.9008 55.843 81.1886 61.226 81.8739 66.7015" fill="#263238"/>
<path d="M113.541 75.1238C113.541 75.1238 124.971 71.3607 126.814 66.3559C127.993 62.9588 127.865 59.2447 126.456 55.9367C124.165 49.9975 118.456 38.1191 113.157 27.4439C110.412 21.9083 105.684 17.6095 99.9127 15.4035C94.1415 13.1975 87.7511 13.2462 82.0142 15.5399L80.8366 16.0007C68.3822 21.8375 66.3854 35.6742 72.555 48.0006L86.635 75.9175C86.635 75.9175 95.4286 78.1447 101.201 77.5303C105.362 76.9931 109.483 76.1894 113.541 75.1238Z" fill="#FFBF9D"/>
<path d="M114.68 40.5C114.78 40.7259 114.834 40.9693 114.839 41.2161C114.843 41.4629 114.799 41.7083 114.709 41.938C114.619 42.1677 114.483 42.3772 114.312 42.5544C114.14 42.7316 113.934 42.873 113.708 42.9704C113.492 43.0763 113.258 43.1382 113.018 43.1523C112.778 43.1664 112.538 43.1326 112.311 43.0527C112.085 42.9728 111.877 42.8486 111.699 42.6872C111.521 42.5258 111.377 42.3305 111.276 42.1128C111.091 41.6589 111.09 41.1508 111.274 40.6966C111.459 40.2425 111.813 39.878 112.261 39.6808C112.473 39.572 112.705 39.507 112.942 39.4894C113.18 39.4718 113.418 39.5022 113.644 39.5786C113.87 39.655 114.078 39.7759 114.256 39.9342C114.434 40.0924 114.578 40.2849 114.68 40.5Z" fill="#263238"/>
<path d="M112.708 33.8951C112.593 34.2151 110.865 33.7543 108.983 34.5095C107.102 35.2647 106.103 36.7623 105.809 36.6215C105.515 36.4807 105.719 36.0583 106.155 35.3415C106.74 34.4466 107.59 33.7573 108.587 33.3703C109.563 32.9766 110.639 32.9048 111.659 33.1655C112.427 33.4215 112.785 33.7543 112.708 33.8951Z" fill="#263238"/>
<path d="M97.9624 47.911C98.1477 48.3668 98.1485 48.8767 97.9646 49.333C97.7806 49.7893 97.4264 50.1561 96.9768 50.3559C96.7613 50.4618 96.5267 50.5236 96.287 50.5377C96.0472 50.5519 95.8071 50.518 95.5806 50.4382C95.3541 50.3583 95.1458 50.234 94.968 50.0726C94.7901 49.9112 94.6462 49.716 94.5448 49.4983C94.3595 49.0425 94.3587 48.5326 94.5427 48.0763C94.7266 47.62 95.0809 47.2532 95.5304 47.0534C95.746 46.9475 95.9805 46.8857 96.2202 46.8715C96.46 46.8574 96.7002 46.8913 96.9267 46.9711C97.1532 47.051 97.3614 47.1753 97.5393 47.3367C97.7171 47.4981 97.861 47.6933 97.9624 47.911Z" fill="#263238"/>
<path d="M94.43 41.6904C94.302 41.9976 92.5868 41.5496 90.7052 42.3048C88.8236 43.06 87.8124 44.5576 87.518 44.404C87.2236 44.2504 87.4284 43.8408 87.8636 43.124C88.4543 42.2373 89.3033 41.5536 90.2956 41.1655C91.2759 40.7708 92.3565 40.6991 93.3804 40.9608C94.1356 41.2168 94.5068 41.5496 94.43 41.6904Z" fill="#263238"/>
<path d="M106.961 53.4791C107.825 52.7692 108.776 52.1714 109.79 51.6999C110.264 51.4567 110.673 51.1879 110.622 50.8295C110.571 50.4711 110.187 49.9975 109.739 49.5495L106.846 46.4519C102.801 42.0359 99.6523 38.3111 99.8315 38.1575C100.011 38.0039 103.441 41.4471 107.512 45.8375C108.51 46.9255 109.444 47.9751 110.353 48.9735C110.886 49.4347 111.24 50.0692 111.352 50.7655C111.35 50.962 111.302 51.1555 111.214 51.3308C111.125 51.5062 110.997 51.6588 110.839 51.7767C110.602 51.9552 110.344 52.1056 110.072 52.2247C109.09 52.7686 108.045 53.19 106.961 53.4791Z" fill="#263238"/>
<path d="M92.6893 35.572C92.6893 36.148 90.5901 36.3784 88.3501 37.2104C86.1101 38.0424 84.3821 39.1432 83.9597 38.7336C83.7677 38.5288 83.9597 37.9528 84.5997 37.2488C85.4512 36.3689 86.492 35.6949 87.6432 35.2779C88.7944 34.8609 90.0255 34.712 91.2429 34.8424C92.1773 34.9704 92.7021 35.2904 92.6893 35.572Z" fill="#263238"/>
<path d="M110.596 28.327C110.379 28.9158 108.664 29.1078 106.833 29.8502C105.003 30.5926 103.556 31.5398 102.993 31.2454C102.75 31.0918 102.814 30.567 103.326 29.8886C104.052 28.9992 105.002 28.3189 106.078 27.9174C107.135 27.4858 108.291 27.353 109.419 27.5335C110.276 27.6999 110.673 28.0454 110.596 28.327Z" fill="#263238"/>
<path d="M77.1754 56.6406C76.9322 56.6406 67.7674 57.511 71.377 65.7798C74.9866 74.0486 83.0762 68.3398 82.9866 68.0966C82.897 67.8534 77.1754 56.6406 77.1754 56.6406Z" fill="#FFBF9D"/>
<path d="M78.5581 66.4455C78.5581 66.4455 78.4557 66.6119 78.2637 66.8295C77.9835 67.1198 77.604 67.2935 77.2013 67.3159C76.5183 67.2159 75.875 66.9337 75.3389 66.499C74.8028 66.0642 74.3937 65.493 74.1549 64.8455C73.8176 64.1474 73.6468 63.3807 73.6557 62.6055C73.6192 62.312 73.655 62.014 73.7598 61.7374C73.8646 61.4608 74.0354 61.2139 74.2573 61.0183C74.4015 60.8997 74.5825 60.8349 74.7693 60.8349C74.956 60.8349 75.137 60.8997 75.2813 61.0183C75.4861 61.1975 75.5117 61.3895 75.5629 61.3895C75.6141 61.3895 75.6781 61.1719 75.4605 60.8519C75.3233 60.6705 75.1297 60.5399 74.9101 60.4807C74.7608 60.4448 74.606 60.4388 74.4544 60.463C74.3028 60.4871 74.1575 60.541 74.0269 60.6215C73.7131 60.832 73.4603 61.1216 73.294 61.4609C73.1277 61.8002 73.0538 62.1773 73.0797 62.5543C73.0334 63.4357 73.2048 64.3149 73.5789 65.1143C74.3597 66.7527 75.8957 67.9431 77.2397 67.7639C77.4999 67.7396 77.7509 67.6553 77.973 67.5176C78.1951 67.3799 78.3822 67.1926 78.5197 66.9703C78.6349 66.6503 78.5965 66.4455 78.5581 66.4455Z" fill="#FF9A6C"/>
<path d="M101.726 16.1798C102.724 14.8998 96.7981 12.3398 92.8557 12.3398C86.9037 12.3398 78.7757 14.311 74.7309 17.6518C69.9309 21.671 66.5773 26.4454 66.0653 32.679C65.6807 38.9631 66.9751 45.2364 69.8157 50.855C70.5343 52.6375 71.7138 54.1968 73.2333 55.3734C75.1917 56.6534 77.9181 56.8326 78.9421 59.3926C79.2966 60.3384 80.0094 61.1063 80.9261 61.5302C83.1533 62.4518 84.3181 60.1222 84.4973 58.2406C84.8685 54.1958 83.3453 50.2534 81.8477 46.4902C80.9354 43.752 79.5775 41.183 77.8285 38.887C76.8045 37.6838 75.5757 36.6854 74.6285 35.431C74.1103 34.8379 73.7274 34.1392 73.5063 33.3832C73.2853 32.6273 73.2314 31.8323 73.3485 31.0534C73.4356 30.7182 73.5557 30.3923 73.7069 30.0806C74.409 28.564 75.5025 27.2618 76.8748 26.308C78.2471 25.3541 79.8487 24.783 81.5149 24.6534C86.8909 24.2182 95.9021 23.1302 97.2717 20.6214C98.3077 18.9826 98.9961 17.1485 99.2941 15.2326L101.726 16.1798Z" fill="#263238"/>
<g opacity="0.3">
<path d="M134.301 74.5223L80.4258 97.3447C85.3537 99.3653 90.7374 100.011 96.0034 99.2135C101.241 98.3975 106.386 97.0684 111.363 95.2455C115.497 94.0005 119.493 92.3408 123.293 90.2919C127.104 88.2314 130.244 85.122 132.343 81.3319C133.4 79.1986 134.064 76.8916 134.301 74.5223Z" fill="black"/>
</g>
<path d="M73.9117 91.9943L73.1309 90.1639L74.5005 88.6151C74.5005 88.6151 84.4589 91.8535 104.644 85.6967C125.854 79.2967 129.668 69.4279 129.668 69.4279L131.972 68.7495L134.187 73.6903C134.187 73.6903 129.886 88.1287 104.747 94.7079C92.4845 97.9079 85.1757 98.0743 80.9133 97.3959C79.3787 97.1781 77.9269 96.5658 76.6996 95.6191C75.4724 94.6723 74.5118 93.4234 73.9117 91.9943Z" fill="#E0E0E0"/>
<path d="M73.9107 91.9942C73.9107 91.9942 74.1155 92.4422 74.6275 93.2742C75.3651 94.4162 76.3492 95.3785 77.5075 96.0902C78.3446 96.5933 79.2562 96.9606 80.2083 97.1782C81.3617 97.3939 82.5298 97.5223 83.7026 97.5622C86.5665 97.6415 89.4318 97.4702 92.2659 97.0502C95.7116 96.5524 99.1295 95.8773 102.506 95.0278C106.384 94.0845 110.184 92.8435 113.872 91.3158C117.959 89.6533 121.784 87.407 125.226 84.647C127.035 83.1856 128.695 81.5477 130.179 79.7574C131.707 77.935 132.931 75.8775 133.802 73.6646V73.895L133.354 72.8582L131.626 68.8774L132.023 69.0566L129.719 69.7478L129.936 69.5558C129.115 71.1841 128.039 72.6706 126.749 73.959C125.529 75.2234 124.201 76.3797 122.781 77.415C120.075 79.3848 117.171 81.0665 114.115 82.4326C108.707 84.8288 103.066 86.6645 97.2834 87.911C86.8642 90.215 78.557 89.9334 74.4226 88.7174H74.5379L73.1554 90.2406V90.1638L73.7058 91.559C73.7693 91.7083 73.8207 91.8624 73.8595 92.0198C73.7688 91.8825 73.6917 91.7368 73.6291 91.5846C73.4755 91.2518 73.2706 90.8038 73.0146 90.215L74.2946 88.6534C78.3906 89.7286 86.6467 89.9334 96.9763 87.527C102.693 86.2493 108.268 84.4011 113.616 82.0102C116.618 80.642 119.474 78.9738 122.141 77.031C123.515 76.0108 124.799 74.8761 125.981 73.639C127.214 72.4084 128.247 70.9916 129.04 69.4406L129.104 69.287H129.245L131.549 68.6086L131.831 68.519L131.959 68.7878C132.509 70.0678 133.085 71.3478 133.661 72.7302L134.109 73.7542V73.8822V73.9846C132.197 78.4484 129.164 82.3419 125.303 85.287C121.811 88.0768 117.93 90.3408 113.783 92.007C110.044 93.5335 106.193 94.7661 102.263 95.6934C98.8862 96.5227 95.468 97.1722 92.0226 97.639C89.1563 98.033 86.2609 98.1743 83.3699 98.0614C82.1821 98.0071 81.0007 97.8573 79.8371 97.6134C78.6692 97.3366 77.5689 96.828 76.6015 96.1178C75.634 95.4076 74.8191 94.5103 74.205 93.479C74.0448 92.9985 73.9459 92.4996 73.9107 91.9942Z" fill="#263238"/>
<path d="M103.121 2.48395C103.121 2.48395 104.798 3.03434 107.793 4.36554L110.277 5.53034L113.157 7.13034C114.181 7.74474 115.243 8.41035 116.382 9.19114C117.521 9.97194 118.686 10.7911 119.813 11.8151C125.49 16.4833 129.867 22.5362 132.523 29.3895C134.144 33.5615 135.178 37.9382 135.595 42.3943C136.09 47.3148 135.875 52.2809 134.955 57.14L134.251 58.6759C129.778 65.4371 123.542 70.8462 116.216 74.3176C108.073 77.7063 99.1181 78.645 90.4495 77.0183C86.3663 76.3259 82.3526 75.2722 78.4559 73.8695C70.8286 71.4338 64.3057 66.3841 60.0367 59.6103C59.7807 59.2135 59.5247 58.8039 59.3071 58.3943L58.9615 57.7671L58.8719 57.6135C58.8719 57.6135 58.7951 57.3959 58.8719 57.4727V57.3831V57.0247C58.7567 56.1031 58.6543 55.1687 58.5519 54.2471C58.2959 52.4039 58.2319 50.5735 58.1295 48.7559C58.0271 46.9383 58.1295 45.1463 58.1295 43.3799C58.1295 41.6135 58.3599 39.8727 58.5007 38.1575C58.6415 37.3127 58.7695 36.4679 58.8975 35.5975L59.1023 34.3175L59.3839 33.0375C59.5802 32.1842 59.7722 31.3778 59.9599 30.6183C60.2159 29.8375 60.4719 29.0567 60.7151 28.2887C60.8559 27.9047 60.9583 27.5207 61.0991 27.1495L61.5727 26.0359C61.8927 25.3191 62.1615 24.5767 62.5199 23.8727C63.1469 22.5164 63.8565 21.1998 64.6447 19.9303C65.4322 18.7023 66.2868 17.5187 67.2047 16.3847C68.1348 15.325 69.1219 14.3166 70.1615 13.3639C71.1478 12.4561 72.1818 11.6016 73.2591 10.8039C74.3471 10.0743 75.3839 9.31914 76.4719 8.73034C78.4849 7.5563 80.5912 6.55022 82.7695 5.72235C86.2592 4.41017 89.8817 3.48307 93.5727 2.95754C95.8999 2.61301 98.2475 2.42486 100.6 2.39435C101.406 2.39435 102.021 2.39435 102.43 2.39435H100.6C98.2588 2.48802 95.9252 2.71881 93.6111 3.08554C89.973 3.70195 86.4114 4.70607 82.9871 6.08074C80.8361 6.91977 78.7558 7.92994 76.7663 9.10155C75.6911 9.69035 74.6799 10.4583 73.6047 11.1751C72.5414 11.9699 71.5243 12.8246 70.5583 13.7351C69.5272 14.6747 68.5487 15.6703 67.6271 16.7175C66.7086 17.8376 65.8539 19.0086 65.0671 20.2247C64.2425 21.4886 63.4945 22.8009 62.8271 24.1543C62.4943 24.8455 62.2255 25.5879 61.9055 26.3047L61.4447 27.3927C61.3167 27.7639 61.2015 28.1479 61.0735 28.5191C60.8303 29.2871 60.5871 30.0423 60.3311 30.8231C60.0751 31.6039 59.9599 32.4103 59.7807 33.2167L59.4991 34.4199L59.3071 35.6999L58.9231 38.2599C58.7823 39.9495 58.6031 41.6775 58.5647 43.3799C58.5263 45.0823 58.4495 46.9127 58.5647 48.7047C58.6799 50.4967 58.7311 52.3271 58.9871 54.1576C59.1023 55.0663 59.2047 55.9879 59.3071 56.9223V57.2679V57.3576C59.3071 57.4599 59.3071 57.2551 59.3071 57.2935L59.3967 57.4471L59.7423 58.0487C59.9599 58.4583 60.2159 58.8551 60.4591 59.2519C64.6335 65.9204 71.0234 70.9055 78.5071 73.3319C82.3666 74.7186 86.3417 75.7595 90.3855 76.4423C98.9268 78.0542 107.753 77.1378 115.781 73.8055C123.005 70.4046 129.162 65.0931 133.585 58.4455C133.841 57.9079 134.085 57.3703 134.289 56.9095C135.212 52.1158 135.436 47.2139 134.955 42.3559C134.568 37.9466 133.569 33.6126 131.985 29.4791C129.379 22.6886 125.084 16.675 119.505 12.0071C118.392 10.9831 117.176 10.2023 116.126 9.35754C115.077 8.51274 113.937 7.91115 112.939 7.28395L110.085 5.67114L107.64 4.39114C106.181 3.64875 104.99 3.23914 104.222 2.88074L103.339 2.49674L103.121 2.48395Z" fill="#263238"/>
<path d="M63.1724 56.6791C64.3244 60.5191 62.558 64.5127 59.2172 65.4983C55.8764 66.4839 52.2156 64.2182 51.0636 60.2886C49.9116 56.359 51.6908 52.4678 55.0316 51.4694C58.3724 50.471 62.0204 52.8135 63.1724 56.6791Z" fill="#E0E0E0"/>
<path d="M63.1715 56.6791C63.1715 56.6791 62.9411 56.1159 62.4163 55.1943C61.6866 53.8811 60.5812 52.8158 59.2419 52.1351C58.3276 51.6877 57.3144 51.4807 56.2979 51.5335C55.1452 51.6084 54.0484 52.0578 53.1747 52.8135C52.2525 53.7697 51.6008 54.9537 51.2863 56.2444C50.9718 57.5351 51.0057 58.8862 51.3845 60.1595C51.7634 61.4328 52.4736 62.5826 53.4426 63.4914C54.4116 64.4002 55.6046 65.0354 56.8995 65.3319C58.0488 65.4928 59.2194 65.282 60.2403 64.7303C61.113 64.2137 61.8432 63.4878 62.3651 62.6183C63.1078 61.3072 63.4546 59.8088 63.3635 58.3047C63.2867 57.2423 63.1075 56.6663 63.1715 56.6407C63.2355 56.6151 63.2611 56.7815 63.3507 57.0503C63.4785 57.468 63.5685 57.8964 63.6195 58.3303C63.8225 59.9002 63.5269 61.4942 62.7747 62.8871C62.2399 63.8579 61.4584 64.6703 60.5091 65.2423C59.394 65.8843 58.0983 66.1408 56.8227 65.9719C55.3997 65.6774 54.083 65.0032 53.0122 64.021C51.9413 63.0387 51.1563 61.7849 50.7403 60.3926C50.3243 59.0003 50.2929 57.5214 50.6494 56.1127C51.0058 54.7039 51.7369 53.418 52.7651 52.3911C53.7417 51.5476 54.9709 51.0523 56.2595 50.9831C57.3672 50.9462 58.4654 51.1976 59.4467 51.7127C60.8418 52.4633 61.9623 53.6376 62.6467 55.0663C62.8336 55.4479 62.9836 55.8465 63.0947 56.2567C63.1715 56.5255 63.1971 56.6791 63.1715 56.6791Z" fill="#263238"/>
<path d="M125.47 26.7271C122.218 16.4871 113.374 7.89835 102.775 6.13195C102.16 5.97814 101.51 6.06515 100.958 6.37515C100.609 6.58274 100.326 6.88293 100.138 7.24228C99.9505 7.60163 99.8664 8.006 99.8952 8.41034C100.369 12.2503 109.61 12.6471 113.194 16.6023C116.778 20.5575 119.185 24.9991 121.898 29.5943C122.308 30.2983 122.807 31.0663 123.601 31.2327C124.095 31.2816 124.59 31.1468 124.991 30.8541C125.393 30.5613 125.672 30.1312 125.777 29.6455C125.949 28.6631 125.843 27.6521 125.47 26.7271Z" fill="white"/>
<path d="M132.036 69.1336C131.98 69.3539 131.903 69.5683 131.806 69.7736C131.626 70.1832 131.358 70.772 130.948 71.5144C129.786 73.611 128.334 75.5329 126.634 77.2232C125.461 78.3774 124.174 79.4108 122.794 80.308C121.223 81.3642 119.595 82.3342 117.918 83.2136C114.093 85.2566 110.081 86.9283 105.937 88.2056C101.784 89.437 97.5555 90.3948 93.2776 91.0728C89.7941 91.716 86.26 92.0458 82.7176 92.0584C80.3217 92.0691 77.9356 91.7504 75.6264 91.1112C75.0043 90.9289 74.3931 90.711 73.796 90.4584C73.5784 90.3897 73.3715 90.2906 73.1816 90.164C73.1816 90.1 74.0776 90.4584 75.7416 90.868C78.0413 91.3961 80.3969 91.6411 82.756 91.5976C86.267 91.5104 89.7647 91.1337 93.2136 90.4712C97.454 89.7569 101.647 88.7866 105.77 87.5656C109.838 86.2906 113.78 84.6453 117.546 82.6504C119.304 81.7288 120.926 80.7858 122.41 79.8215C123.785 78.965 125.071 77.9746 126.25 76.8648C127.954 75.2284 129.438 73.3784 130.666 71.3607C131.626 69.9527 131.972 69.108 132.036 69.1336Z" fill="#263238"/>
<path d="M108.933 57.9976C108.629 57.7966 108.273 57.6895 107.908 57.6895C107.544 57.6895 107.188 57.7966 106.884 57.9976C106.587 58.2047 106.353 58.4903 106.209 58.8225C106.064 59.1546 106.014 59.5204 106.065 59.8792C106.121 60.2357 106.268 60.5718 106.492 60.8545C106.717 61.1371 107.011 61.3568 107.345 61.492C107.73 61.6517 108.155 61.6832 108.559 61.5817C108.962 61.4803 109.322 61.2513 109.585 60.9288C109.83 60.4395 109.898 59.8811 109.779 59.3472C109.66 58.8134 109.361 58.3368 108.933 57.9976Z" fill="#FF9A6C"/>
<path d="M109.688 60.7879C109.688 60.7879 109.598 61.3511 108.856 61.8119C108.628 61.9502 108.373 62.0388 108.109 62.0719C107.844 62.105 107.575 62.0818 107.32 62.0039C106.757 61.7398 106.304 61.2869 106.04 60.7239C105.744 60.1623 105.645 59.5179 105.758 58.8935C105.899 58.3687 106.227 57.9134 106.68 57.6135C106.98 57.4467 107.324 57.3752 107.666 57.4087C107.883 57.4087 108.011 57.4087 108.011 57.5111C108.011 57.6135 107.474 57.6263 106.949 58.0103C106.662 58.2706 106.458 58.6086 106.36 58.9831C106.325 59.4651 106.422 59.9476 106.642 60.3783C106.846 60.8161 107.188 61.1755 107.614 61.4023C107.963 61.5439 108.354 61.5439 108.702 61.4023C109.304 61.1207 109.598 60.7239 109.688 60.7879Z" fill="#263238"/>
<path d="M142.213 70.196C142.661 69.8248 159.198 64.4488 172.075 69.7864C180.152 73.1272 197.816 82.9832 210.002 94.9384C222.187 106.894 243.192 131.546 243.819 134.759C244.182 136.712 244.018 138.727 243.346 140.596L249.682 152.116L232.478 166.094L224.299 157.838C224.299 157.838 219.781 157.838 213.957 151.834C208.133 145.831 196.037 125.441 188.6 120.295C181.163 115.15 156.869 105.345 154.731 104.858C152.594 104.372 142.213 70.196 142.213 70.196Z" fill="#E0E0E0"/>
<path d="M226.115 159.629C227.048 158.65 228.053 157.743 229.123 156.916C231.043 155.277 233.744 153.076 236.803 150.516V150.977L235.19 148.993L234.576 148.237H235.037C231.53 150.797 228.368 153.153 226.077 154.791C224.925 155.61 223.99 156.263 223.338 156.698L222.582 157.197C222.48 157.197 222.454 157.313 222.326 157.287C222.326 157.287 222.326 157.287 222.429 157.287C222.531 157.287 222.429 157.197 222.544 157.108L223.235 156.532C223.837 156.02 224.72 155.252 225.795 154.458C228.022 152.717 231.133 150.349 234.627 147.738L234.883 147.546L235.088 147.789L235.702 148.557C236.253 149.236 236.79 149.901 237.315 150.529L237.52 150.785L237.264 150.989C234.154 153.549 231.402 155.687 229.405 157.236C228.374 158.12 227.274 158.921 226.115 159.629Z" fill="#263238"/>
<path d="M246.994 146.727C244.123 149.496 241.098 152.098 237.931 154.522C234.904 157.125 231.733 159.557 228.434 161.806C231.311 159.04 234.34 156.437 237.509 154.01C240.535 151.411 243.701 148.979 246.994 146.727Z" fill="#263238"/>
<path d="M203.64 89.1911C202.98 90.2525 202.235 91.2585 201.413 92.1991C199.992 94.0167 198.033 96.5255 195.973 99.3671C194.488 101.402 193.144 103.335 192.03 104.948L191.889 105.153L191.685 105.05C190.072 104.282 188.741 103.63 187.845 103.156C187.345 102.938 186.873 102.663 186.437 102.337C186.974 102.443 187.494 102.619 187.985 102.861C188.945 103.245 190.315 103.822 191.941 104.538L191.595 104.641C192.645 102.977 193.963 101.018 195.435 98.9703C197.509 96.1159 199.531 93.6455 201.054 91.8919C201.825 90.9086 202.691 90.0039 203.64 89.1911Z" fill="#263238"/>
<path d="M197.099 84.6088C196.621 85.5152 196.055 86.3726 195.409 87.1688C194.334 88.692 192.849 90.8168 191.3 93.2104C189.752 95.604 188.446 97.844 187.46 99.4696C187.001 100.37 186.461 101.226 185.848 102.03C186.13 101.046 186.529 100.101 187.038 99.2136C189.261 94.8326 191.924 90.6896 194.987 86.8488C195.596 86.0177 196.305 85.2653 197.099 84.6088Z" fill="#263238"/>
<path d="M195.626 82.8167C195.42 83.2743 195.158 83.7043 194.845 84.0967C194.295 84.8647 193.565 85.9911 192.592 87.3863C190.151 91.0156 187.932 94.79 185.949 98.6887C183.978 102.596 182.242 106.618 180.752 110.734C180.176 112.321 179.741 113.601 179.472 114.497C179.357 114.976 179.176 115.437 178.935 115.866C178.98 115.375 179.079 114.89 179.229 114.42C179.447 113.498 179.831 112.193 180.343 110.58C181.739 106.394 183.45 102.321 185.463 98.3943C187.449 94.4658 189.734 90.6957 192.298 87.1175C193.296 85.7479 194.128 84.6599 194.743 83.9431C194.993 83.5348 195.289 83.1569 195.626 82.8167Z" fill="#263238"/>
<path d="M188.69 80.8839C188.779 80.8839 187.41 82.5095 185.567 85.1591C180.553 92.0496 176.609 99.6575 173.867 107.726C172.818 110.81 172.293 112.769 172.178 112.743C172.21 112.267 172.291 111.795 172.421 111.335C172.613 110.439 172.946 109.146 173.419 107.572C175.938 99.3616 179.919 91.6735 185.17 84.8775C186.181 83.5975 187.039 82.5607 187.666 81.8823C188.293 81.2039 188.651 80.8455 188.69 80.8839Z" fill="#263238"/>
<g opacity="0.3">
<path d="M184.17 75.9688C181.085 82.4456 178.858 86.2856 175.773 92.7624C175.723 93.0013 175.611 93.2228 175.448 93.4048C175.285 93.5867 175.077 93.7227 174.845 93.7991C174.613 93.8756 174.365 93.8898 174.126 93.8404C173.887 93.791 173.665 93.6797 173.482 93.5176L166.34 90.2536C165.734 90.0369 165.193 89.6716 164.765 89.1912C164.303 88.3995 164.153 87.4639 164.343 86.5672C165.128 80.3939 167.318 74.4826 170.743 69.2872C170.743 69.2872 173.303 70.2088 177.386 72.2184C179.711 73.3506 181.975 74.6024 184.17 75.9688Z" fill="black"/>
</g>
<path d="M251.448 154.753L234.053 168.833C233.892 168.967 233.706 169.068 233.505 169.129C233.304 169.19 233.093 169.21 232.885 169.189C232.676 169.168 232.474 169.105 232.29 169.004C232.106 168.903 231.944 168.767 231.813 168.602C231.681 168.44 231.581 168.254 231.521 168.053C231.461 167.853 231.441 167.643 231.462 167.434C231.484 167.226 231.546 167.024 231.646 166.84C231.746 166.656 231.881 166.494 232.044 166.362L249.452 152.282C249.614 152.15 249.802 152.052 250.003 151.993C250.203 151.934 250.414 151.915 250.622 151.938C250.831 151.96 251.032 152.024 251.216 152.125C251.399 152.226 251.561 152.362 251.692 152.526C251.954 152.853 252.076 153.272 252.03 153.689C251.985 154.107 251.775 154.489 251.448 154.753Z" fill="#263238"/>
<path d="M233.708 168.308C233.708 168.308 233.298 176.308 234.988 180.673C236.677 185.037 238.175 188.212 240.684 188.737C243.193 189.261 244.921 188.135 244.165 185.908C243.41 183.681 242.041 182.708 242.041 179.674C242.041 176.641 242.693 175.924 242.693 175.924C242.693 175.924 249.093 181.441 249.157 183.885C249.221 186.33 246.751 193.178 250.437 193.242C254.124 193.306 255.788 188.89 255.788 188.89C255.788 188.89 259.922 190.388 261.573 185.537C262.93 184.591 263.97 183.258 264.557 181.712C265.143 180.166 265.25 178.479 264.863 176.871C264.863 176.871 268.575 174.516 266.732 171.098C264.131 166.679 260.882 162.675 257.093 159.22C255.553 157.997 253.937 156.873 252.255 155.853C252.114 155.687 250.783 153.921 250.783 153.921L233.708 168.308Z" fill="#263238"/>
<path d="M254.289 176.218C255.637 177.966 256.482 180.048 256.733 182.241C256.983 184.434 256.629 186.653 255.71 188.66C256.674 184.472 256.172 180.081 254.289 176.218Z" fill="#455A64"/>
<path d="M257.759 170.663C257.759 170.663 258.488 171.188 259.32 172.365C261.498 175.475 262.488 179.263 262.111 183.041C262.093 183.825 261.91 184.597 261.573 185.306C261.764 182.733 261.578 180.146 261.023 177.626C260.268 175.163 259.169 172.819 257.759 170.663Z" fill="#455A64"/>
<path d="M259.512 167.245C260.981 168.494 262.164 170.044 262.981 171.789C263.998 173.429 264.657 175.266 264.914 177.178C264.722 177.178 263.89 174.836 262.354 172.058C260.818 169.281 259.359 167.373 259.512 167.245Z" fill="#455A64"/>
<path d="M259.281 161.793C259.219 162.178 259.094 162.55 258.91 162.894C258.472 163.872 257.963 164.818 257.387 165.722C255.338 168.764 252.917 171.537 250.18 173.978L249.937 174.183L249.72 173.966C248.695 172.905 247.614 171.901 246.481 170.958C245.228 169.91 243.916 168.936 242.552 168.039L242.206 167.822L242.5 167.54C245.026 165.094 247.402 162.5 249.617 159.77C251.281 157.735 252.177 156.481 252.28 156.532C252.13 156.873 251.941 157.195 251.716 157.492C251.332 158.106 250.731 158.964 249.937 160.052C247.811 162.882 245.475 165.547 242.948 168.026V167.527C244.349 168.423 245.691 169.406 246.968 170.471C248.11 171.436 249.204 172.457 250.244 173.53H249.784C252.505 171.143 254.952 168.46 257.08 165.53C258.577 163.29 259.192 161.754 259.281 161.793Z" fill="#455A64"/>
<path d="M243.5 184.794C243.5 184.974 242.04 184.551 240.748 185.447C239.455 186.343 239.352 187.828 239.173 187.79C238.994 187.751 238.968 187.431 239.084 186.842C239.246 186.054 239.704 185.358 240.364 184.897C241.026 184.443 241.835 184.255 242.629 184.372C243.231 184.487 243.525 184.718 243.5 184.794Z" fill="#455A64"/>
<path d="M253.982 191.694C253.79 191.694 253.482 190.081 251.998 188.903C251.031 188.287 249.959 187.853 248.836 187.623C248.836 187.534 249.246 187.393 249.924 187.431C250.833 187.505 251.699 187.849 252.411 188.42C253.122 188.99 253.647 189.76 253.918 190.631C254.11 191.246 254.058 191.681 253.982 191.694Z" fill="#455A64"/>
<path d="M252.011 154.51C249.167 157.171 246.176 159.671 243.051 161.998C240.059 164.495 236.926 166.82 233.669 168.961C236.513 166.299 239.504 163.799 242.629 161.473C245.621 158.974 248.753 156.649 252.011 154.51Z" fill="#455A64"/>
<path d="M196.177 128.397C206.865 124.365 216.657 116.481 220.702 105.805L217.208 101.965C215.221 107.337 211.976 112.154 207.745 116.014C203.514 119.873 198.419 122.663 192.888 124.148L196.177 128.397Z" fill="#1C8AFF"/>
<path d="M215.147 99.7639C215.044 100.207 214.889 100.637 214.686 101.044C214.208 102.153 213.652 103.227 213.022 104.257C210.926 107.661 208.274 110.69 205.176 113.217C202.085 115.744 198.703 117.893 195.102 119.617C193.732 120.282 192.542 120.782 191.8 121.089C191.392 121.282 190.962 121.424 190.52 121.511C190.52 121.409 192.196 120.628 194.872 119.194C198.374 117.369 201.681 115.19 204.74 112.692C207.783 110.183 210.436 107.237 212.612 103.95C214.264 101.441 215.032 99.7127 215.147 99.7639Z" fill="#263238"/>
<path d="M223.338 109.697C223.237 110.141 223.082 110.57 222.877 110.977C222.397 112.089 221.841 113.167 221.213 114.202C219.117 117.607 216.465 120.636 213.367 123.162C210.274 125.687 206.893 127.835 203.293 129.562C201.911 130.228 200.733 130.727 199.991 131.034C199.582 131.223 199.152 131.365 198.711 131.457C198.711 131.354 200.388 130.574 203.063 129.14C206.56 127.305 209.866 125.127 212.932 122.638C215.971 120.126 218.624 117.18 220.804 113.895C222.506 111.374 223.223 109.646 223.338 109.697Z" fill="#263238"/>
<path d="M146.231 69.0567C146.396 69.6857 146.503 70.3284 146.551 70.9767C146.692 72.2567 146.974 73.9847 147.409 76.1607C147.918 78.7024 148.594 81.2081 149.431 83.6615C150.472 86.6624 151.757 89.5734 153.271 92.3655C154.818 95.1403 156.585 97.7857 158.558 100.276C160.183 102.297 161.945 104.204 163.831 105.985C165.444 107.495 166.801 108.673 167.787 109.441C168.307 109.827 168.795 110.255 169.246 110.721C168.672 110.423 168.128 110.071 167.62 109.671C166.186 108.649 164.814 107.542 163.511 106.356C161.558 104.605 159.74 102.71 158.071 100.685C156.052 98.1852 154.249 95.5175 152.682 92.7111C151.15 89.8836 149.865 86.9285 148.842 83.8791C148.036 81.3855 147.416 78.8355 146.987 76.2503C146.662 74.5159 146.444 72.7633 146.334 71.0023C146.243 70.358 146.209 69.707 146.231 69.0567Z" fill="#263238"/>
<path d="M157.226 67.4567C157.299 68.0554 157.325 68.6588 157.303 69.2615C157.303 70.4135 157.303 72.0903 157.495 74.1383C157.687 76.1863 157.905 78.6439 158.327 81.3319C158.828 84.2401 159.482 87.1198 160.286 89.9591C161.131 92.7902 162.122 95.5758 163.255 98.3047C164.343 100.865 165.406 103.015 166.404 104.82C167.402 106.625 168.234 108.071 168.862 109.044C169.208 109.538 169.504 110.065 169.745 110.618C169.341 110.174 168.973 109.699 168.644 109.198C167.953 108.263 167.044 106.842 165.994 105.05C164.772 102.947 163.669 100.776 162.692 98.5479C161.508 95.8129 160.491 93.0089 159.646 90.1511C158.833 87.2818 158.192 84.3668 157.726 81.4215C157.356 79.0173 157.121 76.5943 157.022 74.1639C156.934 72.5309 156.934 70.8945 157.022 69.2615C157.023 68.6542 157.092 68.049 157.226 67.4567Z" fill="#263238"/>
<path d="M206.122 191.86C206.122 191.86 212.522 188.263 216.362 190.311C220.202 192.359 236.343 203.93 235.562 206.004C234.781 208.077 233.68 212.762 233.68 212.762L206.122 191.86Z" fill="#455A64"/>
<path d="M207.301 336.154C207.122 335.527 191.877 315.674 191.877 315.674L179.563 288.794L173.163 270.439C173.163 270.439 176.734 266.407 170.859 262.759L168.747 252.711L99.2817 213.697C99.2817 213.697 98.1809 239.476 108.958 250.215C112.197 253.454 116.971 276.788 124.318 290.074C131.666 303.361 148.907 325.991 151.109 330.343C153.31 334.695 172.587 358.682 180.267 366.273C189.419 375.233 206.072 394.625 206.072 394.625L230.763 375.425C230.763 375.425 207.493 336.781 207.301 336.154Z" fill="#E0E0E0"/>
<path d="M208.157 192.628C209.54 192.628 247.236 219.905 253.93 228.609C260.625 237.313 268.484 262.964 269.713 267.828C270.941 272.692 284.727 334.593 285.073 336.321C285.418 338.049 271.428 352.244 256.273 349.479L245.265 328.41C245.265 328.41 233.015 305.805 230.545 299.034L228.061 292.263L218.244 269.223L207.428 257.831C206.501 257.519 205.666 256.983 204.996 256.271C204.326 255.559 203.842 254.692 203.588 253.748L196.727 246.516L182.212 242.881C182.212 242.881 176.042 232.884 179.05 214.721C182.058 196.557 197.508 183.092 197.508 183.092L208.157 192.628Z" fill="#E0E0E0"/>
<path d="M138.282 311.77C138.588 311.209 138.986 310.703 139.46 310.273C140.641 309.015 141.925 307.859 143.3 306.817C147.918 303.426 152.978 300.683 158.34 298.663C159.914 298.1 161.425 297.486 162.948 297.038C164.408 296.595 165.89 296.232 167.389 295.95C169.925 295.481 172.492 295.199 175.069 295.105C176.801 295.021 178.536 295.029 180.266 295.13C180.906 295.127 181.543 295.208 182.161 295.374C182.161 295.374 181.482 295.374 180.253 295.374C179.025 295.374 177.271 295.374 175.133 295.514C172.593 295.671 170.066 295.996 167.569 296.487C164.504 297.123 161.505 298.04 158.609 299.226C153.302 301.231 148.263 303.884 143.607 307.124C142.211 308.13 140.878 309.22 139.613 310.388C138.756 311.233 138.321 311.77 138.282 311.77Z" fill="#263238"/>
<path d="M141.932 316.89C147.868 311.144 154.94 306.701 162.693 303.847C169.667 301.386 176.929 299.837 184.3 299.239L185.912 302.746C185.912 302.746 171.141 305.652 165.061 307.866C157.484 310.682 144.287 320.218 144.287 320.218L141.932 316.89Z" fill="#1C8AFF"/>
<path d="M203.307 253.94C203.322 253.218 203.399 252.498 203.537 251.789C203.635 250.953 203.785 250.124 203.985 249.306C204.215 248.346 204.42 247.233 204.804 246.042C205.165 244.741 205.592 243.459 206.084 242.202C206.558 240.82 207.249 239.399 207.94 237.901C209.537 234.702 211.431 231.659 213.598 228.813C215.816 226.006 218.288 223.41 220.983 221.057C222.263 220.02 223.454 218.996 224.67 218.189C225.768 217.386 226.909 216.642 228.087 215.962C229.04 215.374 230.023 214.835 231.031 214.349C231.773 213.95 232.538 213.595 233.323 213.287C233.976 212.98 234.652 212.723 235.345 212.519C234.739 212.905 234.101 213.239 233.438 213.517C232.811 213.812 232.043 214.183 231.198 214.682C230.353 215.181 229.342 215.668 228.331 216.359C227.319 217.05 226.142 217.741 224.99 218.637C223.838 219.533 222.635 220.481 221.38 221.517C218.744 223.864 216.316 226.433 214.123 229.197C211.987 232.014 210.103 235.012 208.491 238.157C207.787 239.629 207.095 241.012 206.596 242.381C206.097 243.751 205.611 244.941 205.227 246.221C204.843 247.501 204.587 248.474 204.331 249.421C204.093 250.228 203.905 251.049 203.767 251.879C203.656 252.575 203.502 253.263 203.307 253.94Z" fill="#263238"/>
<path d="M207.852 258.01C207.866 257.288 207.943 256.569 208.082 255.86C208.185 255.024 208.339 254.194 208.543 253.377C208.757 252.275 209.03 251.185 209.362 250.113C209.722 248.811 210.149 247.53 210.642 246.273C211.128 244.878 211.82 243.47 212.498 241.972C214.104 238.775 216.003 235.732 218.168 232.884C220.375 230.071 222.844 227.474 225.541 225.127C226.821 224.09 228.012 223.066 229.24 222.26C230.329 221.449 231.466 220.705 232.645 220.033C233.695 219.354 234.719 218.881 235.589 218.42C236.334 218.017 237.103 217.663 237.893 217.358C238.542 217.05 239.214 216.793 239.903 216.59C239.295 216.973 238.657 217.307 237.996 217.588C237.368 217.882 236.613 218.254 235.768 218.753C234.924 219.252 233.912 219.738 232.888 220.43C231.741 221.132 230.631 221.893 229.56 222.708C228.37 223.527 227.205 224.551 225.951 225.588C220.616 230.249 216.234 235.9 213.048 242.228C212.357 243.7 211.653 245.082 211.167 246.439C210.645 247.695 210.188 248.977 209.797 250.279C209.375 251.444 209.144 252.532 208.888 253.479C208.632 254.426 208.453 255.258 208.325 255.937C208.226 256.64 208.067 257.334 207.852 258.01Z" fill="#263238"/>
<path d="M110.238 236.993L105.361 227.06L162.782 198.068L195.102 182.708L198.366 184.858L182.174 242.932L172.446 247.591L169.617 253.774L109.547 238.836" fill="#E0E0E0"/>
<path d="M201.439 187.61C200.852 188.122 200.236 188.601 199.595 189.044C197.904 190.331 196.297 191.725 194.783 193.217C189.766 198.129 185.944 204.127 183.609 210.749C181.275 217.371 180.491 224.44 181.317 231.412C181.565 233.523 181.941 235.618 182.443 237.684C182.672 238.432 182.855 239.193 182.994 239.962C182.994 239.962 182.891 239.783 182.751 239.399C182.61 239.015 182.405 238.478 182.2 237.748C181.607 235.695 181.179 233.597 180.92 231.476C179.95 224.426 180.677 217.246 183.042 210.533C185.406 203.821 189.339 197.77 194.514 192.884C196.06 191.428 197.716 190.092 199.467 188.89C200.082 188.442 200.594 188.161 200.927 187.943C201.259 187.725 201.426 187.61 201.439 187.61Z" fill="#263238"/>
<path d="M171.167 250.33C170.975 250.251 170.794 250.148 170.629 250.023L169.157 249.05C168.53 248.615 167.762 248.09 166.815 247.553C165.867 247.015 164.856 246.273 163.627 245.709C162.399 245.146 161.067 244.365 159.647 243.738C158.226 243.111 156.587 242.458 154.911 241.793C151.23 240.484 147.451 239.474 143.608 238.772C139.758 238.14 135.862 237.823 131.96 237.825C130.155 237.825 128.44 237.889 126.84 238.068C125.24 238.247 123.755 238.388 122.411 238.593C121.067 238.797 119.851 239.053 118.789 239.245C117.727 239.437 116.818 239.681 116.088 239.873L114.373 240.295C114.178 240.359 113.976 240.397 113.771 240.41C113.771 240.41 113.951 240.308 114.335 240.167L116.011 239.629C116.898 239.333 117.799 239.086 118.712 238.887C119.775 238.644 120.978 238.311 122.335 238.119C123.691 237.927 125.176 237.645 126.789 237.517C128.402 237.389 130.117 237.274 131.909 237.21C135.853 237.175 139.793 237.479 143.685 238.119C147.568 238.826 151.383 239.862 155.09 241.217C156.779 241.895 158.392 242.497 159.839 243.239C161.2 243.858 162.528 244.546 163.819 245.3C165.035 245.94 166.059 246.657 166.981 247.233C167.773 247.725 168.538 248.259 169.272 248.833L170.667 249.921C171.026 250.138 171.179 250.33 171.167 250.33Z" fill="#263238"/>
<path d="M119.8 278.913C120.224 278.305 120.69 277.727 121.195 277.185C121.747 276.507 122.341 275.866 122.974 275.265C123.704 274.561 124.497 273.703 125.534 272.897L127.07 271.617C127.608 271.169 128.222 270.759 128.824 270.337C130.014 269.402 131.384 268.583 132.843 267.674C139.212 263.906 146.312 261.54 153.669 260.737C155.371 260.596 156.971 260.43 158.481 260.455C159.237 260.455 159.966 260.455 160.67 260.455L162.68 260.583C163.833 260.651 164.983 260.779 166.123 260.967C166.985 261.069 167.84 261.223 168.683 261.428C169.411 261.563 170.13 261.747 170.833 261.978C170.093 261.941 169.356 261.842 168.632 261.684C167.928 261.556 167.07 261.415 166.072 261.326C165.073 261.236 163.934 261.057 162.654 261.057L160.657 260.98C159.966 260.98 159.249 260.98 158.494 260.98C157.009 260.98 155.422 261.172 153.745 261.326C150.13 261.789 146.565 262.587 143.096 263.706C139.648 264.887 136.319 266.387 133.15 268.186C131.717 269.057 130.334 269.863 129.144 270.746C128.542 271.182 127.928 271.578 127.39 272.026L125.841 273.306C124.83 274.074 124.024 274.906 123.281 275.585C122.636 276.158 122.021 276.765 121.438 277.402C120.938 277.954 120.39 278.459 119.8 278.913Z" fill="#263238"/>
<path d="M123.204 288.09C123.625 287.504 124.096 286.956 124.612 286.452L125.393 285.594L126.391 284.647C127.121 283.981 127.927 283.188 128.951 282.433C129.451 282.036 129.963 281.639 130.487 281.153L132.228 279.937C133.419 279.066 134.788 278.311 136.209 277.466C139.347 275.742 142.627 274.29 146.014 273.127C149.417 271.997 152.906 271.141 156.446 270.567C158.084 270.362 159.633 270.119 161.105 270.042C162.577 269.965 163.934 269.876 165.175 269.863C166.417 269.85 167.556 269.863 168.542 269.94C169.398 269.959 170.252 270.023 171.102 270.132C171.826 270.18 172.545 270.287 173.252 270.452C172.532 270.505 171.809 270.505 171.089 270.452C170.398 270.452 169.553 270.362 168.529 270.362C167.505 270.362 166.417 270.362 165.188 270.362C163.959 270.362 162.628 270.465 161.143 270.618C159.659 270.772 158.161 270.977 156.548 271.207C153.05 271.799 149.601 272.655 146.231 273.767C142.882 274.921 139.629 276.338 136.503 278.004C135.095 278.849 133.726 279.578 132.535 280.41L130.795 281.588L129.246 282.765C128.247 283.482 127.415 284.25 126.686 284.89L125.649 285.786L124.83 286.593C124.337 287.143 123.793 287.644 123.204 288.09Z" fill="#263238"/>
<path d="M131.691 299.828C132.267 298.568 132.943 297.357 133.714 296.206C134.994 294.004 136.901 291.009 138.987 287.706L143.224 281.14V281.422C142.392 279.694 141.727 278.273 141.266 277.262C140.991 276.747 140.78 276.201 140.639 275.636C141.005 276.087 141.314 276.581 141.56 277.108C142.098 278.081 142.84 279.476 143.723 281.166L143.787 281.306L143.698 281.447L139.563 288.065C137.477 291.367 135.544 294.324 134.123 296.449C133.408 297.641 132.595 298.771 131.691 299.828Z" fill="#263238"/>
<path d="M167.466 352.423C167.582 351.859 167.749 351.306 167.965 350.772C168.184 350.128 168.445 349.5 168.746 348.89C169.079 348.174 169.411 347.329 169.911 346.458C170.413 345.49 170.969 344.55 171.575 343.642C172.189 342.644 172.97 341.645 173.763 340.596C175.568 338.356 177.592 336.302 179.805 334.465C182.042 332.666 184.452 331.092 186.999 329.767C188.114 329.195 189.259 328.682 190.429 328.231C191.435 327.813 192.465 327.454 193.514 327.156C194.355 326.891 195.21 326.669 196.074 326.49C196.735 326.326 197.406 326.207 198.083 326.132C198.647 326.013 199.222 325.957 199.799 325.966C199.799 326.106 197.367 326.388 193.603 327.604C192.578 327.932 191.569 328.312 190.583 328.743C189.495 329.153 188.407 329.729 187.229 330.305C184.74 331.648 182.379 333.216 180.176 334.99C177.998 336.796 175.992 338.802 174.186 340.98C173.392 342.004 172.611 342.977 171.984 343.95C171.368 344.831 170.8 345.746 170.282 346.689C168.323 350.17 167.568 352.474 167.466 352.423Z" fill="#263238"/>
<path d="M172.586 357.85C172.697 357.312 172.869 356.788 173.098 356.289C173.316 355.678 173.568 355.08 173.853 354.497C174.173 353.818 174.519 353.025 174.992 352.206C176.058 350.239 177.278 348.36 178.64 346.586C180.326 344.43 182.193 342.421 184.221 340.583C186.282 338.783 188.491 337.16 190.826 335.732C192.737 334.578 194.741 333.585 196.816 332.762C197.687 332.378 198.519 332.135 199.236 331.879C199.843 331.665 200.463 331.485 201.092 331.342C201.615 331.17 202.156 331.058 202.704 331.009C202.704 331.137 200.452 331.7 196.996 333.198C194.975 334.076 193.02 335.098 191.146 336.257C188.86 337.694 186.69 339.307 184.656 341.082C182.657 342.892 180.807 344.861 179.127 346.97C177.755 348.697 176.514 350.524 175.415 352.436C173.469 355.713 172.65 357.914 172.586 357.85Z" fill="#263238"/>
<path d="M270.161 271.489C269.556 271.629 268.939 271.706 268.318 271.719C267.729 271.719 267.038 271.834 266.155 271.95C265.272 272.065 264.363 272.154 263.313 272.359C260.852 272.758 258.415 273.301 256.017 273.985C253.093 274.852 250.228 275.908 247.441 277.146C244.674 278.427 241.997 279.894 239.428 281.537C237.332 282.887 235.319 284.362 233.4 285.953C232.555 286.606 231.864 287.233 231.224 287.834C230.584 288.436 230.059 288.897 229.636 289.319C229.219 289.795 228.751 290.224 228.241 290.599C228.606 290.096 229.008 289.621 229.444 289.178C229.841 288.73 230.353 288.193 230.968 287.617C231.582 287.041 232.248 286.337 233.092 285.646C235.001 283.975 237.024 282.439 239.147 281.05C241.728 279.358 244.432 277.86 247.236 276.57C250.049 275.31 252.949 274.258 255.915 273.422C258.345 272.757 260.817 272.252 263.313 271.911C264.363 271.745 265.336 271.681 266.18 271.604C267.025 271.527 267.768 271.502 268.369 271.489C268.966 271.44 269.565 271.44 270.161 271.489Z" fill="#263238"/>
<path d="M271.722 278.221C271.13 278.408 270.522 278.537 269.905 278.605C268.727 278.785 267.037 279.117 264.964 279.591C262.89 280.065 260.458 280.743 257.796 281.626C254.917 282.619 252.097 283.773 249.348 285.082C246.619 286.434 243.965 287.934 241.399 289.575C239.313 290.928 237.297 292.384 235.357 293.94C233.706 295.22 232.388 296.397 231.517 297.204C231.085 297.647 230.609 298.046 230.097 298.394C230.477 297.893 230.906 297.43 231.377 297.012C232.554 295.805 233.793 294.66 235.089 293.581C237.003 291.958 239.012 290.449 241.105 289.063C246.203 285.642 251.751 282.946 257.591 281.05C259.975 280.269 262.403 279.628 264.861 279.13C266.515 278.781 268.185 278.521 269.866 278.349C270.48 278.252 271.101 278.209 271.722 278.221Z" fill="#263238"/>
<path d="M258.001 235.521C248.567 232.961 237.841 236.391 230.762 243.137C223.684 249.882 219.614 259.29 217.681 268.878L213.969 264.769C215.902 255.182 220.561 245.006 227.639 238.26C234.718 231.514 245.764 227.866 255.198 230.439C256.291 232.04 257.229 233.742 258.001 235.521Z" fill="#1C8AFF"/>
<g opacity="0.3">
<path d="M124.727 286.477C125.93 287.617 128.964 287.284 130.602 286.093C132.663 284.583 134.839 281.153 136.516 280.039C146.256 273.639 155.972 277.057 168.772 271.847C169.015 271.757 169.335 271.77 169.501 271.553C169.596 271.394 169.626 271.205 169.582 271.025C169.539 270.846 169.427 270.69 169.271 270.593C168.958 270.392 168.593 270.289 168.221 270.298C152.388 268.903 136.592 275.521 124.701 286.477" fill="black"/>
</g>
<g opacity="0.3">
<path d="M208.516 257.268C212.817 249.678 213.636 240.206 219.255 233.55C224.081 227.828 231.889 224.961 235.895 218.638C228.545 222.273 222.16 227.598 217.265 234.177C212.371 240.756 209.105 248.402 207.735 256.487" fill="black"/>
</g>
<path d="M256.094 353.396C262.427 353.863 268.773 352.674 274.507 349.945C280.241 347.216 285.166 343.041 288.798 337.831C289.009 337.468 289.148 337.067 289.204 336.65C289.261 336.234 289.235 335.81 289.128 335.404C289.021 334.997 288.835 334.616 288.581 334.281C288.326 333.947 288.009 333.665 287.646 333.453C287.282 333.242 286.881 333.103 286.465 333.047C286.048 332.99 285.625 333.016 285.218 333.123C284.812 333.23 284.43 333.416 284.096 333.67C283.761 333.925 283.48 334.242 283.268 334.605C280.203 338.851 276.086 342.227 271.322 344.399C266.557 346.572 261.309 347.466 256.094 346.996C255.247 347.003 254.437 347.342 253.838 347.941C253.24 348.539 252.9 349.349 252.894 350.196C252.91 351.039 253.252 351.844 253.849 352.44C254.446 353.037 255.25 353.379 256.094 353.396Z" fill="#263238"/>
<path d="M192.503 175.706C192.276 175.959 192.023 176.186 191.748 176.385L189.482 178.228C188.497 179.034 187.281 179.994 185.821 181.044C184.362 182.094 182.749 183.374 180.868 184.628C178.986 185.882 176.951 187.342 174.698 188.75C172.445 190.158 170.013 191.668 167.441 193.204C162.244 196.186 156.407 199.271 150.109 202.164C143.812 205.057 137.642 207.412 131.985 209.37C129.13 210.305 126.429 211.226 123.857 211.93C121.284 212.634 118.903 213.338 116.701 213.889C114.5 214.439 112.503 214.887 110.749 215.284C108.996 215.681 107.473 215.975 106.218 216.193L103.338 216.705C103.01 216.776 102.676 216.819 102.34 216.833C102.659 216.711 102.989 216.62 103.325 216.564L106.167 215.937C107.447 215.681 108.919 215.361 110.66 214.926C112.401 214.49 114.41 214.055 116.586 213.428C118.762 212.801 121.169 212.148 123.703 211.406C126.237 210.663 128.938 209.742 131.78 208.846C137.412 206.849 143.543 204.455 149.841 201.614C156.138 198.772 161.924 195.674 167.133 192.654C169.693 191.143 172.164 189.722 174.404 188.276C176.644 186.83 178.717 185.498 180.599 184.231C182.481 182.964 184.132 181.774 185.604 180.737C187.076 179.7 188.317 178.778 189.316 178.01L191.658 176.27C192.209 175.898 192.49 175.694 192.503 175.706Z" fill="#263238"/>
<path d="M174.981 192.897C174.589 193.294 174.16 193.654 173.701 193.972C172.818 194.638 171.5 195.546 169.861 196.622C165.528 199.459 161.013 202.007 156.344 204.25C151.699 206.477 146.915 208.401 142.021 210.01C140.14 210.625 138.604 211.073 137.528 211.29C136.985 211.476 136.423 211.6 135.852 211.662C136.366 211.41 136.901 211.205 137.452 211.047C138.501 210.702 140.012 210.177 141.868 209.511C146.693 207.784 151.427 205.811 156.05 203.598C160.669 201.374 165.172 198.918 169.541 196.238C171.231 195.214 172.575 194.369 173.496 193.767C173.961 193.428 174.458 193.136 174.981 192.897Z" fill="#263238"/>
<path d="M207.965 397.735C215.952 391.028 224.213 384.688 232.746 378.714C233.464 378.273 233.985 377.572 234.199 376.756C234.414 375.941 234.306 375.075 233.898 374.337C233.466 373.608 232.764 373.079 231.945 372.864C231.126 372.648 230.255 372.764 229.52 373.185C220.518 379.465 211.814 386.143 203.408 393.217C202.81 393.817 202.475 394.629 202.475 395.476C202.475 396.323 202.81 397.135 203.408 397.735C204.015 398.321 204.825 398.648 205.668 398.648C206.511 398.648 207.321 398.321 207.927 397.735H207.965Z" fill="#263238"/>
<path d="M272.233 284.89C272.233 284.89 281.693 290.01 282.601 293.684C283.51 297.358 286.953 325.057 286.953 325.057L283.651 329.972L272.233 284.89Z" fill="#E0E0E0"/>
<path d="M283.421 329.575C283.242 329.575 280.695 318.823 277.725 305.46C274.756 292.097 272.503 281.217 272.695 281.14C272.887 281.063 275.421 291.905 278.378 305.268C281.335 318.631 283.601 329.537 283.421 329.575Z" fill="#263238"/>
<path d="M177.348 370.228C176.781 369.616 176.417 368.844 176.304 368.017C176.192 367.19 176.338 366.348 176.721 365.607C178.897 361.422 183.39 353.818 185.847 354.727C188.305 355.636 199.761 370.817 204.292 376.986C204.834 377.717 205.107 378.612 205.068 379.521C205.028 380.43 204.678 381.297 204.075 381.978L198.878 387.918C198.575 388.265 198.202 388.545 197.784 388.739C197.365 388.933 196.911 389.038 196.45 389.045C195.989 389.052 195.532 388.962 195.107 388.781C194.683 388.6 194.302 388.332 193.988 387.994L177.348 370.228Z" fill="#E0E0E0"/>
<path d="M177.348 370.228C177.348 370.228 177.604 370.42 178.039 370.855L179.908 372.775L186.717 379.879L191.389 384.82L193.949 387.572C194.331 388.057 194.851 388.415 195.441 388.598C196.031 388.781 196.662 388.78 197.252 388.596C197.866 388.399 198.403 388.014 198.788 387.495L200.196 385.895L203.076 382.58C203.59 382.074 204.021 381.491 204.356 380.852C204.653 380.208 204.751 379.491 204.637 378.791C204.517 378.072 204.203 377.399 203.728 376.845L202.32 374.951C198.48 369.831 194.884 365.057 191.402 360.871C189.836 358.847 188.078 356.978 186.154 355.29C185.271 354.522 184.17 355.431 183.402 356.122C182.63 356.867 181.927 357.681 181.303 358.554C180.208 360.063 179.192 361.627 178.256 363.239L177.13 365.236C176.788 365.766 176.554 366.357 176.439 366.977C176.295 367.853 176.443 368.753 176.861 369.537C177.143 370.074 177.373 370.305 177.348 370.33C177.107 370.128 176.903 369.886 176.746 369.613C176.261 368.825 176.062 367.894 176.183 366.977C176.285 366.322 176.511 365.692 176.848 365.121L177.936 363.085C178.84 361.439 179.835 359.845 180.919 358.311C181.551 357.397 182.262 356.541 183.044 355.751C183.473 355.321 183.965 354.958 184.503 354.676C184.808 354.52 185.146 354.441 185.488 354.445C185.842 354.482 186.178 354.615 186.461 354.829C188.464 356.499 190.291 358.369 191.914 360.41C195.447 364.647 199.12 369.447 202.909 374.49L204.317 376.385C204.855 377.025 205.209 377.799 205.341 378.625C205.471 379.45 205.355 380.296 205.008 381.057C204.843 381.433 204.623 381.782 204.356 382.093L203.613 382.938L200.746 386.305L199.338 387.917C198.872 388.514 198.239 388.959 197.52 389.197C196.814 389.402 196.063 389.389 195.365 389.161C194.666 388.933 194.052 388.499 193.604 387.917L191.044 385.153C189.392 383.361 187.856 381.684 186.436 380.161C183.671 377.127 181.405 374.669 179.792 372.89L178 370.893C177.768 370.687 177.55 370.464 177.348 370.228Z" fill="#263238"/>
<path d="M256.426 236.66C255.76 236.855 255.079 237 254.391 237.095C252.532 237.463 250.695 237.933 248.887 238.503C242.924 240.368 237.409 243.439 232.683 247.526C227.958 251.613 224.123 256.628 221.418 262.26C220.589 263.961 219.858 265.709 219.23 267.495C219.032 268.164 218.789 268.819 218.5 269.454C218.509 269.271 218.539 269.091 218.59 268.916C218.679 268.57 218.782 268.058 218.986 267.418C219.516 265.583 220.183 263.79 220.983 262.055C223.61 256.289 227.452 251.159 232.246 247.017C237.04 242.874 242.673 239.817 248.759 238.055C250.587 237.496 252.452 237.069 254.34 236.775C255.006 236.673 255.53 236.647 255.889 236.609C256.069 236.606 256.25 236.623 256.426 236.66Z" fill="#263238"/>
<path d="M260.69 242.714C260.068 242.961 259.426 243.149 258.77 243.278C258.142 243.431 257.374 243.623 256.504 243.892C255.634 244.161 254.622 244.417 253.547 244.801C250.992 245.643 248.484 246.621 246.034 247.732C243.053 249.117 240.159 250.682 237.368 252.417C234.594 254.189 231.935 256.134 229.406 258.241C227.349 259.967 225.392 261.809 223.544 263.758C222.725 264.564 222.059 265.358 221.445 266.036C220.83 266.714 220.318 267.316 219.922 267.815C219.529 268.342 219.101 268.842 218.642 269.313C218.966 268.725 219.343 268.168 219.768 267.649C220.139 267.124 220.613 266.497 221.214 265.793C221.816 265.089 222.494 264.27 223.25 263.438C225.067 261.429 227.008 259.535 229.061 257.767C234.106 253.433 239.76 249.862 245.842 247.169C248.321 246.076 250.864 245.136 253.458 244.353C254.546 243.994 255.57 243.764 256.466 243.534C257.362 243.303 258.117 243.137 258.757 243.022C259.39 242.859 260.037 242.756 260.69 242.714Z" fill="#263238"/>
<path d="M147.166 324.813C147.461 324.288 147.804 323.791 148.19 323.329C148.607 322.754 149.056 322.203 149.534 321.677C150.097 321.05 150.686 320.321 151.454 319.604C153.175 317.853 155.037 316.248 157.022 314.804C161.881 311.237 167.377 308.63 173.214 307.124C175.587 306.507 178.005 306.079 180.446 305.844C181.483 305.703 182.443 305.703 183.262 305.665C183.974 305.625 184.688 305.625 185.4 305.665C186.005 305.644 186.61 305.692 187.204 305.805C187.204 305.946 184.644 305.805 180.497 306.305C178.09 306.596 175.707 307.062 173.368 307.7C167.631 309.262 162.217 311.832 157.38 315.29C155.407 316.703 153.538 318.256 151.787 319.937C148.804 322.817 147.268 324.903 147.166 324.813Z" fill="#263238"/>
<path d="M188.266 307.303C187.78 307.611 187.26 307.864 186.718 308.058L182.43 309.94C178.82 311.553 173.879 313.895 168.593 316.801C163.306 319.706 158.686 322.625 155.396 324.801L151.556 327.361C151.102 327.719 150.608 328.024 150.084 328.27C150.473 327.857 150.902 327.484 151.364 327.156C152.234 326.465 153.527 325.505 155.204 324.365C163.665 318.413 172.757 313.412 182.314 309.453C184.158 308.698 185.655 308.173 186.705 307.764C187.21 307.563 187.733 307.408 188.266 307.303Z" fill="#263238"/>
</g>
<defs>
<clipPath id="clip0_1125_442">
<rect width="312.709" height="439.971" fill="white"/>
</clipPath>
</defs>
</svg>
