<svg width="136" height="41" viewBox="0 0 136 41" fill="none" xmlns="http://www.w3.org/2000/svg">
<path d="M134.604 35.8C134.604 36.3034 134.505 36.8019 134.312 37.267C134.119 37.732 133.837 38.1546 133.481 38.5103C133.124 38.8661 132.701 39.1483 132.236 39.3405C131.771 39.5328 131.272 39.6315 130.768 39.631H5.23152C4.21403 39.6321 3.23779 39.2291 2.51748 38.5107C1.79716 37.7922 1.39177 36.8172 1.39044 35.8V5.24864C1.39177 4.23097 1.797 3.25543 2.51717 2.5362C3.23734 1.81697 4.21357 1.41286 5.23152 1.4126H130.767C131.271 1.4126 131.77 1.51183 132.236 1.70462C132.701 1.89741 133.124 2.17999 133.48 2.53621C133.836 2.89243 134.119 3.31532 134.312 3.78073C134.504 4.24613 134.604 4.74493 134.603 5.24864L134.604 35.8Z" fill="white"/>
<path d="M130.768 40.5224H5.23155C3.97814 40.5221 2.77601 40.0248 1.88896 39.1394C1.00191 38.2541 0.502385 37.0532 0.5 35.8001L0.5 5.24975C0.501854 3.99604 1.00105 2.79426 1.88807 1.90804C2.77509 1.02182 3.97751 0.523519 5.23155 0.522461L130.767 0.522461C132.021 0.524047 133.223 1.02251 134.11 1.90862C134.997 2.79473 135.497 3.99621 135.499 5.24975V35.8001C135.501 38.4048 133.375 40.5224 130.768 40.5224Z" fill="#A6A6A6"/>
<path d="M134.604 35.8C134.604 36.3034 134.505 36.8019 134.312 37.267C134.119 37.732 133.837 38.1546 133.481 38.5103C133.124 38.8661 132.701 39.1483 132.236 39.3405C131.771 39.5328 131.272 39.6315 130.768 39.631H5.23152C4.21403 39.6321 3.23779 39.2291 2.51748 38.5107C1.79716 37.7922 1.39177 36.8172 1.39044 35.8V5.24864C1.39177 4.23097 1.797 3.25543 2.51717 2.5362C3.23734 1.81697 4.21357 1.41286 5.23152 1.4126H130.767C131.271 1.4126 131.77 1.51183 132.236 1.70462C132.701 1.89741 133.124 2.17999 133.48 2.53621C133.836 2.89243 134.119 3.31532 134.312 3.78073C134.504 4.24613 134.604 4.74493 134.603 5.24864L134.604 35.8Z" fill="black"/>
<path d="M30.6442 20.3114C30.6152 17.0875 33.2847 15.5191 33.4067 15.4461C31.8949 13.2425 29.5516 12.9414 28.7282 12.9174C26.7601 12.7104 24.8511 14.0947 23.8486 14.0947C22.826 14.0947 21.2822 12.9374 19.6183 12.9714C17.4771 13.0044 15.474 14.2438 14.3754 16.1683C12.1082 20.0924 13.7991 25.8589 15.9713 29.0308C17.0579 30.5852 18.3276 32.3187 19.9895 32.2577C21.6154 32.1917 22.2227 31.2224 24.1847 31.2224C26.1288 31.2224 26.6991 32.2577 28.394 32.2187C30.139 32.1917 31.2375 30.6582 32.2861 29.0908C33.5418 27.3113 34.0461 25.5569 34.0661 25.4668C34.0261 25.4528 30.6782 24.1745 30.6442 20.3114ZM27.4425 10.8308C28.317 9.73754 28.9153 8.25013 28.7492 6.74072C27.4835 6.79674 25.9007 7.61596 24.9892 8.68525C24.1827 9.62751 23.4623 11.1719 23.6484 12.6243C25.0702 12.7304 26.53 11.9071 27.4425 10.8308Z" fill="white"/>
<path d="M130.768 0.522217H63.527L89.8642 40.5221H130.768C132.022 40.5211 133.224 40.023 134.111 39.1373C134.998 38.2515 135.497 37.0502 135.5 35.7968V5.24951C135.498 3.99588 134.998 2.79425 134.111 1.90809C133.224 1.02192 132.022 0.523539 130.768 0.522217Z" fill="url(#paint0_linear_2697_2631)"/>
<path d="M54.194 32.0346H51.9217L50.6771 28.1245H46.3507L45.1651 32.0346H42.9529L47.2402 18.7229H49.8876L54.194 32.0346ZM50.3019 26.484L49.1762 23.0081C49.0572 22.653 48.8331 21.8168 48.5049 20.5004H48.4649C48.3328 21.0666 48.1217 21.9028 47.8325 23.0081L46.7259 26.484H50.3019ZM65.1979 27.1172C65.1979 28.7497 64.7547 30.04 63.8672 30.9873C63.0727 31.8305 62.0852 32.2516 60.9076 32.2516C59.6359 32.2516 58.7214 31.7985 58.1661 30.8903V35.9266H56.0329V25.5908C56.0329 24.5655 56.0059 23.5142 55.9539 22.4359H57.8299L57.949 23.9574H57.989C58.7004 22.811 59.78 22.2379 61.2287 22.2379C62.3614 22.2379 63.3069 22.685 64.0633 23.5803C64.8187 24.4775 65.1979 25.6558 65.1979 27.1172ZM63.0247 27.1952C63.0247 26.261 62.8146 25.4908 62.3924 24.8836C61.9311 24.2524 61.3118 23.9364 60.5354 23.9364C60.0091 23.9364 59.5308 24.1124 59.1036 24.4595C58.6754 24.8096 58.3952 25.2667 58.2641 25.8329C58.2056 26.0446 58.1724 26.2625 58.1651 26.482V28.0835C58.1651 28.7807 58.3792 29.3698 58.8074 29.852C59.2357 30.3321 59.792 30.5732 60.4763 30.5732C61.2798 30.5732 61.9051 30.2621 62.3524 29.6449C62.8006 29.0257 63.0247 28.2095 63.0247 27.1952ZM76.2409 27.1172C76.2409 28.7497 75.7976 30.04 74.9101 30.9873C74.1147 31.8305 73.1282 32.2516 71.9495 32.2516C70.6779 32.2516 69.7634 31.7985 69.2081 30.8903V35.9266H67.0749V25.5908C67.0749 24.5655 67.0479 23.5142 66.9959 22.4359H68.8719L68.9909 23.9574H69.031C69.7413 22.811 70.8209 22.2379 72.2707 22.2379C73.4023 22.2379 74.3478 22.685 75.1062 23.5803C75.8607 24.4775 76.2409 25.6558 76.2409 27.1172ZM74.0667 27.1952C74.0667 26.261 73.8556 25.4908 73.4333 24.8836C72.9721 24.2524 72.3548 23.9364 71.5783 23.9364C71.0521 23.9364 70.5738 24.1124 70.1446 24.4595C69.7163 24.8096 69.4372 25.2667 69.3061 25.8329C69.2411 26.0969 69.2061 26.312 69.2061 26.482V28.0835C69.2061 28.7807 69.4212 29.3698 69.8474 29.852C70.2756 30.3311 70.8319 30.5732 71.5183 30.5732C72.3227 30.5732 72.9481 30.2621 73.3943 29.6449C73.8426 29.0257 74.0667 28.2095 74.0667 27.1952ZM88.5875 28.3005C88.5875 29.4339 88.1913 30.3551 87.4039 31.0663C86.5374 31.8425 85.3278 32.2316 83.7769 32.2316C82.3442 32.2316 81.1955 31.9555 80.3291 31.4024L80.8223 29.6249C81.7578 30.1791 82.7854 30.4551 83.904 30.4551C84.7084 30.4551 85.3338 30.2731 85.78 29.912C86.2272 29.5499 86.4534 29.0658 86.4534 28.4616C86.4534 27.9204 86.2663 27.4673 85.8991 27.0982C85.5299 26.7301 84.9195 26.387 84.0621 26.0719C81.7308 25.2027 80.5642 23.9314 80.5642 22.2589C80.5642 21.1666 80.9764 20.2724 81.7989 19.5732C82.6213 18.875 83.7119 18.5259 85.0686 18.5259C86.2803 18.5259 87.2898 18.7369 88.0913 19.1581L87.556 20.8965C86.8016 20.4884 85.9501 20.2844 84.9976 20.2844C84.2452 20.2844 83.6549 20.4694 83.2326 20.8375C82.8774 21.1666 82.6973 21.5677 82.6973 22.0438C82.6973 22.569 82.9025 23.0051 83.3107 23.3472C83.6649 23.6623 84.3112 24.0054 85.2457 24.3735C86.3923 24.8356 87.2348 25.3737 87.7741 25.9919C88.3174 26.6101 88.5875 27.3813 88.5875 28.3005ZM95.6583 24.0364H93.3071V28.6967C93.3071 29.882 93.7213 30.4731 94.5517 30.4731C94.9329 30.4731 95.2491 30.4411 95.4993 30.3741L95.5583 31.9936C95.1381 32.1506 94.5848 32.2296 93.8994 32.2296C93.0569 32.2296 92.3986 31.9725 91.9233 31.4584C91.4501 30.9443 91.2119 30.083 91.2119 28.8707V24.0324H89.8112V22.4319H91.2119V20.6745L93.3071 20.0423V22.4319H95.6583V24.0364ZM106.246 27.1562C106.246 28.6316 105.824 29.843 104.981 30.7902C104.1 31.7655 102.927 32.2516 101.465 32.2516C100.055 32.2516 98.9331 31.7845 98.0967 30.8512C97.2602 29.916 96.842 28.7377 96.842 27.3163C96.842 25.8289 97.2742 24.6105 98.1357 23.6633C98.9991 22.715 100.162 22.2409 101.624 22.2409C103.032 22.2409 104.164 22.709 105.02 23.6433C105.839 24.5495 106.246 25.7198 106.246 27.1562ZM104.035 27.2052C104.035 26.326 103.845 25.5718 103.464 24.9406C103.016 24.1784 102.376 23.7973 101.547 23.7973C100.692 23.7973 100.037 24.1784 99.5905 24.9406C99.2083 25.5718 99.0182 26.339 99.0182 27.2453C99.0182 28.1255 99.2083 28.8817 99.5905 29.5109C100.052 30.2731 100.695 30.6542 101.529 30.6542C102.344 30.6542 102.983 30.2651 103.446 29.4919C103.838 28.8457 104.035 28.0865 104.035 27.2052ZM113.183 24.3115C112.961 24.2714 112.736 24.2517 112.51 24.2524C111.76 24.2524 111.18 24.5345 110.771 25.1027C110.417 25.6028 110.239 26.235 110.239 26.9982V32.0346H108.106V25.4588C108.108 24.4512 108.087 23.4436 108.044 22.4369H109.902L109.98 24.2734H110.039C110.265 23.6423 110.619 23.1331 111.106 22.752C111.551 22.419 112.092 22.2387 112.648 22.2379C112.845 22.2379 113.023 22.2519 113.181 22.2769L113.183 24.3115ZM122.723 26.7811C122.728 27.1053 122.702 27.4293 122.645 27.7484H116.245C116.269 28.6967 116.58 29.4228 117.174 29.923C117.713 30.3691 118.411 30.5932 119.267 30.5932C120.215 30.5932 121.079 30.4431 121.856 30.14L122.191 31.6194C121.282 32.0156 120.21 32.2126 118.972 32.2126C117.483 32.2126 116.314 31.7745 115.464 30.9003C114.616 30.025 114.19 28.8487 114.19 27.3753C114.19 25.9289 114.586 24.7236 115.377 23.7623C116.205 22.736 117.325 22.2229 118.734 22.2229C120.118 22.2229 121.165 22.736 121.876 23.7623C122.44 24.5755 122.723 25.5838 122.723 26.7811ZM120.689 26.228C120.704 25.5948 120.564 25.0497 120.275 24.5885C119.905 23.9944 119.337 23.6983 118.576 23.6983C117.878 23.6983 117.31 23.9874 116.878 24.5675C116.523 25.0287 116.311 25.5828 116.246 26.226L120.689 26.228Z" fill="white"/>
<path d="M45.7354 14.0168C45.142 14.0168 44.6288 13.9878 44.2015 13.9388V7.50302C44.7991 7.41074 45.4029 7.36526 46.0075 7.36698C48.4538 7.36698 49.5804 8.57031 49.5804 10.5318C49.5804 12.7945 48.2497 14.0168 45.7354 14.0168ZM46.0936 8.19221C45.7634 8.19221 45.4822 8.21221 45.2491 8.26023V13.1526C45.3752 13.1726 45.6173 13.1816 45.9575 13.1816C47.5603 13.1816 48.4728 12.2693 48.4728 10.5609C48.4728 9.03744 47.6474 8.19221 46.0936 8.19221ZM53.0913 14.0658C51.7126 14.0658 50.8191 13.0365 50.8191 11.6391C50.8191 10.1828 51.7316 9.14447 53.1694 9.14447C54.5281 9.14447 55.4416 10.1247 55.4416 11.5621C55.4416 13.0365 54.5001 14.0658 53.0913 14.0658ZM53.1314 9.91068C52.3739 9.91068 51.8887 10.6189 51.8887 11.6091C51.8887 12.5804 52.384 13.2886 53.1213 13.2886C53.8587 13.2886 54.354 12.5314 54.354 11.5891C54.354 10.6289 53.8688 9.91068 53.1314 9.91068ZM63.3038 9.24149L61.828 13.9588H60.8665L60.2552 11.9102C60.1032 11.4091 59.9766 10.9007 59.876 10.3868H59.856C59.7789 10.9009 59.6329 11.4161 59.4778 11.9102L58.8274 13.9588H57.8559L56.4672 9.24149H57.5447L58.079 11.4841C58.2051 12.0183 58.3112 12.5224 58.3992 12.9985H58.4192C58.4963 12.6014 58.6223 12.1053 58.8074 11.4941L59.4778 9.2425H60.3322L60.9736 11.4461C61.1287 11.9802 61.2547 12.5044 61.3528 12.9995H61.3808C61.4488 12.5144 61.5559 11.9992 61.701 11.4461L62.2743 9.2425L63.3038 9.24149ZM68.7368 13.9588H67.6882V11.25C67.6882 10.4158 67.368 9.9977 66.7367 9.9977C66.1154 9.9977 65.6881 10.5318 65.6881 11.153V13.9588H64.6396V10.5899C64.6396 10.1727 64.6296 9.72563 64.6005 9.24049H65.523L65.5721 9.96869H65.6011C65.8832 9.46456 66.4555 9.14447 67.0969 9.14447C68.0874 9.14447 68.7378 9.90168 68.7378 11.134L68.7368 13.9588ZM71.6283 13.9588H70.5788V7.0769H71.6283V13.9588ZM75.4514 14.0658C74.0737 14.0658 73.1792 13.0365 73.1792 11.6391C73.1792 10.1828 74.0917 9.14447 75.5284 9.14447C76.8882 9.14447 77.8007 10.1247 77.8007 11.5621C77.8017 13.0365 76.8592 14.0658 75.4514 14.0658ZM75.4904 9.91068C74.733 9.91068 74.2478 10.6189 74.2478 11.6091C74.2478 12.5804 74.744 13.2886 75.4794 13.2886C76.2178 13.2886 76.7121 12.5314 76.7121 11.5891C76.7131 10.6289 76.2288 9.91068 75.4904 9.91068ZM81.9349 13.9588L81.8589 13.4156H81.8308C81.5107 13.8528 81.0434 14.0658 80.4511 14.0658C79.6056 14.0658 79.0053 13.4736 79.0053 12.6774C79.0053 11.5131 80.0149 10.9109 81.7628 10.9109V10.8239C81.7628 10.2028 81.4336 9.89167 80.7833 9.89167C80.318 9.89167 79.9098 10.0087 79.5506 10.2418L79.3375 9.55258C79.7737 9.28051 80.318 9.14447 80.9574 9.14447C82.19 9.14447 82.8124 9.79465 82.8124 11.096V12.8335C82.8124 13.3096 82.8334 13.6787 82.8804 13.9598L81.9349 13.9588ZM81.7908 11.6091C80.6262 11.6091 80.0419 11.8912 80.0419 12.5604C80.0419 13.0555 80.343 13.2976 80.7613 13.2976C81.2946 13.2976 81.7908 12.8905 81.7908 12.3373V11.6091ZM87.9041 13.9588L87.8551 13.2016H87.8261C87.5249 13.7737 87.0186 14.0658 86.3113 14.0658C85.1736 14.0658 84.3312 13.0655 84.3312 11.6582C84.3312 10.1828 85.2047 9.14347 86.3973 9.14347C87.0286 9.14347 87.4759 9.35653 87.728 9.78464H87.749V7.0769H88.7986V12.6874C88.7986 13.1436 88.8096 13.5707 88.8376 13.9588H87.9041ZM87.749 11.183C87.749 10.5228 87.3118 9.95969 86.6444 9.95969C85.867 9.95969 85.3918 10.6489 85.3918 11.6191C85.3918 12.5704 85.885 13.2216 86.6234 13.2216C87.2828 13.2216 87.749 12.6484 87.749 11.9692V11.183ZM95.4532 14.0658C94.0755 14.0658 93.182 13.0365 93.182 11.6391C93.182 10.1828 94.0945 9.14447 95.5312 9.14447C96.891 9.14447 97.8035 10.1247 97.8035 11.5621C97.8045 13.0365 96.863 14.0658 95.4532 14.0658ZM95.4922 9.91068C94.7358 9.91068 94.2505 10.6189 94.2505 11.6091C94.2505 12.5804 94.7458 13.2886 95.4822 13.2886C96.2206 13.2886 96.7149 12.5314 96.7149 11.5891C96.7169 10.6289 96.2316 9.91068 95.4922 9.91068ZM103.443 13.9588H102.393V11.25C102.393 10.4158 102.073 9.9977 101.441 9.9977C100.82 9.9977 100.394 10.5318 100.394 11.153V13.9588H99.3443V10.5899C99.3443 10.1727 99.3343 9.72563 99.3053 9.24049H100.228L100.277 9.96869H100.306C100.587 9.46456 101.16 9.14347 101.801 9.14347C102.791 9.14347 103.443 9.90067 103.443 11.133V13.9588ZM110.497 10.0277H109.344V12.3183C109.344 12.9015 109.546 13.1926 109.954 13.1926C110.139 13.1926 110.294 13.1726 110.419 13.1436L110.448 13.9398C110.245 14.0178 109.973 14.0568 109.635 14.0568C108.808 14.0568 108.314 13.6007 108.314 12.4064V10.0277H107.626V9.24149H108.314V8.37726L109.344 8.06617V9.24049H110.497V10.0277ZM116.048 13.9588H115.001V11.27C115.001 10.4258 114.682 9.9987 114.049 9.9987C113.506 9.9987 113 10.3678 113 11.115V13.9588H111.952V7.0769H113V9.91068H113.021C113.351 9.39654 113.829 9.14347 114.439 9.14347C115.438 9.14347 116.048 9.91968 116.048 11.153V13.9588ZM121.735 11.8522H118.589C118.609 12.7455 119.2 13.2496 120.075 13.2496C120.541 13.2496 120.969 13.1716 121.347 13.0265L121.51 13.7547C121.064 13.9488 120.539 14.0458 119.927 14.0458C118.452 14.0458 117.578 13.1136 117.578 11.6682C117.578 10.2218 118.473 9.13447 119.809 9.13447C121.015 9.13447 121.771 10.0277 121.771 11.3771C121.778 11.5363 121.766 11.6958 121.735 11.8522ZM120.774 11.105C120.774 10.3768 120.407 9.86266 119.736 9.86266C119.134 9.86266 118.658 10.3868 118.59 11.105H120.774Z" fill="white"/>
<defs>
<linearGradient id="paint0_linear_2697_2631" x1="99.5123" y1="40.6283" x2="99.5123" y2="-103.631" gradientUnits="userSpaceOnUse">
<stop stop-color="#1A1A1A" stop-opacity="0.1"/>
<stop offset="0.123" stop-color="#212121" stop-opacity="0.151"/>
<stop offset="0.308" stop-color="#353535" stop-opacity="0.227"/>
<stop offset="0.532" stop-color="#575757" stop-opacity="0.318"/>
<stop offset="0.783" stop-color="#858585" stop-opacity="0.421"/>
<stop offset="1" stop-color="#B3B3B3" stop-opacity="0.51"/>
</linearGradient>
</defs>
</svg>
