<svg width="52" height="52" viewBox="0 0 52 52" fill="none" xmlns="http://www.w3.org/2000/svg">
<rect x="0.989258" y="0.452637" width="50.9684" height="50.9684" rx="25.4842" fill="#F0F7FF"/>
<path d="M26.4738 25.3536C25.7002 25.3536 24.9584 25.0463 24.4114 24.4993C23.8644 23.9523 23.5571 23.2105 23.5571 22.4369C23.5571 21.6634 23.8644 20.9215 24.4114 20.3745C24.9584 19.8276 25.7002 19.5203 26.4738 19.5203C27.2473 19.5203 27.9892 19.8276 28.5362 20.3745C29.0832 20.9215 29.3905 21.6634 29.3905 22.4369C29.3905 22.82 29.315 23.1992 29.1684 23.5531C29.0219 23.907 28.807 24.2285 28.5362 24.4993C28.2654 24.7702 27.9438 24.985 27.59 25.1316C27.2361 25.2782 26.8568 25.3536 26.4738 25.3536ZM26.4738 14.2703C24.3079 14.2703 22.2306 15.1307 20.6991 16.6622C19.1675 18.1938 18.3071 20.271 18.3071 22.4369C18.3071 28.5619 26.4738 37.6036 26.4738 37.6036C26.4738 37.6036 34.6405 28.5619 34.6405 22.4369C34.6405 20.271 33.78 18.1938 32.2485 16.6622C30.717 15.1307 28.6397 14.2703 26.4738 14.2703Z" fill="#5C9FF1"/>
</svg>
