<svg width="41" height="41" viewBox="0 0 41 41" fill="none" xmlns="http://www.w3.org/2000/svg">
<rect x="0.989502" y="0.389252" width="40" height="40" rx="20" fill="#F0F7FF"/>
<path d="M18.5553 19.1686C17.2601 19.1686 16.0182 18.654 15.1023 17.7382C14.1865 16.8225 13.6721 15.5804 13.6721 14.2852C13.6721 12.9901 14.1865 11.7481 15.1023 10.8323C16.0182 9.91648 17.2601 9.40207 18.5553 9.40207C19.8504 9.40207 21.0926 9.91648 22.0082 10.8323C22.924 11.7481 23.4386 12.9901 23.4386 14.2852C23.4386 15.5804 22.924 16.8225 22.0082 17.7382C21.0926 18.654 19.8504 19.1686 18.5553 19.1686Z" fill="#3C89E7"/>
<path d="M11.2305 31.3765C10.9068 31.3765 10.5963 31.2479 10.3674 31.0188C10.1383 30.7899 10.0098 30.4794 10.0098 30.1557V26.4933C10.0116 24.8748 10.6554 23.3234 11.7997 22.1791C12.944 21.0349 14.4954 20.3911 16.1139 20.3892H20.997C23.1765 20.3907 25.1898 21.5538 26.2793 23.4412C26.4973 23.8195 26.4971 24.2852 26.2787 24.6631C26.0602 25.041 25.6567 25.2736 25.2202 25.2734C24.7837 25.2732 24.3804 25.0402 24.1624 24.6621C23.5092 23.5308 22.3029 22.8329 20.9968 22.8309H16.1136C15.1422 22.8309 14.2107 23.2167 13.5238 23.9034C12.8371 24.5903 12.4512 25.5219 12.4512 26.4933V30.1557C12.4512 30.4794 12.3224 30.7899 12.0935 31.0188C11.8646 31.2479 11.5542 31.3764 11.2303 31.3764L11.2305 31.3765Z" fill="#3C89E7"/>
<path d="M25.8802 31.3765C25.5564 31.3765 25.246 31.2477 25.0171 31.0188L22.5754 28.5771H22.5756C22.276 28.2671 22.1624 27.8219 22.2762 27.4063C22.3902 26.9906 22.715 26.6656 23.1309 26.5518C23.5466 26.4377 23.9917 26.5514 24.3018 26.851L25.8802 28.4294L29.9002 24.4093H29.9004C30.2105 24.1099 30.6554 23.996 31.0713 24.1101C31.487 24.2241 31.8118 24.5489 31.9258 24.9646C32.0399 25.3805 31.926 25.8254 31.6266 26.1354L26.7432 31.0188C26.5145 31.2477 26.2039 31.3765 25.8802 31.3765Z" fill="#3C89E7"/>
</svg>
